G04*
G04 #@! TF.GenerationSoftware,Altium Limited,Altium Designer,21.3.1 (25)*
G04*
G04 Layer_Color=1930808*
%FSLAX44Y44*%
%MOMM*%
G71*
G04*
G04 #@! TF.SameCoordinates,07AAF50E-0F06-4378-A151-48E409635E6A*
G04*
G04*
G04 #@! TF.FilePolarity,Positive*
G04*
G01*
G75*
%ADD10C,0.2000*%
%ADD68C,0.1000*%
D10*
X940950Y601750D02*
X1000640D01*
Y538250D02*
Y601750D01*
X940950Y538250D02*
X1000640D01*
X940950D02*
Y601750D01*
X940550Y411750D02*
X1000240D01*
Y348250D02*
Y411750D01*
X940550Y348250D02*
X1000240D01*
X940550D02*
Y411750D01*
X705950D02*
X765640D01*
Y348250D02*
Y411750D01*
X705950Y348250D02*
X765640D01*
X705950D02*
Y411750D01*
Y601750D02*
X765640D01*
Y538250D02*
Y601750D01*
X705950Y538250D02*
X765640D01*
X705950D02*
Y601750D01*
D68*
X866167Y415438D02*
G03*
X902281Y436288I7632J28482D01*
G01*
X886533Y463565D02*
G03*
X850419Y442715I-7632J-28482D01*
G01*
X855419Y503285D02*
G03*
X891533Y482435I28482J7632D01*
G01*
X907281Y509712D02*
G03*
X871167Y530562I-28482J-7632D01*
G01*
X806552Y496350D02*
G03*
X806552Y454650I20850J-20850D01*
G01*
X838048D02*
G03*
X838048Y496350I-20850J20850D01*
G01*
X600000Y180950D02*
G03*
X600000Y180950I-25000J0D01*
G01*
X550000Y165290D02*
G03*
X549998Y196608I25000J15660D01*
G01*
X147500Y923000D02*
G03*
X147500Y923000I-5000J0D01*
G01*
X382899Y816749D02*
G03*
X391149Y824999I0J8250D01*
G01*
X391149Y854999D02*
G03*
X382899Y863249I-8250J0D01*
G01*
X285899D02*
G03*
X277649Y854999I0J-8250D01*
G01*
X277649Y824999D02*
G03*
X285899Y816749I8250J0D01*
G01*
X380149Y821499D02*
G03*
X384649Y825999I0J4500D01*
G01*
Y853999D02*
G03*
X380149Y858499I-4500J0D01*
G01*
X288649D02*
G03*
X284149Y853999I0J-4500D01*
G01*
Y825999D02*
G03*
X288649Y821499I4500J0D01*
G01*
X814225Y802700D02*
G03*
X814225Y802700I-29225J0D01*
G01*
X58000Y987048D02*
G03*
X85648Y990277I12500J12952D01*
G01*
Y996477D02*
G03*
X85648Y1003523I-3548J3523D01*
G01*
X70500Y996825D02*
G03*
X70500Y1003175I0J3175D01*
G01*
D02*
G03*
X70500Y996825I0J-3175D01*
G01*
X85648Y1009723D02*
G03*
X58000Y1012952I-15148J-9723D01*
G01*
X850419Y442715D02*
X866167Y415438D01*
X886533Y463565D02*
X902281Y436288D01*
X855419Y503285D02*
X871167Y530562D01*
X891533Y482435D02*
X907281Y509712D01*
X806552Y496350D02*
X838048D01*
X806552Y454650D02*
X838048D01*
X550000Y165290D02*
Y196608D01*
X486500Y914000D02*
Y986000D01*
X133500Y914000D02*
Y986000D01*
X486500D01*
X133500Y914000D02*
X486500D01*
X550000Y972500D02*
X640000D01*
Y1117500D01*
X550000D02*
X640000D01*
X550000Y972500D02*
Y1117500D01*
X285899Y863249D02*
X382899D01*
X285899Y816749D02*
X382899D01*
X288650Y858499D02*
X380150D01*
X288650Y821499D02*
X380150D01*
X284149Y825999D02*
Y853999D01*
X277649Y824999D02*
Y854999D01*
X384649Y825999D02*
Y853999D01*
X391149Y824999D02*
Y854999D01*
X391149Y854999D01*
X787300Y1038250D02*
Y1076350D01*
X812700Y1038250D02*
Y1076350D01*
X787300Y1038250D02*
X812700D01*
X787300Y1076350D02*
X812700D01*
X168250Y852700D02*
X206350D01*
X168250Y827300D02*
X206350D01*
X168250D02*
Y852700D01*
X206350Y827300D02*
Y852700D01*
X223650D02*
X261750D01*
X223650Y827300D02*
X261750D01*
X223650D02*
Y852700D01*
X261750Y827300D02*
Y852700D01*
X663000Y1087500D02*
X767000D01*
X767000Y1041500D02*
Y1087500D01*
X663000Y1041500D02*
X767000D01*
X663000D02*
Y1087500D01*
Y1054500D02*
X767000D01*
X88500Y1007500D02*
Y1015000D01*
Y985000D02*
Y992500D01*
X85500Y982000D02*
X88500Y985000D01*
X85648Y992700D02*
X90000D01*
X54500Y1008952D02*
X58000D01*
X54500Y991048D02*
Y1008952D01*
X85648Y990277D02*
Y996477D01*
X88500Y995800D02*
Y1004200D01*
X50500Y982000D02*
X85500D01*
X90000Y992700D02*
Y995750D01*
X85648Y1007300D02*
X90000D01*
X88500Y995750D02*
X90000D01*
X85500Y1018000D02*
X88500Y1015000D01*
X58000Y987048D02*
Y991048D01*
X54500D02*
X58000D01*
X90000Y1004250D02*
Y1007300D01*
X88500Y1004250D02*
X90000D01*
X58000Y1008952D02*
Y1012952D01*
X85648Y1003523D02*
Y1009723D01*
X50500Y982000D02*
Y1018000D01*
X50500Y1018000D02*
X85500D01*
X522500Y819000D02*
X544000Y797500D01*
X522500Y819000D02*
Y902500D01*
X627500D01*
Y819000D02*
Y902500D01*
X606000Y797500D02*
X627500Y819000D01*
X544000Y797500D02*
X606000D01*
M02*
