M48
;Layer_Color=9474304
;FILE_FORMAT=4:4
METRIC,LZ
;TYPE=PLATED
T1F00S00C0.7000
T2F00S00C0.7112
T3F00S00C0.7500
T4F00S00C0.8000
T5F00S00C0.8500
T6F00S00C0.9000
T7F00S00C1.0000
T9F00S00C1.0500
T10F00S00C1.1000
;TYPE=NON_PLATED
T11F00S00C4.0000
%
T01
X0055595Y0018095
X0056865
X0058135
X0059405
X003588Y0084
X0031
T02
X00495Y00075
X005Y0012
X00865Y00285
Y0035
X0082Y0043
X0011024Y0078024
X00154996Y0079532
X0025Y00765
X00215Y0072
X0027Y0054
X0061Y00735
X0065Y00945
X0048Y0095
X0047Y00965
X0043
T03
X006097Y004761
Y005015
Y005269
X005303
Y005015
Y004761
Y005523
Y005777
Y006031
Y006285
Y006539
X006097
Y006285
Y006031
Y005777
Y005523
T04
X008096Y004755
X00835
X0087Y004505
X008827Y00428503
X00875Y004955
X008877Y00517497
X002554Y0084
X0023
X002
X001746
X008Y010446
Y0107
T05
X00245Y000992
X0028
X00315
X00955Y001992
Y003008
X0093
X00905
X0088
X0079Y003013
X00765
X0074
Y001997
X00765
X0079
X0088Y001992
X00905
X0093
X00605Y002792
X0057
Y003808
X00605
X00535
Y002792
X00315Y002008
X0028
X00245
X00315Y004292
X00345
Y005308
X00315
X00095Y008042
Y009058
X00665Y008858
X00705
Y007842
X00665
T06
X00338Y0004
X003634
X003888
X004142
X004396
X00465
X004904
X007884Y00165
X008138
X008392
X008646
X0089
X00045Y008134
Y008388
Y008642
Y008896
Y00915
X001449Y009119
X001703
X001957
X002211
X002465
X002719
X002973
X003227
X003481
X003735
X003989
X004243
X004497
X004751
X003612Y0057
X003358
X003104
X00285
X002596
X002342
X002465Y009881
X002719
X002973
X003227
X003481
X003735
X003989
X004243
X004497
X004751
X00476Y0107
X004506
X004252
X003998
X003744
X00349
X003236
X002982
X002728
X002474
X00222
X001966
X001712
X001458
X001449Y009881
X001703
X001957
X002211
X001204Y0107
X00095
T07
X009596Y0038
X00985
X007504
X00725
Y0057
X007504
X0096
X009854
T09
X00785Y0079
Y008154
T10
X006896Y0107
X00715
X007404
T11
X00835Y00255
X00365Y0029746
X0077Y009
M30
