G04*
G04 #@! TF.GenerationSoftware,Altium Limited,Altium Designer,21.3.1 (25)*
G04*
G04 Layer_Physical_Order=1*
G04 Layer_Color=255*
%FSLAX44Y44*%
%MOMM*%
G71*
G04*
G04 #@! TF.SameCoordinates,07AAF50E-0F06-4378-A151-48E409635E6A*
G04*
G04*
G04 #@! TF.FilePolarity,Positive*
G04*
G01*
G75*
%ADD13C,0.2540*%
%ADD15R,8.8900X11.4300*%
%ADD16R,3.8100X2.0800*%
%ADD17R,1.2000X1.2000*%
%ADD18R,1.5000X1.6000*%
%ADD19R,1.9000X4.4000*%
%ADD35C,1.2500*%
%ADD36R,1.2500X1.2500*%
%ADD45C,0.7000*%
%ADD46C,1.0000*%
%ADD47C,1.5000*%
%ADD48C,4.0000*%
%ADD49C,1.3000*%
%ADD50C,1.4000*%
%ADD51C,1.6000*%
%ADD52C,1.5000*%
%ADD53R,1.5000X1.5000*%
%ADD54C,1.0000*%
%ADD55R,1.0000X1.0000*%
%ADD56R,1.5000X1.5000*%
%ADD57R,4.0000X1.5000*%
%ADD58R,3.5000X1.5000*%
%ADD59R,1.5000X3.5000*%
%ADD60C,1.2000*%
%ADD61R,1.3000X1.3000*%
%ADD62R,1.3000X1.3000*%
%ADD63C,1.7000*%
%ADD64R,1.7000X1.7000*%
%ADD65C,1.5500*%
%ADD66R,1.5500X1.5500*%
%ADD67C,1.2700*%
G36*
X35436Y1088730D02*
X34185Y1087895D01*
X11270Y1064979D01*
X10000Y1065505D01*
Y1090000D01*
X35050D01*
X35436Y1088730D01*
D02*
G37*
G36*
X820000Y760000D02*
X635000D01*
Y685903D01*
X633730Y685778D01*
X633589Y686487D01*
X632747Y687747D01*
X558885Y761609D01*
Y908200D01*
X558589Y909687D01*
X557747Y910947D01*
X484459Y984235D01*
X485140Y986778D01*
Y989422D01*
X484456Y991975D01*
X483134Y994265D01*
X481265Y996134D01*
X478975Y997456D01*
X476422Y998140D01*
X473778D01*
X471225Y997456D01*
X468935Y996134D01*
X467066Y994265D01*
X465744Y991975D01*
X465060Y989422D01*
Y986778D01*
X465744Y984225D01*
X467066Y981935D01*
X467153Y981848D01*
X466667Y980675D01*
X462619D01*
X459059Y984235D01*
X459740Y986778D01*
Y989422D01*
X459056Y991975D01*
X457734Y994265D01*
X455865Y996134D01*
X453575Y997456D01*
X451022Y998140D01*
X448378D01*
X445825Y997456D01*
X443535Y996134D01*
X441666Y994265D01*
X440344Y991975D01*
X439660Y989422D01*
Y986778D01*
X440344Y984225D01*
X441666Y981935D01*
X443535Y980066D01*
X445825Y978744D01*
X448378Y978060D01*
X451022D01*
X453565Y978741D01*
X458263Y974043D01*
X459523Y973201D01*
X461010Y972905D01*
X463537D01*
X464063Y971635D01*
X462886Y970459D01*
X461978Y968885D01*
X438022D01*
X437114Y970459D01*
X435459Y972114D01*
X433431Y973284D01*
X431170Y973890D01*
X428830D01*
X426569Y973284D01*
X424541Y972114D01*
X422886Y970459D01*
X421716Y968431D01*
X421110Y966170D01*
Y963830D01*
X421716Y961569D01*
X422886Y959541D01*
X424541Y957886D01*
X426569Y956716D01*
X428830Y956110D01*
X431170D01*
X433431Y956716D01*
X435459Y957886D01*
X437114Y959541D01*
X438022Y961115D01*
X461978D01*
X462886Y959541D01*
X464541Y957886D01*
X466569Y956716D01*
X468830Y956110D01*
X471170D01*
X471975Y956326D01*
X472367Y955953D01*
X472747Y955218D01*
X471978Y953885D01*
X426609D01*
X402911Y977583D01*
X403016Y978883D01*
X405065Y980066D01*
X406934Y981935D01*
X408256Y984225D01*
X408940Y986778D01*
Y989422D01*
X408256Y991975D01*
X406934Y994265D01*
X405065Y996134D01*
X402775Y997456D01*
X400222Y998140D01*
X397578D01*
X395025Y997456D01*
X392735Y996134D01*
X390866Y994265D01*
X389544Y991975D01*
X388860Y989422D01*
Y986778D01*
X389544Y984225D01*
X390866Y981935D01*
X392735Y980066D01*
X395015Y978750D01*
Y976100D01*
X395311Y974613D01*
X396153Y973353D01*
X422253Y947253D01*
X423513Y946411D01*
X425000Y946115D01*
X471978D01*
X472886Y944541D01*
X474541Y942886D01*
X476569Y941716D01*
X478830Y941110D01*
X481170D01*
X483431Y941716D01*
X485459Y942886D01*
X487114Y944541D01*
X488284Y946569D01*
X488890Y948830D01*
Y951170D01*
X488284Y953431D01*
X487114Y955459D01*
X485459Y957114D01*
X483431Y958284D01*
X481170Y958890D01*
X478830D01*
X478025Y958674D01*
X477633Y959047D01*
X477253Y959782D01*
X478284Y961569D01*
X478890Y963830D01*
Y966170D01*
X478284Y968431D01*
X477114Y970459D01*
X476942Y970630D01*
X477360Y972008D01*
X477476Y972031D01*
X532548Y916958D01*
X532062Y915785D01*
X484450D01*
X483134Y918065D01*
X481265Y919934D01*
X478975Y921256D01*
X476422Y921940D01*
X473778D01*
X471225Y921256D01*
X468935Y919934D01*
X467066Y918065D01*
X465744Y915775D01*
X465060Y913222D01*
Y910578D01*
X465744Y908025D01*
X467066Y905735D01*
X468935Y903866D01*
X471225Y902544D01*
X473778Y901860D01*
X476422D01*
X478975Y902544D01*
X481265Y903866D01*
X483134Y905735D01*
X484450Y908015D01*
X534307D01*
X540023Y902299D01*
Y756724D01*
X540319Y755237D01*
X541161Y753977D01*
X583931Y711207D01*
Y523384D01*
X584227Y521898D01*
X585069Y520637D01*
X601362Y504344D01*
X600910Y502657D01*
Y500343D01*
X601509Y498107D01*
X602666Y496103D01*
X604303Y494466D01*
X606307Y493309D01*
X608543Y492710D01*
X610857D01*
X613093Y493309D01*
X615097Y494466D01*
X616734Y496103D01*
X617891Y498107D01*
X618490Y500343D01*
Y502657D01*
X617891Y504893D01*
X616734Y506897D01*
X615097Y508534D01*
X613093Y509691D01*
X610857Y510290D01*
X608543D01*
X606856Y509838D01*
X591701Y524993D01*
Y708962D01*
X592874Y709448D01*
X621035Y681287D01*
Y594529D01*
X612544Y586038D01*
X610857Y586490D01*
X608543D01*
X606307Y585891D01*
X604303Y584734D01*
X602666Y583097D01*
X601509Y581093D01*
X600910Y578857D01*
Y576543D01*
X601509Y574307D01*
X602666Y572303D01*
X604303Y570666D01*
X606307Y569509D01*
X608543Y568910D01*
X610857D01*
X613093Y569509D01*
X615097Y570666D01*
X616734Y572303D01*
X617891Y574307D01*
X618490Y576543D01*
Y578857D01*
X618038Y580544D01*
X624942Y587448D01*
X626115Y586962D01*
Y491609D01*
X616397Y481890D01*
X616341D01*
X615097Y483134D01*
X613093Y484291D01*
X610857Y484890D01*
X608543D01*
X606307Y484291D01*
X604303Y483134D01*
X602666Y481497D01*
X601509Y479493D01*
X600910Y477257D01*
Y474943D01*
X601509Y472707D01*
X602666Y470703D01*
X604303Y469066D01*
X606307Y467909D01*
X608543Y467310D01*
X610857D01*
X613093Y467909D01*
X615097Y469066D01*
X616734Y470703D01*
X617891Y472707D01*
X618285Y474177D01*
X619492Y474417D01*
X620753Y475259D01*
X632747Y487253D01*
X633589Y488513D01*
X633730Y489222D01*
X635000Y489097D01*
Y10000D01*
X509415D01*
X509290Y11270D01*
X509999Y11411D01*
X511259Y12253D01*
X512747Y13741D01*
X513589Y15001D01*
X513885Y16488D01*
Y45632D01*
X513589Y47118D01*
X512747Y48379D01*
X496203Y64922D01*
X496676Y66245D01*
X498431Y66716D01*
X500459Y67886D01*
X502114Y69541D01*
X503284Y71569D01*
X503890Y73830D01*
Y76170D01*
X503284Y78431D01*
X502513Y79768D01*
X502747Y80002D01*
X503589Y81263D01*
X503885Y82749D01*
Y111978D01*
X505459Y112886D01*
X507114Y114541D01*
X508284Y116569D01*
X508890Y118830D01*
Y121170D01*
X508284Y123431D01*
X507114Y125459D01*
X505459Y127114D01*
X503431Y128284D01*
X501170Y128890D01*
X498830D01*
X496569Y128284D01*
X494541Y127114D01*
X492886Y125459D01*
X491716Y123431D01*
X491110Y121170D01*
Y118830D01*
X491716Y116569D01*
X492886Y114541D01*
X494541Y112886D01*
X496115Y111978D01*
Y84358D01*
X495647Y83890D01*
X493830D01*
X491569Y83284D01*
X489541Y82114D01*
X487886Y80459D01*
X486716Y78431D01*
X486245Y76676D01*
X484922Y76203D01*
X483965Y77161D01*
Y844920D01*
X483669Y846407D01*
X482827Y847667D01*
X453585Y876909D01*
Y902550D01*
X455865Y903866D01*
X457734Y905735D01*
X459056Y908025D01*
X459740Y910578D01*
Y913222D01*
X459056Y915775D01*
X457734Y918065D01*
X455865Y919934D01*
X453575Y921256D01*
X451022Y921940D01*
X448378D01*
X445825Y921256D01*
X443535Y919934D01*
X441666Y918065D01*
X440344Y915775D01*
X439660Y913222D01*
Y910578D01*
X440344Y908025D01*
X441666Y905735D01*
X443535Y903866D01*
X445815Y902550D01*
Y897538D01*
X444642Y897052D01*
X433659Y908035D01*
X434340Y910578D01*
Y913222D01*
X433656Y915775D01*
X432334Y918065D01*
X430465Y919934D01*
X428175Y921256D01*
X425622Y921940D01*
X422978D01*
X420425Y921256D01*
X418135Y919934D01*
X416266Y918065D01*
X414944Y915775D01*
X414260Y913222D01*
Y910578D01*
X414944Y908025D01*
X416266Y905735D01*
X418135Y903866D01*
X420425Y902544D01*
X422978Y901860D01*
X425622D01*
X428165Y902541D01*
X440735Y889971D01*
Y877476D01*
X440535Y877332D01*
X439192Y877102D01*
X408259Y908035D01*
X408940Y910578D01*
Y913222D01*
X408256Y915775D01*
X406934Y918065D01*
X405065Y919934D01*
X402775Y921256D01*
X400222Y921940D01*
X397578D01*
X395025Y921256D01*
X392735Y919934D01*
X390866Y918065D01*
X389544Y915775D01*
X388860Y913222D01*
Y910578D01*
X389544Y908025D01*
X390866Y905735D01*
X392735Y903866D01*
X395025Y902544D01*
X397578Y901860D01*
X400222D01*
X402765Y902541D01*
X433359Y871947D01*
X433698Y871440D01*
X466035Y839103D01*
Y60480D01*
X466331Y58993D01*
X467173Y57733D01*
X481041Y43865D01*
X480360Y41322D01*
Y38678D01*
X481044Y36125D01*
X482366Y33835D01*
X484235Y31966D01*
X486525Y30644D01*
X489078Y29960D01*
X491722D01*
X494275Y30644D01*
X496565Y31966D01*
X498434Y33835D01*
X499756Y36125D01*
X499765Y36160D01*
X501035Y35993D01*
Y23965D01*
X486529D01*
X474359Y36135D01*
X475040Y38678D01*
Y41322D01*
X474356Y43875D01*
X473034Y46165D01*
X471165Y48034D01*
X468875Y49356D01*
X466322Y50040D01*
X463678D01*
X461125Y49356D01*
X458835Y48034D01*
X456966Y46165D01*
X455644Y43875D01*
X454960Y41322D01*
Y38678D01*
X455644Y36125D01*
X456966Y33835D01*
X458835Y31966D01*
X461125Y30644D01*
X463678Y29960D01*
X466322D01*
X468865Y30641D01*
X479448Y20058D01*
X478962Y18885D01*
X440809D01*
X423559Y36135D01*
X424240Y38678D01*
Y41322D01*
X423556Y43875D01*
X422234Y46165D01*
X420365Y48034D01*
X418075Y49356D01*
X415522Y50040D01*
X412878D01*
X410325Y49356D01*
X408035Y48034D01*
X406166Y46165D01*
X404844Y43875D01*
X404160Y41322D01*
Y38678D01*
X404844Y36125D01*
X406166Y33835D01*
X408035Y31966D01*
X410325Y30644D01*
X412878Y29960D01*
X415522D01*
X418065Y30641D01*
X436453Y12253D01*
X437713Y11411D01*
X438423Y11270D01*
X438297Y10000D01*
X195000D01*
Y759495D01*
X196255Y760035D01*
X208842Y747449D01*
Y726414D01*
X207886Y725459D01*
X206716Y723431D01*
X206110Y721170D01*
Y718830D01*
X206716Y716569D01*
X207886Y714541D01*
X209541Y712886D01*
X211569Y711716D01*
X213830Y711110D01*
X216170D01*
X218431Y711716D01*
X220005Y712625D01*
X221275Y712023D01*
Y669131D01*
X214863Y662718D01*
X214021Y661458D01*
X213725Y659971D01*
Y559038D01*
X214021Y557551D01*
X214863Y556291D01*
X223901Y547253D01*
X225161Y546411D01*
X226648Y546115D01*
X258391D01*
X261580Y542926D01*
X261110Y541170D01*
Y538830D01*
X261716Y536569D01*
X262886Y534541D01*
X264541Y532886D01*
X266569Y531716D01*
X268830Y531110D01*
X271170D01*
X273431Y531716D01*
X275459Y532886D01*
X277114Y534541D01*
X278284Y536569D01*
X278890Y538830D01*
Y541170D01*
X278284Y543431D01*
X277472Y544838D01*
X278488Y545618D01*
X296053Y528053D01*
X297313Y527211D01*
X298800Y526915D01*
X306227D01*
X307366Y524942D01*
X309142Y523166D01*
X311318Y521910D01*
X313744Y521260D01*
X316256D01*
X318682Y521910D01*
X320858Y523166D01*
X322634Y524942D01*
X323773Y526915D01*
X336227D01*
X337366Y524942D01*
X339142Y523166D01*
X341318Y521910D01*
X343744Y521260D01*
X346256D01*
X348682Y521910D01*
X350858Y523166D01*
X352634Y524942D01*
X353890Y527118D01*
X354540Y529544D01*
Y532056D01*
X353890Y534482D01*
X352634Y536658D01*
X350858Y538434D01*
X348682Y539690D01*
X346256Y540340D01*
X343744D01*
X341318Y539690D01*
X339142Y538434D01*
X337366Y536658D01*
X336227Y534685D01*
X323773D01*
X322634Y536658D01*
X320858Y538434D01*
X318682Y539690D01*
X316256Y540340D01*
X313744D01*
X311318Y539690D01*
X309142Y538434D01*
X307366Y536658D01*
X306227Y534685D01*
X300409D01*
X268959Y566135D01*
X269640Y568678D01*
Y571322D01*
X268956Y573875D01*
X267634Y576165D01*
X265765Y578034D01*
X263475Y579356D01*
X260922Y580040D01*
X258278D01*
X255725Y579356D01*
X253435Y578034D01*
X251566Y576165D01*
X250244Y573875D01*
X249560Y571322D01*
Y568678D01*
X250244Y566125D01*
X251566Y563835D01*
X253435Y561966D01*
X255725Y560644D01*
X258278Y559960D01*
X260922D01*
X263465Y560641D01*
X275618Y548488D01*
X274838Y547472D01*
X273431Y548284D01*
X271170Y548890D01*
X268830D01*
X267074Y548420D01*
X262747Y552747D01*
X261487Y553589D01*
X260000Y553885D01*
X228257D01*
X221495Y560647D01*
Y591014D01*
X222668Y591500D01*
X226915Y587253D01*
X228176Y586411D01*
X229662Y586115D01*
X263391D01*
X275641Y573865D01*
X274960Y571322D01*
Y568678D01*
X275644Y566125D01*
X276966Y563835D01*
X278835Y561966D01*
X281125Y560644D01*
X283678Y559960D01*
X286322D01*
X288875Y560644D01*
X291165Y561966D01*
X293034Y563835D01*
X294356Y566125D01*
X295040Y568678D01*
Y571322D01*
X294356Y573875D01*
X293034Y576165D01*
X291165Y578034D01*
X288875Y579356D01*
X286322Y580040D01*
X283678D01*
X281135Y579359D01*
X267747Y592747D01*
X266487Y593589D01*
X265000Y593885D01*
X231271D01*
X226575Y598581D01*
Y656258D01*
X232987Y662671D01*
X233829Y663931D01*
X234125Y665417D01*
Y752282D01*
X233829Y753769D01*
X232987Y755029D01*
X194128Y793888D01*
X192868Y794730D01*
X191886Y794925D01*
X192011Y796195D01*
X323311D01*
X366115Y753391D01*
Y720250D01*
X366411Y718763D01*
X367253Y717503D01*
X397710Y687046D01*
Y666660D01*
X440890D01*
Y692540D01*
X403204D01*
X373885Y721859D01*
Y755000D01*
X373589Y756487D01*
X372747Y757747D01*
X327667Y802827D01*
X326407Y803669D01*
X324920Y803965D01*
X188713D01*
X158965Y833713D01*
Y873471D01*
X187137Y901643D01*
X187979Y902903D01*
X188099Y903506D01*
X189477Y903924D01*
X189535Y903866D01*
X191825Y902544D01*
X194378Y901860D01*
X197022D01*
X199575Y902544D01*
X201865Y903866D01*
X203734Y905735D01*
X205056Y908025D01*
X205740Y910578D01*
Y913222D01*
X205056Y915775D01*
X203734Y918065D01*
X201865Y919934D01*
X199575Y921256D01*
X197022Y921940D01*
X196898D01*
X196412Y923113D01*
X198447Y925148D01*
X199289Y926408D01*
X199585Y927895D01*
Y978750D01*
X201865Y980066D01*
X203734Y981935D01*
X205056Y984225D01*
X205740Y986778D01*
Y989422D01*
X205056Y991975D01*
X203734Y994265D01*
X203647Y994352D01*
X204133Y995525D01*
X208181D01*
X211741Y991965D01*
X211060Y989422D01*
Y986778D01*
X211744Y984225D01*
X213066Y981935D01*
X214935Y980066D01*
X217225Y978744D01*
X219778Y978060D01*
X222422D01*
X224975Y978744D01*
X227265Y980066D01*
X229134Y981935D01*
X230456Y984225D01*
X231140Y986778D01*
Y989422D01*
X230456Y991975D01*
X229134Y994265D01*
X227265Y996134D01*
X224975Y997456D01*
X222422Y998140D01*
X219778D01*
X217235Y997459D01*
X214832Y999862D01*
X215318Y1001035D01*
X228071D01*
X237141Y991965D01*
X236460Y989422D01*
Y986778D01*
X237144Y984225D01*
X238466Y981935D01*
X240335Y980066D01*
X242625Y978744D01*
X245178Y978060D01*
X247822D01*
X250375Y978744D01*
X252665Y980066D01*
X254534Y981935D01*
X255856Y984225D01*
X256540Y986778D01*
Y989422D01*
X255856Y991975D01*
X254534Y994265D01*
X252665Y996134D01*
X250375Y997456D01*
X247822Y998140D01*
X245178D01*
X242635Y997459D01*
X235152Y1004942D01*
X235638Y1006115D01*
X248391D01*
X262541Y991965D01*
X261860Y989422D01*
Y986778D01*
X262544Y984225D01*
X263866Y981935D01*
X265735Y980066D01*
X268025Y978744D01*
X270578Y978060D01*
X273222D01*
X275775Y978744D01*
X278065Y980066D01*
X279934Y981935D01*
X281256Y984225D01*
X281940Y986778D01*
Y989422D01*
X281256Y991975D01*
X279934Y994265D01*
X278065Y996134D01*
X275775Y997456D01*
X273222Y998140D01*
X270578D01*
X268035Y997459D01*
X252747Y1012747D01*
X251487Y1013589D01*
X250000Y1013885D01*
X125000D01*
X123513Y1013589D01*
X122253Y1012747D01*
X48391Y938885D01*
X37428D01*
X35941Y938589D01*
X34681Y937747D01*
X22428Y925494D01*
X21425Y925779D01*
X21158Y925972D01*
Y949949D01*
X52669Y981460D01*
X61040D01*
Y998540D01*
X45169D01*
X43208Y1000502D01*
X44045Y1001460D01*
X45195Y1001460D01*
X51230D01*
Y1008730D01*
X43960D01*
Y1002727D01*
X43960Y1001545D01*
X43002Y1000707D01*
X21158Y1022551D01*
Y1057449D01*
X41091Y1077382D01*
X84960D01*
Y1071270D01*
X105040D01*
Y1077137D01*
X106310Y1077280D01*
X110763Y1072827D01*
X110360Y1071322D01*
Y1068678D01*
X111044Y1066125D01*
X112366Y1063835D01*
X114235Y1061966D01*
X116525Y1060644D01*
X119078Y1059960D01*
X121722D01*
X124275Y1060644D01*
X126565Y1061966D01*
X128434Y1063835D01*
X129756Y1066125D01*
X130440Y1068678D01*
Y1071322D01*
X130438Y1071329D01*
X136150Y1077041D01*
X136890Y1076942D01*
X137449Y1075615D01*
X136444Y1073875D01*
X135760Y1071322D01*
Y1068678D01*
X136444Y1066125D01*
X137766Y1063835D01*
X139531Y1062070D01*
Y1060525D01*
X89546Y1010540D01*
X74960D01*
Y989460D01*
X95040D01*
Y1005046D01*
X146163Y1056169D01*
X147005Y1057429D01*
X147301Y1058916D01*
Y1060008D01*
X149675Y1060644D01*
X151965Y1061966D01*
X153834Y1063835D01*
X155156Y1066125D01*
X155840Y1068678D01*
Y1071322D01*
X155156Y1073875D01*
X153865Y1076112D01*
X154030Y1076786D01*
X154276Y1077382D01*
X162724D01*
X162970Y1076786D01*
X163135Y1076112D01*
X161844Y1073875D01*
X161160Y1071322D01*
Y1068678D01*
X161844Y1066125D01*
X163166Y1063835D01*
X165035Y1061966D01*
X167325Y1060644D01*
X169878Y1059960D01*
X172522D01*
X175075Y1060644D01*
X177365Y1061966D01*
X179234Y1063835D01*
X180556Y1066125D01*
X181240Y1068678D01*
Y1071322D01*
X180556Y1073875D01*
X179265Y1076112D01*
X179430Y1076786D01*
X179676Y1077382D01*
X188124D01*
X188370Y1076786D01*
X188535Y1076112D01*
X187244Y1073875D01*
X186560Y1071322D01*
Y1071270D01*
X206640D01*
Y1071322D01*
X205956Y1073875D01*
X204665Y1076112D01*
X204830Y1076786D01*
X205076Y1077382D01*
X213524D01*
X213770Y1076786D01*
X213935Y1076112D01*
X212644Y1073875D01*
X211960Y1071322D01*
Y1068678D01*
X212644Y1066125D01*
X213966Y1063835D01*
X215835Y1061966D01*
X218125Y1060644D01*
X220678Y1059960D01*
X223322D01*
X225875Y1060644D01*
X228165Y1061966D01*
X230034Y1063835D01*
X231356Y1066125D01*
X232040Y1068678D01*
Y1071322D01*
X231356Y1073875D01*
X230065Y1076112D01*
X230230Y1076786D01*
X230476Y1077382D01*
X238924D01*
X239170Y1076786D01*
X239335Y1076112D01*
X238044Y1073875D01*
X237360Y1071322D01*
Y1068678D01*
X238044Y1066125D01*
X239366Y1063835D01*
X241235Y1061966D01*
X243525Y1060644D01*
X246078Y1059960D01*
X248722D01*
X251275Y1060644D01*
X253565Y1061966D01*
X255434Y1063835D01*
X256756Y1066125D01*
X257440Y1068678D01*
Y1071322D01*
X256756Y1073875D01*
X255465Y1076112D01*
X255630Y1076786D01*
X255876Y1077382D01*
X264324D01*
X264570Y1076786D01*
X264735Y1076112D01*
X263444Y1073875D01*
X262760Y1071322D01*
Y1068678D01*
X263444Y1066125D01*
X264766Y1063835D01*
X266635Y1061966D01*
X268925Y1060644D01*
X271478Y1059960D01*
X274122D01*
X276675Y1060644D01*
X278965Y1061966D01*
X280834Y1063835D01*
X282156Y1066125D01*
X282840Y1068678D01*
Y1071322D01*
X282156Y1073875D01*
X280865Y1076112D01*
X281030Y1076786D01*
X281276Y1077382D01*
X289724D01*
X289970Y1076786D01*
X290135Y1076112D01*
X288844Y1073875D01*
X288160Y1071322D01*
Y1068678D01*
X288844Y1066125D01*
X290166Y1063835D01*
X292035Y1061966D01*
X294325Y1060644D01*
X296878Y1059960D01*
X299522D01*
X302075Y1060644D01*
X304365Y1061966D01*
X306234Y1063835D01*
X307556Y1066125D01*
X308240Y1068678D01*
Y1071322D01*
X307556Y1073875D01*
X306265Y1076112D01*
X306430Y1076786D01*
X306676Y1077382D01*
X315124D01*
X315370Y1076786D01*
X315535Y1076112D01*
X314244Y1073875D01*
X313560Y1071322D01*
Y1068678D01*
X314244Y1066125D01*
X315566Y1063835D01*
X317435Y1061966D01*
X319725Y1060644D01*
X322278Y1059960D01*
X324922D01*
X327475Y1060644D01*
X329765Y1061966D01*
X331634Y1063835D01*
X332956Y1066125D01*
X333640Y1068678D01*
Y1071322D01*
X332956Y1073875D01*
X331665Y1076112D01*
X331830Y1076786D01*
X332076Y1077382D01*
X340524D01*
X340770Y1076786D01*
X340935Y1076112D01*
X339644Y1073875D01*
X338960Y1071322D01*
Y1068678D01*
X339644Y1066125D01*
X340966Y1063835D01*
X342835Y1061966D01*
X345125Y1060644D01*
X347678Y1059960D01*
X350322D01*
X352875Y1060644D01*
X355165Y1061966D01*
X357034Y1063835D01*
X358356Y1066125D01*
X359040Y1068678D01*
Y1071322D01*
X358356Y1073875D01*
X357065Y1076112D01*
X357230Y1076786D01*
X357476Y1077382D01*
X365924D01*
X366170Y1076786D01*
X366335Y1076112D01*
X365044Y1073875D01*
X364360Y1071322D01*
Y1068678D01*
X365044Y1066125D01*
X366366Y1063835D01*
X368235Y1061966D01*
X370525Y1060644D01*
X373078Y1059960D01*
X375722D01*
X378275Y1060644D01*
X380565Y1061966D01*
X382434Y1063835D01*
X383756Y1066125D01*
X384440Y1068678D01*
Y1071322D01*
X383756Y1073875D01*
X382465Y1076112D01*
X382630Y1076786D01*
X382876Y1077382D01*
X391324D01*
X391570Y1076786D01*
X391735Y1076112D01*
X390444Y1073875D01*
X389760Y1071322D01*
Y1068678D01*
X390444Y1066125D01*
X391766Y1063835D01*
X393635Y1061966D01*
X395925Y1060644D01*
X398478Y1059960D01*
X401122D01*
X403675Y1060644D01*
X405965Y1061966D01*
X407834Y1063835D01*
X409156Y1066125D01*
X409840Y1068678D01*
Y1071322D01*
X409156Y1073875D01*
X407865Y1076112D01*
X408030Y1076786D01*
X408276Y1077382D01*
X416724D01*
X416970Y1076786D01*
X417135Y1076112D01*
X415844Y1073875D01*
X415160Y1071322D01*
Y1068678D01*
X415844Y1066125D01*
X417166Y1063835D01*
X419035Y1061966D01*
X421325Y1060644D01*
X423878Y1059960D01*
X426522D01*
X429075Y1060644D01*
X431365Y1061966D01*
X433234Y1063835D01*
X434556Y1066125D01*
X435240Y1068678D01*
Y1071322D01*
X434556Y1073875D01*
X433265Y1076112D01*
X433430Y1076786D01*
X433676Y1077382D01*
X435862D01*
X440848Y1072396D01*
X440560Y1071322D01*
Y1068678D01*
X440562Y1068671D01*
X407099Y1035208D01*
X389050D01*
X386693Y1034740D01*
X384695Y1033405D01*
X349429Y998138D01*
X349422Y998140D01*
X346778D01*
X344225Y997456D01*
X341935Y996134D01*
X340066Y994265D01*
X340062Y994258D01*
X330738D01*
X330734Y994265D01*
X328865Y996134D01*
X326575Y997456D01*
X324022Y998140D01*
X321378D01*
X318825Y997456D01*
X316535Y996134D01*
X314666Y994265D01*
X313344Y991975D01*
X312660Y989422D01*
Y986778D01*
X312662Y986771D01*
X292945Y967055D01*
X291610Y965057D01*
X291142Y962700D01*
Y919938D01*
X291135Y919934D01*
X289266Y918065D01*
X287944Y915775D01*
X287260Y913222D01*
Y910578D01*
X287944Y908025D01*
X289266Y905735D01*
X291135Y903866D01*
X293425Y902544D01*
X295978Y901860D01*
X298622D01*
X301175Y902544D01*
X303465Y903866D01*
X305334Y905735D01*
X306656Y908025D01*
X307340Y910578D01*
Y913222D01*
X306656Y915775D01*
X305334Y918065D01*
X303465Y919934D01*
X303458Y919938D01*
Y960149D01*
X321371Y978062D01*
X321378Y978060D01*
X324022D01*
X326575Y978744D01*
X328865Y980066D01*
X330734Y981935D01*
X330738Y981942D01*
X340062D01*
X340066Y981935D01*
X341935Y980066D01*
X344225Y978744D01*
X346778Y978060D01*
X349422D01*
X351975Y978744D01*
X354265Y980066D01*
X356134Y981935D01*
X357456Y984225D01*
X358140Y986778D01*
Y989422D01*
X358138Y989429D01*
X391601Y1022892D01*
X409650D01*
X412007Y1023360D01*
X414005Y1024695D01*
X449271Y1059962D01*
X449278Y1059960D01*
X451922D01*
X454475Y1060644D01*
X456765Y1061966D01*
X458634Y1063835D01*
X459956Y1066125D01*
X460640Y1068678D01*
Y1069978D01*
X466052Y1075390D01*
X467069Y1074610D01*
X466644Y1073875D01*
X465960Y1071322D01*
Y1071270D01*
X486040D01*
Y1071322D01*
X485356Y1073875D01*
X484065Y1076112D01*
X484230Y1076786D01*
X484476Y1077382D01*
X671615D01*
X678560Y1070437D01*
Y1068547D01*
X679312Y1065739D01*
X680766Y1063221D01*
X682821Y1061166D01*
X685339Y1059712D01*
X688147Y1058960D01*
X691053D01*
X693861Y1059712D01*
X696379Y1061166D01*
X698434Y1063221D01*
X699888Y1065739D01*
X700640Y1068547D01*
Y1071453D01*
X699888Y1074261D01*
X698434Y1076779D01*
X696379Y1078834D01*
X693861Y1080288D01*
X691053Y1081040D01*
X688147D01*
X685961Y1080454D01*
X678520Y1087895D01*
X677270Y1088730D01*
X677655Y1090000D01*
X820000D01*
Y760000D01*
D02*
G37*
G36*
X187753Y994352D02*
X187666Y994265D01*
X186344Y991975D01*
X185660Y989422D01*
Y986778D01*
X186344Y984225D01*
X187666Y981935D01*
X189535Y980066D01*
X191815Y978750D01*
Y929504D01*
X181643Y919332D01*
X180801Y918071D01*
X180544Y916777D01*
X180033Y916555D01*
X179235Y916504D01*
X178334Y918065D01*
X176465Y919934D01*
X174175Y921256D01*
X171622Y921940D01*
X168978D01*
X166425Y921256D01*
X164135Y919934D01*
X162266Y918065D01*
X160944Y915775D01*
X160260Y913222D01*
Y910578D01*
X160941Y908035D01*
X156113Y903207D01*
X154940Y903693D01*
Y921940D01*
X134860D01*
Y901860D01*
X153107D01*
X153593Y900687D01*
X147253Y894347D01*
X146411Y893087D01*
X146115Y891600D01*
Y830000D01*
X146411Y828513D01*
X147253Y827253D01*
X184608Y789898D01*
X184122Y788725D01*
X162581D01*
X162497Y788926D01*
X162187Y789995D01*
X163280Y791889D01*
X163886Y794150D01*
Y796490D01*
X163280Y798751D01*
X162110Y800779D01*
X160455Y802434D01*
X158428Y803604D01*
X156166Y804210D01*
X153826D01*
X151821Y803673D01*
X147747Y807747D01*
X146487Y808589D01*
X145000Y808885D01*
X136609D01*
X123965Y821529D01*
Y933471D01*
X168643Y978150D01*
X168978Y978060D01*
X171622D01*
X174175Y978744D01*
X176465Y980066D01*
X178334Y981935D01*
X179656Y984225D01*
X180340Y986778D01*
Y989422D01*
X179656Y991975D01*
X178334Y994265D01*
X178247Y994352D01*
X178733Y995525D01*
X187267D01*
X187753Y994352D01*
D02*
G37*
G36*
X162353D02*
X162266Y994265D01*
X160944Y991975D01*
X160260Y989422D01*
Y986778D01*
X160944Y984225D01*
X161964Y982458D01*
X120058Y940552D01*
X118885Y941038D01*
Y956591D01*
X141035Y978741D01*
X143578Y978060D01*
X146222D01*
X148775Y978744D01*
X151065Y980066D01*
X152934Y981935D01*
X154256Y984225D01*
X154940Y986778D01*
Y989422D01*
X154256Y991975D01*
X152934Y994265D01*
X152847Y994352D01*
X153333Y995525D01*
X161867D01*
X162353Y994352D01*
D02*
G37*
G36*
X37562Y988728D02*
X37654Y988032D01*
X38414Y986198D01*
X39097Y985307D01*
X11270Y957479D01*
X10000Y958005D01*
Y1014495D01*
X11270Y1015021D01*
X37562Y988728D01*
D02*
G37*
G36*
X180154Y906349D02*
X180245Y905738D01*
X155058Y880552D01*
X153885Y881038D01*
Y889991D01*
X166435Y902541D01*
X168978Y901860D01*
X171622D01*
X174175Y902544D01*
X176465Y903866D01*
X178334Y905735D01*
X178834Y906600D01*
X180154Y906349D01*
D02*
G37*
G36*
X136953Y994352D02*
X136866Y994265D01*
X135544Y991975D01*
X134860Y989422D01*
Y986778D01*
X135541Y984235D01*
X112253Y960947D01*
X111411Y959687D01*
X111115Y958200D01*
Y815000D01*
X111411Y813513D01*
X112253Y812253D01*
X142413Y782093D01*
X143673Y781251D01*
X145160Y780955D01*
X188889D01*
X192512Y777332D01*
X192027Y776158D01*
X140553D01*
X119727Y796985D01*
X117729Y798320D01*
X115372Y798788D01*
X110730D01*
X104540Y804978D01*
Y805456D01*
X103890Y807882D01*
X102634Y810058D01*
X100858Y811834D01*
X98682Y813090D01*
X96256Y813740D01*
X94169D01*
X82150Y825759D01*
X80152Y827094D01*
X77796Y827563D01*
X64947D01*
X55038Y837471D01*
X55040Y837478D01*
Y840122D01*
X54356Y842675D01*
X53034Y844965D01*
X51165Y846834D01*
X48875Y848156D01*
X46322Y848840D01*
X43678D01*
X43671Y848838D01*
X21158Y871351D01*
Y880800D01*
X21425Y880993D01*
X22428Y881278D01*
X35641Y868065D01*
X34960Y865522D01*
Y862878D01*
X35644Y860325D01*
X36966Y858035D01*
X38835Y856166D01*
X41125Y854844D01*
X43678Y854160D01*
X46322D01*
X48875Y854844D01*
X51165Y856166D01*
X53034Y858035D01*
X54356Y860325D01*
X55040Y862878D01*
Y865522D01*
X54356Y868075D01*
X53034Y870365D01*
X51165Y872234D01*
X48875Y873556D01*
X46322Y874240D01*
X43678D01*
X41135Y873559D01*
X29698Y884995D01*
X30023Y886335D01*
X30098Y886392D01*
X31488Y886115D01*
X35540D01*
X35644Y885725D01*
X36966Y883435D01*
X38835Y881566D01*
X41125Y880244D01*
X43678Y879560D01*
X46322D01*
X48875Y880244D01*
X51165Y881566D01*
X53034Y883435D01*
X54356Y885725D01*
X55040Y888278D01*
Y890922D01*
X54356Y893475D01*
X53034Y895765D01*
X51165Y897634D01*
X48875Y898956D01*
X46322Y899640D01*
X43678D01*
X41125Y898956D01*
X38835Y897634D01*
X36966Y895765D01*
X35881Y893885D01*
X33885D01*
Y904490D01*
X34960Y904960D01*
Y904960D01*
X55040D01*
Y919546D01*
X131019Y995525D01*
X136467D01*
X136953Y994352D01*
D02*
G37*
G36*
X34962Y840129D02*
X34960Y840122D01*
Y837478D01*
X35644Y834925D01*
X36966Y832635D01*
X38835Y830766D01*
X41125Y829444D01*
X43678Y828760D01*
X46322D01*
X46329Y828762D01*
X57342Y817749D01*
X56816Y816479D01*
X54569D01*
X54356Y817275D01*
X53034Y819565D01*
X51165Y821434D01*
X48875Y822756D01*
X46322Y823440D01*
X43678D01*
X41125Y822756D01*
X38835Y821434D01*
X36966Y819565D01*
X35644Y817275D01*
X34960Y814722D01*
Y812078D01*
X35644Y809525D01*
X36966Y807235D01*
X38835Y805366D01*
X41125Y804044D01*
X43678Y803360D01*
X46322D01*
X48875Y804044D01*
X51165Y805366D01*
X53034Y807235D01*
X53885Y808710D01*
X65797D01*
X95823Y778683D01*
X97083Y777841D01*
X98570Y777545D01*
X101758D01*
X101956Y776809D01*
X103126Y774781D01*
X104781Y773126D01*
X106809Y771956D01*
X109070Y771350D01*
X111410D01*
X113671Y771956D01*
X115699Y773126D01*
X117354Y774781D01*
X118524Y776809D01*
X118982Y778515D01*
X120327Y778966D01*
X133647Y765645D01*
X135645Y764311D01*
X138002Y763842D01*
X138002Y763842D01*
X192449D01*
X195035Y761255D01*
X194495Y760000D01*
X10000D01*
Y863295D01*
X11270Y863821D01*
X34962Y840129D01*
D02*
G37*
G36*
X1030000Y145000D02*
X675000D01*
Y630000D01*
X1030000D01*
Y145000D01*
D02*
G37*
%LPC*%
G36*
X716453Y1081040D02*
X716270D01*
Y1071270D01*
X726040D01*
Y1071453D01*
X725288Y1074261D01*
X723834Y1076779D01*
X721779Y1078834D01*
X719261Y1080288D01*
X716453Y1081040D01*
D02*
G37*
G36*
X713730D02*
X713547D01*
X710739Y1080288D01*
X708221Y1078834D01*
X706166Y1076779D01*
X704712Y1074261D01*
X703960Y1071453D01*
Y1071270D01*
X713730D01*
Y1081040D01*
D02*
G37*
G36*
X751440D02*
X729360D01*
Y1058960D01*
X730273D01*
Y1019595D01*
X701305Y990627D01*
X595000D01*
X594342Y990540D01*
X572460D01*
Y970460D01*
X594342D01*
X595000Y970373D01*
X705500D01*
X705500Y970373D01*
X708121Y970718D01*
X710563Y971730D01*
X712661Y973339D01*
X747561Y1008239D01*
X747561Y1008239D01*
X749170Y1010337D01*
X749845Y1011967D01*
X751115Y1011715D01*
Y1006609D01*
X702253Y957747D01*
X701411Y956487D01*
X701115Y955000D01*
Y894573D01*
X699142Y893434D01*
X697366Y891658D01*
X696110Y889482D01*
X695460Y887056D01*
Y884544D01*
X696110Y882118D01*
X697366Y879942D01*
X699142Y878166D01*
X701318Y876910D01*
X703744Y876260D01*
X706256D01*
X708682Y876910D01*
X710858Y878166D01*
X712634Y879942D01*
X713890Y882118D01*
X714540Y884544D01*
Y887056D01*
X713890Y889482D01*
X712634Y891658D01*
X710858Y893434D01*
X708885Y894573D01*
Y953391D01*
X757747Y1002253D01*
X758589Y1003513D01*
X758885Y1005000D01*
Y1055400D01*
X758589Y1056887D01*
X757747Y1058147D01*
X751440Y1064454D01*
Y1066115D01*
X791804D01*
X792766Y1064449D01*
X794449Y1062766D01*
X796511Y1061576D01*
X798810Y1060960D01*
X801190D01*
X803489Y1061576D01*
X805551Y1062766D01*
X807234Y1064449D01*
X808424Y1066511D01*
X809040Y1068810D01*
Y1071190D01*
X808424Y1073489D01*
X807234Y1075551D01*
X805551Y1077234D01*
X803489Y1078424D01*
X801190Y1079040D01*
X798810D01*
X796511Y1078424D01*
X794449Y1077234D01*
X792766Y1075551D01*
X791804Y1073885D01*
X751440D01*
Y1081040D01*
D02*
G37*
G36*
X486040Y1068730D02*
X477270D01*
Y1059960D01*
X477322D01*
X479875Y1060644D01*
X482165Y1061966D01*
X484034Y1063835D01*
X485356Y1066125D01*
X486040Y1068678D01*
Y1068730D01*
D02*
G37*
G36*
X474730D02*
X465960D01*
Y1068678D01*
X466644Y1066125D01*
X467966Y1063835D01*
X469835Y1061966D01*
X472125Y1060644D01*
X474678Y1059960D01*
X474730D01*
Y1068730D01*
D02*
G37*
G36*
X206640D02*
X197870D01*
Y1059960D01*
X197922D01*
X200475Y1060644D01*
X202765Y1061966D01*
X204634Y1063835D01*
X205956Y1066125D01*
X206640Y1068678D01*
Y1068730D01*
D02*
G37*
G36*
X195330D02*
X186560D01*
Y1068678D01*
X187244Y1066125D01*
X188566Y1063835D01*
X190435Y1061966D01*
X192725Y1060644D01*
X195278Y1059960D01*
X195330D01*
Y1068730D01*
D02*
G37*
G36*
X105040D02*
X96270D01*
Y1059960D01*
X105040D01*
Y1068730D01*
D02*
G37*
G36*
X93730D02*
X84960D01*
Y1059960D01*
X93730D01*
Y1068730D01*
D02*
G37*
G36*
X726040D02*
X716270D01*
Y1058960D01*
X716453D01*
X719261Y1059712D01*
X721779Y1061166D01*
X723834Y1063221D01*
X725288Y1065739D01*
X726040Y1068547D01*
Y1068730D01*
D02*
G37*
G36*
X713730D02*
X703960D01*
Y1068547D01*
X704712Y1065739D01*
X706166Y1063221D01*
X708221Y1061166D01*
X710739Y1059712D01*
X713547Y1058960D01*
X713730D01*
Y1068730D01*
D02*
G37*
G36*
X809040Y1053640D02*
X801270D01*
Y1045870D01*
X809040D01*
Y1053640D01*
D02*
G37*
G36*
X798730D02*
X790960D01*
Y1045870D01*
X798730D01*
Y1053640D01*
D02*
G37*
G36*
X615040Y1050540D02*
X596270D01*
Y1041770D01*
X615040D01*
Y1050540D01*
D02*
G37*
G36*
X593730D02*
X574960D01*
Y1041770D01*
X593730D01*
Y1050540D01*
D02*
G37*
G36*
X809040Y1043330D02*
X801270D01*
Y1035560D01*
X809040D01*
Y1043330D01*
D02*
G37*
G36*
X798730D02*
X790960D01*
Y1035560D01*
X798730D01*
Y1043330D01*
D02*
G37*
G36*
X615040Y1039230D02*
X596270D01*
Y1030460D01*
X615040D01*
Y1039230D01*
D02*
G37*
G36*
X593730D02*
X574960D01*
Y1030460D01*
X593730D01*
Y1039230D01*
D02*
G37*
G36*
X556040Y1030040D02*
X547270D01*
Y1011270D01*
X556040D01*
Y1030040D01*
D02*
G37*
G36*
X544730D02*
X535960D01*
Y1011270D01*
X544730D01*
Y1030040D01*
D02*
G37*
G36*
X61040Y1018540D02*
X53770D01*
Y1011270D01*
X61040D01*
Y1018540D01*
D02*
G37*
G36*
X51230D02*
X43960D01*
Y1011270D01*
X51230D01*
Y1018540D01*
D02*
G37*
G36*
X61040Y1008730D02*
X53770D01*
Y1001460D01*
X61040D01*
Y1008730D01*
D02*
G37*
G36*
X556040Y1008730D02*
X547270D01*
Y989960D01*
X556040D01*
Y1008730D01*
D02*
G37*
G36*
X544730D02*
X535960D01*
Y989960D01*
X544730D01*
Y1008730D01*
D02*
G37*
G36*
X298622Y998140D02*
X298570D01*
Y989370D01*
X307340D01*
Y989422D01*
X306656Y991975D01*
X305334Y994265D01*
X303465Y996134D01*
X301175Y997456D01*
X298622Y998140D01*
D02*
G37*
G36*
X296030D02*
X295978D01*
X293425Y997456D01*
X291135Y996134D01*
X289266Y994265D01*
X287944Y991975D01*
X287260Y989422D01*
Y989370D01*
X296030D01*
Y998140D01*
D02*
G37*
G36*
X425622D02*
X422978D01*
X420425Y997456D01*
X418135Y996134D01*
X416266Y994265D01*
X414944Y991975D01*
X414260Y989422D01*
Y986778D01*
X414944Y984225D01*
X416266Y981935D01*
X418135Y980066D01*
X420425Y978744D01*
X422978Y978060D01*
X425622D01*
X428175Y978744D01*
X430465Y980066D01*
X432334Y981935D01*
X433656Y984225D01*
X434340Y986778D01*
Y989422D01*
X433656Y991975D01*
X432334Y994265D01*
X430465Y996134D01*
X428175Y997456D01*
X425622Y998140D01*
D02*
G37*
G36*
X374822D02*
X372178D01*
X369625Y997456D01*
X367335Y996134D01*
X365466Y994265D01*
X364144Y991975D01*
X363460Y989422D01*
Y986778D01*
X364144Y984225D01*
X365466Y981935D01*
X367335Y980066D01*
X369625Y978744D01*
X372178Y978060D01*
X374822D01*
X377375Y978744D01*
X379665Y980066D01*
X381534Y981935D01*
X382856Y984225D01*
X383540Y986778D01*
Y989422D01*
X382856Y991975D01*
X381534Y994265D01*
X379665Y996134D01*
X377375Y997456D01*
X374822Y998140D01*
D02*
G37*
G36*
X307340Y986830D02*
X298570D01*
Y978060D01*
X298622D01*
X301175Y978744D01*
X303465Y980066D01*
X305334Y981935D01*
X306656Y984225D01*
X307340Y986778D01*
Y986830D01*
D02*
G37*
G36*
X296030D02*
X287260D01*
Y986778D01*
X287944Y984225D01*
X289266Y981935D01*
X291135Y980066D01*
X293425Y978744D01*
X295978Y978060D01*
X296030D01*
Y986830D01*
D02*
G37*
G36*
X324022Y921940D02*
X323970D01*
Y913170D01*
X332740D01*
Y913222D01*
X332056Y915775D01*
X330734Y918065D01*
X328865Y919934D01*
X326575Y921256D01*
X324022Y921940D01*
D02*
G37*
G36*
X321430D02*
X321378D01*
X318825Y921256D01*
X316535Y919934D01*
X314666Y918065D01*
X313344Y915775D01*
X312660Y913222D01*
Y913170D01*
X321430D01*
Y921940D01*
D02*
G37*
G36*
X374822D02*
X372178D01*
X369625Y921256D01*
X367335Y919934D01*
X365466Y918065D01*
X364144Y915775D01*
X363460Y913222D01*
Y910578D01*
X364141Y908035D01*
X356053Y899947D01*
X355211Y898687D01*
X354915Y897200D01*
Y848540D01*
X350260D01*
Y836954D01*
X342191Y828885D01*
X216609D01*
X208542Y836952D01*
X209040Y838810D01*
Y841190D01*
X208424Y843489D01*
X207234Y845551D01*
X205551Y847234D01*
X203489Y848424D01*
X201190Y849040D01*
X198810D01*
X196511Y848424D01*
X194449Y847234D01*
X192766Y845551D01*
X191576Y843489D01*
X190960Y841190D01*
Y838810D01*
X191576Y836511D01*
X192766Y834449D01*
X194449Y832766D01*
X196511Y831576D01*
X198810Y830960D01*
X201190D01*
X203048Y831458D01*
X212253Y822253D01*
X213513Y821411D01*
X215000Y821115D01*
X343800D01*
X345287Y821411D01*
X346547Y822253D01*
X355754Y831460D01*
X367340D01*
Y848540D01*
X362685D01*
Y895591D01*
X369635Y902541D01*
X372178Y901860D01*
X374822D01*
X377375Y902544D01*
X379665Y903866D01*
X381534Y905735D01*
X382856Y908025D01*
X383540Y910578D01*
Y913222D01*
X382856Y915775D01*
X381534Y918065D01*
X379665Y919934D01*
X377375Y921256D01*
X374822Y921940D01*
D02*
G37*
G36*
X349422D02*
X346778D01*
X344225Y921256D01*
X341935Y919934D01*
X340066Y918065D01*
X338744Y915775D01*
X338060Y913222D01*
Y910578D01*
X338741Y908035D01*
X307253Y876547D01*
X306411Y875287D01*
X306115Y873800D01*
Y847618D01*
X304756Y846834D01*
X303166Y845244D01*
X302382Y843885D01*
X263596D01*
X262634Y845551D01*
X260951Y847234D01*
X258889Y848424D01*
X256590Y849040D01*
X254210D01*
X251911Y848424D01*
X249849Y847234D01*
X248166Y845551D01*
X246976Y843489D01*
X246360Y841190D01*
Y838810D01*
X246976Y836511D01*
X248166Y834449D01*
X249849Y832766D01*
X251911Y831576D01*
X254210Y830960D01*
X256590D01*
X258889Y831576D01*
X260951Y832766D01*
X262634Y834449D01*
X263596Y836115D01*
X302382D01*
X303166Y834756D01*
X304756Y833166D01*
X306704Y832042D01*
X308876Y831460D01*
X311124D01*
X313296Y832042D01*
X315244Y833166D01*
X316834Y834756D01*
X317958Y836704D01*
X318540Y838876D01*
Y841124D01*
X317958Y843296D01*
X316834Y845244D01*
X315244Y846834D01*
X313885Y847618D01*
Y872191D01*
X344235Y902541D01*
X346778Y901860D01*
X349422D01*
X351975Y902544D01*
X354265Y903866D01*
X356134Y905735D01*
X357456Y908025D01*
X358140Y910578D01*
Y913222D01*
X357456Y915775D01*
X356134Y918065D01*
X354265Y919934D01*
X351975Y921256D01*
X349422Y921940D01*
D02*
G37*
G36*
X332740Y910630D02*
X323970D01*
Y901860D01*
X324022D01*
X326575Y902544D01*
X328865Y903866D01*
X330734Y905735D01*
X332056Y908025D01*
X332740Y910578D01*
Y910630D01*
D02*
G37*
G36*
X321430D02*
X312660D01*
Y910578D01*
X313344Y908025D01*
X314666Y905735D01*
X316535Y903866D01*
X318825Y902544D01*
X321378Y901860D01*
X321430D01*
Y910630D01*
D02*
G37*
G36*
X273222Y921940D02*
X270578D01*
X268025Y921256D01*
X265735Y919934D01*
X263866Y918065D01*
X262544Y915775D01*
X261860Y913222D01*
Y910578D01*
X262544Y908025D01*
X263866Y905735D01*
X265735Y903866D01*
X268025Y902544D01*
X270578Y901860D01*
X273222D01*
X275775Y902544D01*
X278065Y903866D01*
X279934Y905735D01*
X281256Y908025D01*
X281940Y910578D01*
Y913222D01*
X281256Y915775D01*
X279934Y918065D01*
X278065Y919934D01*
X275775Y921256D01*
X273222Y921940D01*
D02*
G37*
G36*
X247822D02*
X245178D01*
X242625Y921256D01*
X240335Y919934D01*
X238466Y918065D01*
X237144Y915775D01*
X236460Y913222D01*
Y910578D01*
X237144Y908025D01*
X238466Y905735D01*
X240335Y903866D01*
X242625Y902544D01*
X245178Y901860D01*
X247822D01*
X250375Y902544D01*
X252665Y903866D01*
X254534Y905735D01*
X255856Y908025D01*
X256540Y910578D01*
Y913222D01*
X255856Y915775D01*
X254534Y918065D01*
X252665Y919934D01*
X250375Y921256D01*
X247822Y921940D01*
D02*
G37*
G36*
X222422D02*
X219778D01*
X217225Y921256D01*
X214935Y919934D01*
X213066Y918065D01*
X211744Y915775D01*
X211060Y913222D01*
Y910578D01*
X211744Y908025D01*
X213066Y905735D01*
X214935Y903866D01*
X217225Y902544D01*
X219778Y901860D01*
X222422D01*
X224975Y902544D01*
X227265Y903866D01*
X229134Y905735D01*
X230456Y908025D01*
X231140Y910578D01*
Y913222D01*
X230456Y915775D01*
X229134Y918065D01*
X227265Y919934D01*
X224975Y921256D01*
X222422Y921940D01*
D02*
G37*
G36*
X587040Y913290D02*
X576270D01*
Y890020D01*
X587040D01*
Y913290D01*
D02*
G37*
G36*
X573730D02*
X562960D01*
Y890020D01*
X573730D01*
Y913290D01*
D02*
G37*
G36*
X772220Y922540D02*
X767780D01*
X763425Y921674D01*
X759323Y919975D01*
X755632Y917508D01*
X752492Y914368D01*
X750025Y910677D01*
X748326Y906575D01*
X747460Y902220D01*
Y897780D01*
X748326Y893425D01*
X750025Y889323D01*
X752492Y885632D01*
X755632Y882492D01*
X759323Y880025D01*
X763425Y878326D01*
X767780Y877460D01*
X772220D01*
X776575Y878326D01*
X780677Y880025D01*
X784368Y882492D01*
X787508Y885632D01*
X789975Y889323D01*
X791674Y893425D01*
X792540Y897780D01*
Y902220D01*
X791674Y906575D01*
X789975Y910677D01*
X787508Y914368D01*
X784368Y917508D01*
X780677Y919975D01*
X776575Y921674D01*
X772220Y922540D01*
D02*
G37*
G36*
X650000Y955127D02*
X647379Y954782D01*
X644937Y953770D01*
X642839Y952161D01*
X612839Y922161D01*
X611230Y920063D01*
X610218Y917621D01*
X609873Y915000D01*
X609873Y915000D01*
Y849195D01*
X596555Y835877D01*
X577000D01*
X576342Y835790D01*
X562960D01*
Y786710D01*
X581546D01*
X606115Y762141D01*
Y743023D01*
X604541Y742114D01*
X602886Y740459D01*
X601716Y738431D01*
X601110Y736170D01*
Y733830D01*
X601716Y731569D01*
X602886Y729541D01*
X604541Y727886D01*
X606569Y726716D01*
X608830Y726110D01*
X611170D01*
X613431Y726716D01*
X615459Y727886D01*
X617114Y729541D01*
X618284Y731569D01*
X618890Y733830D01*
Y736170D01*
X618284Y738431D01*
X617114Y740459D01*
X615459Y742114D01*
X613885Y743023D01*
Y763750D01*
X613589Y765237D01*
X612747Y766497D01*
X587040Y792204D01*
Y815623D01*
X600750D01*
X600750Y815623D01*
X603371Y815968D01*
X605813Y816980D01*
X607911Y818589D01*
X627161Y837839D01*
X628770Y839937D01*
X629782Y842379D01*
X630127Y845000D01*
X630127Y845000D01*
Y910805D01*
X644942Y925621D01*
X646115Y925135D01*
Y900800D01*
X646411Y899313D01*
X647253Y898053D01*
X656050Y889257D01*
X655460Y887056D01*
Y884544D01*
X656110Y882118D01*
X657366Y879942D01*
X659142Y878166D01*
X661318Y876910D01*
X663744Y876260D01*
X666256D01*
X668682Y876910D01*
X670858Y878166D01*
X672634Y879942D01*
X673890Y882118D01*
X674540Y884544D01*
Y887056D01*
X673890Y889482D01*
X672634Y891658D01*
X670858Y893434D01*
X668682Y894690D01*
X666256Y895340D01*
X663744D01*
X661543Y894750D01*
X653885Y902409D01*
Y934563D01*
X657161Y937839D01*
X658770Y939937D01*
X659782Y942379D01*
X660127Y945000D01*
X659782Y947621D01*
X658770Y950063D01*
X657161Y952161D01*
X655063Y953770D01*
X652621Y954782D01*
X650000Y955127D01*
D02*
G37*
G36*
X587040Y887480D02*
X576270D01*
Y864210D01*
X587040D01*
Y887480D01*
D02*
G37*
G36*
X573730D02*
X562960D01*
Y864210D01*
X573730D01*
Y887480D01*
D02*
G37*
G36*
X239040Y849040D02*
X231270D01*
Y841270D01*
X239040D01*
Y849040D01*
D02*
G37*
G36*
X228730D02*
X220960D01*
Y841270D01*
X228730D01*
Y849040D01*
D02*
G37*
G36*
X183640D02*
X175870D01*
Y841270D01*
X183640D01*
Y849040D01*
D02*
G37*
G36*
X173330D02*
X165560D01*
Y841270D01*
X173330D01*
Y849040D01*
D02*
G37*
G36*
X239040Y838730D02*
X231270D01*
Y830960D01*
X239040D01*
Y838730D01*
D02*
G37*
G36*
X228730D02*
X220960D01*
Y830960D01*
X228730D01*
Y838730D01*
D02*
G37*
G36*
X183640D02*
X175870D01*
Y830960D01*
X183640D01*
Y838730D01*
D02*
G37*
G36*
X173330D02*
X165560D01*
Y830960D01*
X173330D01*
Y838730D01*
D02*
G37*
G36*
X795290Y825690D02*
X786270D01*
Y816670D01*
X795290D01*
Y825690D01*
D02*
G37*
G36*
X783730D02*
X774710D01*
Y816670D01*
X783730D01*
Y825690D01*
D02*
G37*
G36*
X795290Y814130D02*
X786270D01*
Y805110D01*
X795290D01*
Y814130D01*
D02*
G37*
G36*
X783730D02*
X774710D01*
Y805110D01*
X783730D01*
Y814130D01*
D02*
G37*
G36*
X786355Y800290D02*
X783645D01*
X781028Y799589D01*
X778682Y798234D01*
X776766Y796318D01*
X775411Y793972D01*
X775388Y793885D01*
X713901D01*
X712414Y793589D01*
X711154Y792747D01*
X710467Y792059D01*
X708682Y793090D01*
X706256Y793740D01*
X703744D01*
X701318Y793090D01*
X699142Y791834D01*
X697366Y790058D01*
X696110Y787882D01*
X695460Y785456D01*
Y782944D01*
X696110Y780518D01*
X697366Y778342D01*
X699142Y776566D01*
X701318Y775310D01*
X703744Y774660D01*
X706256D01*
X708682Y775310D01*
X710858Y776566D01*
X712634Y778342D01*
X713890Y780518D01*
X714540Y782944D01*
Y785145D01*
X715510Y786115D01*
X775388D01*
X775411Y786028D01*
X776766Y783682D01*
X778682Y781766D01*
X781028Y780411D01*
X783645Y779710D01*
X786355D01*
X788972Y780411D01*
X791318Y781766D01*
X793234Y783682D01*
X794589Y786028D01*
X795290Y788645D01*
Y791355D01*
X794589Y793972D01*
X793234Y796318D01*
X791318Y798234D01*
X788972Y799589D01*
X786355Y800290D01*
D02*
G37*
G36*
X666270Y793736D02*
Y785470D01*
X674536D01*
X673890Y787882D01*
X672634Y790058D01*
X670858Y791834D01*
X668682Y793090D01*
X666270Y793736D01*
D02*
G37*
G36*
X663730Y793736D02*
X661318Y793090D01*
X659142Y791834D01*
X657366Y790058D01*
X656110Y787882D01*
X655464Y785470D01*
X663730D01*
Y793736D01*
D02*
G37*
G36*
X674536Y782930D02*
X666270D01*
Y774664D01*
X668682Y775310D01*
X670858Y776566D01*
X672634Y778342D01*
X673890Y780518D01*
X674536Y782930D01*
D02*
G37*
G36*
X663730D02*
X655464D01*
X656110Y780518D01*
X657366Y778342D01*
X659142Y776566D01*
X661318Y775310D01*
X663730Y774664D01*
Y782930D01*
D02*
G37*
G36*
X440890Y743340D02*
X420570D01*
Y731670D01*
X440890D01*
Y743340D01*
D02*
G37*
G36*
X418030D02*
X397710D01*
Y731670D01*
X418030D01*
Y743340D01*
D02*
G37*
G36*
X440890Y729130D02*
X420570D01*
Y717460D01*
X440890D01*
Y729130D01*
D02*
G37*
G36*
X418030D02*
X397710D01*
Y717460D01*
X418030D01*
Y729130D01*
D02*
G37*
G36*
X251170Y773890D02*
X248830D01*
X246569Y773284D01*
X244541Y772114D01*
X242886Y770459D01*
X241716Y768431D01*
X241110Y766170D01*
Y763830D01*
X241716Y761569D01*
X242886Y759541D01*
X244541Y757886D01*
X246569Y756716D01*
X248830Y756110D01*
X251170D01*
X253431Y756716D01*
X254940Y757587D01*
X255383Y757291D01*
X256869Y756995D01*
X258010D01*
Y645310D01*
X351990D01*
Y764690D01*
X262195D01*
X261820Y764765D01*
X258890D01*
Y766170D01*
X258284Y768431D01*
X257114Y770459D01*
X255459Y772114D01*
X253431Y773284D01*
X251170Y773890D01*
D02*
G37*
G36*
X610857Y662690D02*
X608543D01*
X606307Y662091D01*
X604303Y660934D01*
X602666Y659297D01*
X601509Y657293D01*
X600910Y655057D01*
Y652743D01*
X601509Y650507D01*
X602666Y648503D01*
X604303Y646866D01*
X606307Y645709D01*
X608543Y645110D01*
X610857D01*
X613093Y645709D01*
X615097Y646866D01*
X616734Y648503D01*
X617891Y650507D01*
X618490Y652743D01*
Y655057D01*
X617891Y657293D01*
X616734Y659297D01*
X615097Y660934D01*
X613093Y662091D01*
X610857Y662690D01*
D02*
G37*
G36*
X539090D02*
X521510D01*
Y645110D01*
X539090D01*
Y662690D01*
D02*
G37*
G36*
X610857Y637290D02*
X608543D01*
X606307Y636691D01*
X604303Y635534D01*
X602666Y633897D01*
X601509Y631893D01*
X600910Y629657D01*
Y627343D01*
X601509Y625107D01*
X602666Y623103D01*
X604303Y621466D01*
X606307Y620309D01*
X608543Y619710D01*
X610857D01*
X613093Y620309D01*
X615097Y621466D01*
X616734Y623103D01*
X617891Y625107D01*
X618490Y627343D01*
Y629657D01*
X617891Y631893D01*
X616734Y633897D01*
X615097Y635534D01*
X613093Y636691D01*
X610857Y637290D01*
D02*
G37*
G36*
X531457D02*
X529143D01*
X526907Y636691D01*
X524903Y635534D01*
X523266Y633897D01*
X522109Y631893D01*
X521510Y629657D01*
Y627343D01*
X522109Y625107D01*
X523266Y623103D01*
X524903Y621466D01*
X526907Y620309D01*
X529143Y619710D01*
X531457D01*
X533693Y620309D01*
X535697Y621466D01*
X537334Y623103D01*
X538491Y625107D01*
X539090Y627343D01*
Y629657D01*
X538491Y631893D01*
X537334Y633897D01*
X535697Y635534D01*
X533693Y636691D01*
X531457Y637290D01*
D02*
G37*
G36*
X610857Y611890D02*
X608543D01*
X606307Y611291D01*
X604303Y610134D01*
X602666Y608497D01*
X601509Y606493D01*
X600910Y604257D01*
Y601943D01*
X601509Y599707D01*
X602666Y597703D01*
X604303Y596066D01*
X606307Y594909D01*
X608543Y594310D01*
X610857D01*
X613093Y594909D01*
X615097Y596066D01*
X616734Y597703D01*
X617891Y599707D01*
X618490Y601943D01*
Y604257D01*
X617891Y606493D01*
X616734Y608497D01*
X615097Y610134D01*
X613093Y611291D01*
X610857Y611890D01*
D02*
G37*
G36*
X531457D02*
X529143D01*
X526907Y611291D01*
X524903Y610134D01*
X523266Y608497D01*
X522109Y606493D01*
X521510Y604257D01*
Y601943D01*
X522109Y599707D01*
X523266Y597703D01*
X524903Y596066D01*
X526907Y594909D01*
X529143Y594310D01*
X531457D01*
X533693Y594909D01*
X535697Y596066D01*
X537334Y597703D01*
X538491Y599707D01*
X539090Y601943D01*
Y604257D01*
X538491Y606493D01*
X537334Y608497D01*
X535697Y610134D01*
X533693Y611291D01*
X531457Y611890D01*
D02*
G37*
G36*
X311722Y580040D02*
X311670D01*
Y571270D01*
X320440D01*
Y571322D01*
X319756Y573875D01*
X318434Y576165D01*
X316565Y578034D01*
X314275Y579356D01*
X311722Y580040D01*
D02*
G37*
G36*
X309130D02*
X309078D01*
X306525Y579356D01*
X304235Y578034D01*
X302366Y576165D01*
X301044Y573875D01*
X300360Y571322D01*
Y571270D01*
X309130D01*
Y580040D01*
D02*
G37*
G36*
X531457Y586490D02*
X529143D01*
X526907Y585891D01*
X524903Y584734D01*
X523266Y583097D01*
X522109Y581093D01*
X521510Y578857D01*
Y576543D01*
X522109Y574307D01*
X523266Y572303D01*
X524903Y570666D01*
X526907Y569509D01*
X529143Y568910D01*
X531457D01*
X533693Y569509D01*
X535697Y570666D01*
X537334Y572303D01*
X538491Y574307D01*
X539090Y576543D01*
Y578857D01*
X538491Y581093D01*
X537334Y583097D01*
X535697Y584734D01*
X533693Y585891D01*
X531457Y586490D01*
D02*
G37*
G36*
X371240Y580040D02*
X351160D01*
Y559960D01*
X371240D01*
Y580040D01*
D02*
G37*
G36*
X337122D02*
X334478D01*
X331925Y579356D01*
X329635Y578034D01*
X327766Y576165D01*
X326444Y573875D01*
X325760Y571322D01*
Y568678D01*
X326444Y566125D01*
X327766Y563835D01*
X329635Y561966D01*
X331925Y560644D01*
X334478Y559960D01*
X337122D01*
X339675Y560644D01*
X341965Y561966D01*
X343834Y563835D01*
X345156Y566125D01*
X345840Y568678D01*
Y571322D01*
X345156Y573875D01*
X343834Y576165D01*
X341965Y578034D01*
X339675Y579356D01*
X337122Y580040D01*
D02*
G37*
G36*
X320440Y568730D02*
X311670D01*
Y559960D01*
X311722D01*
X314275Y560644D01*
X316565Y561966D01*
X318434Y563835D01*
X319756Y566125D01*
X320440Y568678D01*
Y568730D01*
D02*
G37*
G36*
X309130D02*
X300360D01*
Y568678D01*
X301044Y566125D01*
X302366Y563835D01*
X304235Y561966D01*
X306525Y560644D01*
X309078Y559960D01*
X309130D01*
Y568730D01*
D02*
G37*
G36*
X235522Y580040D02*
X232878D01*
X230325Y579356D01*
X228035Y578034D01*
X226166Y576165D01*
X224844Y573875D01*
X224160Y571322D01*
Y568678D01*
X224844Y566125D01*
X226166Y563835D01*
X228035Y561966D01*
X230325Y560644D01*
X232878Y559960D01*
X235522D01*
X238075Y560644D01*
X240365Y561966D01*
X242234Y563835D01*
X243556Y566125D01*
X244240Y568678D01*
Y571322D01*
X243556Y573875D01*
X242234Y576165D01*
X240365Y578034D01*
X238075Y579356D01*
X235522Y580040D01*
D02*
G37*
G36*
X610857Y561090D02*
X608543D01*
X606307Y560491D01*
X604303Y559334D01*
X602666Y557697D01*
X601509Y555693D01*
X600910Y553457D01*
Y551143D01*
X601509Y548907D01*
X602666Y546903D01*
X604303Y545266D01*
X606307Y544109D01*
X608543Y543510D01*
X610857D01*
X613093Y544109D01*
X615097Y545266D01*
X616734Y546903D01*
X617891Y548907D01*
X618490Y551143D01*
Y553457D01*
X617891Y555693D01*
X616734Y557697D01*
X615097Y559334D01*
X613093Y560491D01*
X610857Y561090D01*
D02*
G37*
G36*
X531457D02*
X529143D01*
X526907Y560491D01*
X524903Y559334D01*
X523266Y557697D01*
X522109Y555693D01*
X521510Y553457D01*
Y551143D01*
X522109Y548907D01*
X523266Y546903D01*
X524903Y545266D01*
X526907Y544109D01*
X529143Y543510D01*
X531457D01*
X533693Y544109D01*
X535697Y545266D01*
X537334Y546903D01*
X538491Y548907D01*
X539090Y551143D01*
Y553457D01*
X538491Y555693D01*
X537334Y557697D01*
X535697Y559334D01*
X533693Y560491D01*
X531457Y561090D01*
D02*
G37*
G36*
X531570Y535660D02*
Y528170D01*
X539060D01*
X538491Y530293D01*
X537334Y532297D01*
X535697Y533934D01*
X533693Y535091D01*
X531570Y535660D01*
D02*
G37*
G36*
X529030D02*
X526907Y535091D01*
X524903Y533934D01*
X523266Y532297D01*
X522109Y530293D01*
X521540Y528170D01*
X529030D01*
Y535660D01*
D02*
G37*
G36*
X539060Y525630D02*
X531570D01*
Y518140D01*
X533693Y518709D01*
X535697Y519866D01*
X537334Y521503D01*
X538491Y523507D01*
X539060Y525630D01*
D02*
G37*
G36*
X529030D02*
X521540D01*
X522109Y523507D01*
X523266Y521503D01*
X524903Y519866D01*
X526907Y518709D01*
X529030Y518140D01*
Y525630D01*
D02*
G37*
G36*
X610857Y535690D02*
X608543D01*
X606307Y535091D01*
X604303Y533934D01*
X602666Y532297D01*
X601509Y530293D01*
X600910Y528057D01*
Y525743D01*
X601509Y523507D01*
X602666Y521503D01*
X604303Y519866D01*
X606307Y518709D01*
X608543Y518110D01*
X610857D01*
X613093Y518709D01*
X615097Y519866D01*
X616734Y521503D01*
X617891Y523507D01*
X618490Y525743D01*
Y528057D01*
X617891Y530293D01*
X616734Y532297D01*
X615097Y533934D01*
X613093Y535091D01*
X610857Y535690D01*
D02*
G37*
G36*
X531570Y510260D02*
Y502770D01*
X539060D01*
X538491Y504893D01*
X537334Y506897D01*
X535697Y508534D01*
X533693Y509691D01*
X531570Y510260D01*
D02*
G37*
G36*
X529030D02*
X526907Y509691D01*
X524903Y508534D01*
X523266Y506897D01*
X522109Y504893D01*
X521540Y502770D01*
X529030D01*
Y510260D01*
D02*
G37*
G36*
X539060Y500230D02*
X531570D01*
Y492740D01*
X533693Y493309D01*
X535697Y494466D01*
X537334Y496103D01*
X538491Y498107D01*
X539060Y500230D01*
D02*
G37*
G36*
X529030D02*
X521540D01*
X522109Y498107D01*
X523266Y496103D01*
X524903Y494466D01*
X526907Y493309D01*
X529030Y492740D01*
Y500230D01*
D02*
G37*
G36*
X531570Y484860D02*
Y477370D01*
X539060D01*
X538491Y479493D01*
X537334Y481497D01*
X535697Y483134D01*
X533693Y484291D01*
X531570Y484860D01*
D02*
G37*
G36*
X529030D02*
X526907Y484291D01*
X524903Y483134D01*
X523266Y481497D01*
X522109Y479493D01*
X521540Y477370D01*
X529030D01*
Y484860D01*
D02*
G37*
G36*
X539060Y474830D02*
X531570D01*
Y467340D01*
X533693Y467909D01*
X535697Y469066D01*
X537334Y470703D01*
X538491Y472707D01*
X539060Y474830D01*
D02*
G37*
G36*
X529030D02*
X521540D01*
X522109Y472707D01*
X523266Y470703D01*
X524903Y469066D01*
X526907Y467909D01*
X529030Y467340D01*
Y474830D01*
D02*
G37*
G36*
X346270Y438736D02*
Y430470D01*
X354536D01*
X353890Y432882D01*
X352634Y435058D01*
X350858Y436834D01*
X348682Y438090D01*
X346270Y438736D01*
D02*
G37*
G36*
X343730D02*
X341318Y438090D01*
X339142Y436834D01*
X337366Y435058D01*
X336110Y432882D01*
X335464Y430470D01*
X343730D01*
Y438736D01*
D02*
G37*
G36*
Y427930D02*
X335464D01*
X336110Y425518D01*
X337366Y423342D01*
X339142Y421566D01*
X341318Y420310D01*
X343730Y419664D01*
Y427930D01*
D02*
G37*
G36*
X354536D02*
X346270D01*
Y419664D01*
X348682Y420310D01*
X350858Y421566D01*
X352634Y423342D01*
X353890Y425518D01*
X354536Y427930D01*
D02*
G37*
G36*
X316256Y438740D02*
X313744D01*
X311318Y438090D01*
X309142Y436834D01*
X307366Y435058D01*
X306110Y432882D01*
X305460Y430456D01*
Y427944D01*
X306110Y425518D01*
X307366Y423342D01*
X309142Y421566D01*
X311318Y420310D01*
X313744Y419660D01*
X316256D01*
X318682Y420310D01*
X320858Y421566D01*
X322634Y423342D01*
X323890Y425518D01*
X324540Y427944D01*
Y430456D01*
X323890Y432882D01*
X322634Y435058D01*
X320858Y436834D01*
X318682Y438090D01*
X316256Y438740D01*
D02*
G37*
G36*
X606256Y390340D02*
X603744D01*
X601318Y389690D01*
X599142Y388434D01*
X597366Y386658D01*
X596110Y384482D01*
X595460Y382056D01*
Y379544D01*
X596110Y377118D01*
X597366Y374942D01*
X599142Y373166D01*
X601318Y371910D01*
X603744Y371260D01*
X606256D01*
X608682Y371910D01*
X610858Y373166D01*
X612634Y374942D01*
X613890Y377118D01*
X614540Y379544D01*
Y382056D01*
X613890Y384482D01*
X612634Y386658D01*
X610858Y388434D01*
X608682Y389690D01*
X606256Y390340D01*
D02*
G37*
G36*
X571256D02*
X568744D01*
X566318Y389690D01*
X564142Y388434D01*
X562366Y386658D01*
X561110Y384482D01*
X560460Y382056D01*
Y379544D01*
X561110Y377118D01*
X562366Y374942D01*
X564142Y373166D01*
X566318Y371910D01*
X568744Y371260D01*
X571256D01*
X573682Y371910D01*
X575858Y373166D01*
X577634Y374942D01*
X578890Y377118D01*
X579540Y379544D01*
Y382056D01*
X578890Y384482D01*
X577634Y386658D01*
X575858Y388434D01*
X573682Y389690D01*
X571256Y390340D01*
D02*
G37*
G36*
X536256D02*
X533744D01*
X531318Y389690D01*
X529142Y388434D01*
X527366Y386658D01*
X526110Y384482D01*
X525460Y382056D01*
Y379544D01*
X526110Y377118D01*
X527366Y374942D01*
X529142Y373166D01*
X531318Y371910D01*
X533744Y371260D01*
X536256D01*
X538682Y371910D01*
X540858Y373166D01*
X542634Y374942D01*
X543890Y377118D01*
X544540Y379544D01*
Y382056D01*
X543890Y384482D01*
X542634Y386658D01*
X540858Y388434D01*
X538682Y389690D01*
X536256Y390340D01*
D02*
G37*
G36*
X367220Y320000D02*
X362780D01*
X358425Y319134D01*
X354323Y317435D01*
X350632Y314968D01*
X347492Y311828D01*
X345025Y308137D01*
X343326Y304035D01*
X342460Y299680D01*
Y295240D01*
X343326Y290885D01*
X345025Y286783D01*
X347492Y283092D01*
X350632Y279952D01*
X354323Y277485D01*
X358425Y275786D01*
X362780Y274920D01*
X367220D01*
X371575Y275786D01*
X375677Y277485D01*
X379368Y279952D01*
X382508Y283092D01*
X384975Y286783D01*
X386674Y290885D01*
X387540Y295240D01*
Y299680D01*
X386674Y304035D01*
X384975Y308137D01*
X382508Y311828D01*
X379368Y314968D01*
X375677Y317435D01*
X371575Y319134D01*
X367220Y320000D01*
D02*
G37*
G36*
X606256Y288740D02*
X603744D01*
X601318Y288090D01*
X599142Y286834D01*
X597366Y285058D01*
X596110Y282882D01*
X595460Y280456D01*
Y277944D01*
X596110Y275518D01*
X597366Y273342D01*
X599142Y271566D01*
X601318Y270310D01*
X603744Y269660D01*
X606256D01*
X608682Y270310D01*
X610858Y271566D01*
X612634Y273342D01*
X613890Y275518D01*
X614540Y277944D01*
Y280456D01*
X613890Y282882D01*
X612634Y285058D01*
X610858Y286834D01*
X608682Y288090D01*
X606256Y288740D01*
D02*
G37*
G36*
X316270Y210336D02*
Y202070D01*
X324536D01*
X323890Y204482D01*
X322634Y206658D01*
X320858Y208434D01*
X318682Y209690D01*
X316270Y210336D01*
D02*
G37*
G36*
X313730D02*
X311318Y209690D01*
X309142Y208434D01*
X307366Y206658D01*
X306110Y204482D01*
X305464Y202070D01*
X313730D01*
Y210336D01*
D02*
G37*
G36*
X281270D02*
Y202070D01*
X289536D01*
X288890Y204482D01*
X287634Y206658D01*
X285858Y208434D01*
X283682Y209690D01*
X281270Y210336D01*
D02*
G37*
G36*
X278730D02*
X276318Y209690D01*
X274142Y208434D01*
X272366Y206658D01*
X271110Y204482D01*
X270464Y202070D01*
X278730D01*
Y210336D01*
D02*
G37*
G36*
X246270D02*
Y202070D01*
X254536D01*
X253890Y204482D01*
X252634Y206658D01*
X250858Y208434D01*
X248682Y209690D01*
X246270Y210336D01*
D02*
G37*
G36*
X243730D02*
X241318Y209690D01*
X239142Y208434D01*
X237366Y206658D01*
X236110Y204482D01*
X235464Y202070D01*
X243730D01*
Y210336D01*
D02*
G37*
G36*
X324536Y199530D02*
X316270D01*
Y191264D01*
X318682Y191910D01*
X320858Y193166D01*
X322634Y194942D01*
X323890Y197118D01*
X324536Y199530D01*
D02*
G37*
G36*
X243730Y199530D02*
X235464D01*
X236110Y197118D01*
X237366Y194942D01*
X239142Y193166D01*
X241318Y191910D01*
X243730Y191264D01*
Y199530D01*
D02*
G37*
G36*
X289536Y199530D02*
X281270D01*
Y191264D01*
X283682Y191910D01*
X285858Y193166D01*
X287634Y194942D01*
X288890Y197118D01*
X289536Y199530D01*
D02*
G37*
G36*
X278730D02*
X270464D01*
X271110Y197118D01*
X272366Y194942D01*
X274142Y193166D01*
X276318Y191910D01*
X278730Y191264D01*
Y199530D01*
D02*
G37*
G36*
X254536Y199530D02*
X246270D01*
Y191264D01*
X248682Y191910D01*
X250858Y193166D01*
X252634Y194942D01*
X253890Y197118D01*
X254536Y199530D01*
D02*
G37*
G36*
X313730Y199530D02*
X305464D01*
X306110Y197118D01*
X307366Y194942D01*
X309142Y193166D01*
X311318Y191910D01*
X313730Y191264D01*
Y199530D01*
D02*
G37*
G36*
X571256Y288740D02*
X568744D01*
X566318Y288090D01*
X564142Y286834D01*
X562366Y285058D01*
X561110Y282882D01*
X560460Y280456D01*
Y277944D01*
X561110Y275518D01*
X562366Y273342D01*
X564142Y271566D01*
X566318Y270310D01*
X568744Y269660D01*
X571256D01*
X573457Y270250D01*
X590165Y253541D01*
Y187414D01*
X589420Y186984D01*
X588545Y186108D01*
X587700Y185724D01*
X586855Y186108D01*
X585980Y186984D01*
X585235Y187414D01*
Y213650D01*
X584939Y215137D01*
X584097Y216397D01*
X538885Y261609D01*
Y270427D01*
X540858Y271566D01*
X542634Y273342D01*
X543890Y275518D01*
X544540Y277944D01*
Y280456D01*
X543890Y282882D01*
X542634Y285058D01*
X540858Y286834D01*
X538682Y288090D01*
X536256Y288740D01*
X533744D01*
X531318Y288090D01*
X529142Y286834D01*
X527366Y285058D01*
X526110Y282882D01*
X525460Y280456D01*
Y277944D01*
X526110Y275518D01*
X527366Y273342D01*
X529142Y271566D01*
X531115Y270427D01*
Y260000D01*
X531411Y258513D01*
X532253Y257253D01*
X577465Y212041D01*
Y187414D01*
X576720Y186984D01*
X575845Y186108D01*
X575000Y185724D01*
X574155Y186108D01*
X573280Y186984D01*
X571560Y187976D01*
X569920Y188416D01*
Y180950D01*
Y173484D01*
X571560Y173924D01*
X573280Y174916D01*
X574155Y175792D01*
X575000Y176176D01*
X575845Y175792D01*
X576720Y174916D01*
X578440Y173924D01*
X580357Y173410D01*
X582343D01*
X584260Y173924D01*
X585980Y174916D01*
X586855Y175792D01*
X587700Y176176D01*
X588545Y175792D01*
X589420Y174916D01*
X591140Y173924D01*
X593057Y173410D01*
X595043D01*
X596960Y173924D01*
X598680Y174916D01*
X600084Y176320D01*
X601076Y178040D01*
X601590Y179957D01*
Y181943D01*
X601076Y183860D01*
X600084Y185580D01*
X598680Y186984D01*
X597935Y187414D01*
Y255150D01*
X597639Y256637D01*
X596797Y257897D01*
X578950Y275743D01*
X579540Y277944D01*
Y280456D01*
X578890Y282882D01*
X577634Y285058D01*
X575858Y286834D01*
X573682Y288090D01*
X571256Y288740D01*
D02*
G37*
G36*
X563490Y188490D02*
X548410D01*
Y173410D01*
X563490D01*
Y173756D01*
X564760Y174489D01*
X565740Y173924D01*
X567380Y173484D01*
Y180950D01*
Y188416D01*
X565740Y187976D01*
X564760Y187411D01*
X563490Y188144D01*
Y188490D01*
D02*
G37*
G36*
X316256Y108740D02*
X313744D01*
X311318Y108090D01*
X309142Y106834D01*
X307366Y105058D01*
X306110Y102882D01*
X305460Y100456D01*
Y97944D01*
X306110Y95518D01*
X307366Y93342D01*
X309142Y91566D01*
X311318Y90310D01*
X313744Y89660D01*
X316256D01*
X318682Y90310D01*
X320858Y91566D01*
X322634Y93342D01*
X323890Y95518D01*
X324540Y97944D01*
Y100456D01*
X323890Y102882D01*
X322634Y105058D01*
X320858Y106834D01*
X318682Y108090D01*
X316256Y108740D01*
D02*
G37*
G36*
X281256D02*
X278744D01*
X276318Y108090D01*
X274142Y106834D01*
X272366Y105058D01*
X271110Y102882D01*
X270460Y100456D01*
Y97944D01*
X271110Y95518D01*
X272366Y93342D01*
X274142Y91566D01*
X276318Y90310D01*
X278744Y89660D01*
X281256D01*
X283682Y90310D01*
X285858Y91566D01*
X287634Y93342D01*
X288890Y95518D01*
X289540Y97944D01*
Y100456D01*
X288890Y102882D01*
X287634Y105058D01*
X285858Y106834D01*
X283682Y108090D01*
X281256Y108740D01*
D02*
G37*
G36*
X246256D02*
X243744D01*
X241318Y108090D01*
X239142Y106834D01*
X237366Y105058D01*
X236110Y102882D01*
X235460Y100456D01*
Y97944D01*
X236110Y95518D01*
X237366Y93342D01*
X239142Y91566D01*
X241318Y90310D01*
X243744Y89660D01*
X246256D01*
X248682Y90310D01*
X250858Y91566D01*
X252634Y93342D01*
X253890Y95518D01*
X254540Y97944D01*
Y100456D01*
X253890Y102882D01*
X252634Y105058D01*
X250858Y106834D01*
X248682Y108090D01*
X246256Y108740D01*
D02*
G37*
G36*
X440922Y50040D02*
X438278D01*
X435725Y49356D01*
X433435Y48034D01*
X431566Y46165D01*
X430244Y43875D01*
X429560Y41322D01*
Y38678D01*
X430244Y36125D01*
X431566Y33835D01*
X433435Y31966D01*
X435725Y30644D01*
X438278Y29960D01*
X440922D01*
X443475Y30644D01*
X445765Y31966D01*
X447634Y33835D01*
X448956Y36125D01*
X449640Y38678D01*
Y41322D01*
X448956Y43875D01*
X447634Y46165D01*
X445765Y48034D01*
X443475Y49356D01*
X440922Y50040D01*
D02*
G37*
G36*
X390122D02*
X387478D01*
X384925Y49356D01*
X382635Y48034D01*
X380766Y46165D01*
X379444Y43875D01*
X378760Y41322D01*
Y38678D01*
X379444Y36125D01*
X380766Y33835D01*
X382635Y31966D01*
X384925Y30644D01*
X387478Y29960D01*
X390122D01*
X392675Y30644D01*
X394965Y31966D01*
X396834Y33835D01*
X398156Y36125D01*
X398840Y38678D01*
Y41322D01*
X398156Y43875D01*
X396834Y46165D01*
X394965Y48034D01*
X392675Y49356D01*
X390122Y50040D01*
D02*
G37*
G36*
X364722D02*
X362078D01*
X359525Y49356D01*
X357235Y48034D01*
X355366Y46165D01*
X354044Y43875D01*
X353360Y41322D01*
Y38678D01*
X354044Y36125D01*
X355366Y33835D01*
X357235Y31966D01*
X359525Y30644D01*
X362078Y29960D01*
X364722D01*
X367275Y30644D01*
X369565Y31966D01*
X371434Y33835D01*
X372756Y36125D01*
X373440Y38678D01*
Y41322D01*
X372756Y43875D01*
X371434Y46165D01*
X369565Y48034D01*
X367275Y49356D01*
X364722Y50040D01*
D02*
G37*
G36*
X348040D02*
X327960D01*
Y29960D01*
X348040D01*
Y50040D01*
D02*
G37*
G36*
X96256Y915340D02*
X93744D01*
X91318Y914690D01*
X89142Y913434D01*
X87366Y911658D01*
X86110Y909482D01*
X85460Y907056D01*
Y904544D01*
X86110Y902118D01*
X87366Y899942D01*
X89142Y898166D01*
X91318Y896910D01*
X93744Y896260D01*
X96256D01*
X98682Y896910D01*
X100858Y898166D01*
X102634Y899942D01*
X103890Y902118D01*
X104540Y904544D01*
Y907056D01*
X103890Y909482D01*
X102634Y911658D01*
X100858Y913434D01*
X98682Y914690D01*
X96256Y915340D01*
D02*
G37*
G36*
X986788Y580540D02*
X986670D01*
Y571270D01*
X995940D01*
Y571388D01*
X995222Y574068D01*
X993834Y576472D01*
X991872Y578434D01*
X989468Y579822D01*
X986788Y580540D01*
D02*
G37*
G36*
X984130D02*
X984012D01*
X981332Y579822D01*
X978928Y578434D01*
X976966Y576472D01*
X975578Y574068D01*
X974860Y571388D01*
Y571270D01*
X984130D01*
Y580540D01*
D02*
G37*
G36*
X751788D02*
X751670D01*
Y571270D01*
X760940D01*
Y571388D01*
X760222Y574068D01*
X758834Y576472D01*
X756872Y578434D01*
X754468Y579822D01*
X751788Y580540D01*
D02*
G37*
G36*
X749130D02*
X749012D01*
X746332Y579822D01*
X743928Y578434D01*
X741966Y576472D01*
X740578Y574068D01*
X739860Y571388D01*
Y571270D01*
X749130D01*
Y580540D01*
D02*
G37*
G36*
X995940Y568730D02*
X986670D01*
Y559460D01*
X986788D01*
X989468Y560178D01*
X991872Y561566D01*
X993834Y563528D01*
X995222Y565932D01*
X995940Y568612D01*
Y568730D01*
D02*
G37*
G36*
X984130D02*
X974860D01*
Y568612D01*
X975578Y565932D01*
X976966Y563528D01*
X978928Y561566D01*
X981332Y560178D01*
X984012Y559460D01*
X984130D01*
Y568730D01*
D02*
G37*
G36*
X760940D02*
X751670D01*
Y559460D01*
X751788D01*
X754468Y560178D01*
X756872Y561566D01*
X758834Y563528D01*
X760222Y565932D01*
X760940Y568612D01*
Y568730D01*
D02*
G37*
G36*
X749130D02*
X739860D01*
Y568612D01*
X740578Y565932D01*
X741966Y563528D01*
X743928Y561566D01*
X746332Y560178D01*
X749012Y559460D01*
X749130D01*
Y568730D01*
D02*
G37*
G36*
X726388Y580540D02*
X723612D01*
X720932Y579822D01*
X718528Y578434D01*
X716566Y576472D01*
X715178Y574068D01*
X714460Y571388D01*
Y568612D01*
X715178Y565932D01*
X716566Y563528D01*
X718528Y561566D01*
X720932Y560178D01*
X723612Y559460D01*
X726388D01*
X729068Y560178D01*
X731472Y561566D01*
X733434Y563528D01*
X734822Y565932D01*
X735540Y568612D01*
Y571388D01*
X734822Y574068D01*
X733434Y576472D01*
X731472Y578434D01*
X729068Y579822D01*
X726388Y580540D01*
D02*
G37*
G36*
X888890Y526537D02*
X886510D01*
X884211Y525921D01*
X882149Y524731D01*
X880466Y523048D01*
X879276Y520986D01*
X878660Y518687D01*
Y516307D01*
X879276Y514008D01*
X880466Y511946D01*
X882149Y510263D01*
X883815Y509301D01*
Y500851D01*
X882545Y500511D01*
X882234Y501051D01*
X880551Y502734D01*
X878489Y503924D01*
X876190Y504540D01*
X873810D01*
X871511Y503924D01*
X869449Y502734D01*
X867766Y501051D01*
X866576Y498989D01*
X865960Y496690D01*
Y494310D01*
X866576Y492011D01*
X867766Y489949D01*
X869449Y488266D01*
X871511Y487076D01*
X873810Y486460D01*
X876190D01*
X878489Y487076D01*
X880551Y488266D01*
X882234Y489949D01*
X882545Y490489D01*
X883815Y490149D01*
Y469809D01*
X873048Y459042D01*
X871190Y459540D01*
X868810D01*
X866952Y459042D01*
X848057Y477937D01*
X846797Y478779D01*
X845310Y479075D01*
X843375D01*
X842234Y481051D01*
X840551Y482734D01*
X838489Y483924D01*
X836190Y484540D01*
X833810D01*
X831511Y483924D01*
X829449Y482734D01*
X827766Y481051D01*
X826576Y478989D01*
X825960Y476690D01*
Y474310D01*
X826576Y472011D01*
X827766Y469949D01*
X829449Y468266D01*
X831511Y467076D01*
X833810Y466460D01*
X836190D01*
X838489Y467076D01*
X840551Y468266D01*
X842234Y469949D01*
X842676Y470715D01*
X844142Y470864D01*
X861458Y453548D01*
X860960Y451690D01*
Y449310D01*
X861576Y447011D01*
X862766Y444949D01*
X864449Y443266D01*
X866511Y442076D01*
X868810Y441460D01*
X871190D01*
X873489Y442076D01*
X875551Y443266D01*
X877234Y444949D01*
X878424Y447011D01*
X879040Y449310D01*
Y451690D01*
X878542Y453548D01*
X890447Y465453D01*
X891289Y466713D01*
X891585Y468200D01*
Y509301D01*
X893251Y510263D01*
X894934Y511946D01*
X896124Y514008D01*
X896740Y516307D01*
Y518687D01*
X896124Y520986D01*
X894934Y523048D01*
X893251Y524731D01*
X891189Y525921D01*
X888890Y526537D01*
D02*
G37*
G36*
X986388Y390540D02*
X986270D01*
Y381270D01*
X995540D01*
Y381388D01*
X994822Y384068D01*
X993434Y386472D01*
X991472Y388434D01*
X989068Y389822D01*
X986388Y390540D01*
D02*
G37*
G36*
X983730D02*
X983612D01*
X980932Y389822D01*
X978528Y388434D01*
X976566Y386472D01*
X975178Y384068D01*
X974460Y381388D01*
Y381270D01*
X983730D01*
Y390540D01*
D02*
G37*
G36*
X751788D02*
X751670D01*
Y381270D01*
X760940D01*
Y381388D01*
X760222Y384068D01*
X758834Y386472D01*
X756872Y388434D01*
X754468Y389822D01*
X751788Y390540D01*
D02*
G37*
G36*
X749130D02*
X749012D01*
X746332Y389822D01*
X743928Y388434D01*
X741966Y386472D01*
X740578Y384068D01*
X739860Y381388D01*
Y381270D01*
X749130D01*
Y390540D01*
D02*
G37*
G36*
X995540Y378730D02*
X986270D01*
Y369460D01*
X986388D01*
X989068Y370178D01*
X991472Y371566D01*
X993434Y373528D01*
X994822Y375932D01*
X995540Y378612D01*
Y378730D01*
D02*
G37*
G36*
X983730D02*
X974460D01*
Y378612D01*
X975178Y375932D01*
X976566Y373528D01*
X978528Y371566D01*
X980932Y370178D01*
X983612Y369460D01*
X983730D01*
Y378730D01*
D02*
G37*
G36*
X760940D02*
X751670D01*
Y369460D01*
X751788D01*
X754468Y370178D01*
X756872Y371566D01*
X758834Y373528D01*
X760222Y375932D01*
X760940Y378612D01*
Y378730D01*
D02*
G37*
G36*
X749130D02*
X739860D01*
Y378612D01*
X740578Y375932D01*
X741966Y373528D01*
X743928Y371566D01*
X746332Y370178D01*
X749012Y369460D01*
X749130D01*
Y378730D01*
D02*
G37*
G36*
X726388Y390540D02*
X723612D01*
X720932Y389822D01*
X718528Y388434D01*
X716566Y386472D01*
X715178Y384068D01*
X714460Y381388D01*
Y378612D01*
X715178Y375932D01*
X716566Y373528D01*
X718528Y371566D01*
X720932Y370178D01*
X723612Y369460D01*
X726388D01*
X729068Y370178D01*
X731472Y371566D01*
X733434Y373528D01*
X734822Y375932D01*
X735540Y378612D01*
Y381388D01*
X734822Y384068D01*
X733434Y386472D01*
X731472Y388434D01*
X729068Y389822D01*
X726388Y390540D01*
D02*
G37*
G36*
X810790Y484540D02*
X808410D01*
X806111Y483924D01*
X804049Y482734D01*
X802366Y481051D01*
X801176Y478989D01*
X800560Y476690D01*
Y474310D01*
X801176Y472011D01*
X802366Y469949D01*
X804049Y468266D01*
X805715Y467304D01*
Y372509D01*
X743457Y310250D01*
X741256Y310840D01*
X738744D01*
X736318Y310190D01*
X734142Y308934D01*
X732366Y307158D01*
X731110Y304982D01*
X730460Y302556D01*
Y300044D01*
X731110Y297618D01*
X732366Y295442D01*
X734142Y293666D01*
X736115Y292527D01*
Y270000D01*
X736411Y268514D01*
X737253Y267253D01*
X742253Y262253D01*
X743513Y261411D01*
X745000Y261115D01*
X756207D01*
X806035Y211287D01*
Y196529D01*
X791883Y182377D01*
X791041Y181117D01*
X790745Y179630D01*
Y175040D01*
X778360D01*
Y154960D01*
X798440D01*
Y170855D01*
X798515Y171230D01*
Y178021D01*
X809942Y189448D01*
X811115Y188962D01*
Y174675D01*
X809925Y174356D01*
X807635Y173034D01*
X805766Y171165D01*
X804444Y168875D01*
X803760Y166322D01*
Y163678D01*
X804444Y161125D01*
X805766Y158835D01*
X807635Y156966D01*
X809925Y155644D01*
X812478Y154960D01*
X815122D01*
X817675Y155644D01*
X819965Y156966D01*
X821834Y158835D01*
X823156Y161125D01*
X823840Y163678D01*
Y166322D01*
X823156Y168875D01*
X821834Y171165D01*
X819965Y173034D01*
X818885Y173658D01*
Y213826D01*
X820155Y214352D01*
X835315Y199191D01*
Y174350D01*
X833035Y173034D01*
X831166Y171165D01*
X829844Y168875D01*
X829160Y166322D01*
Y163678D01*
X829844Y161125D01*
X831166Y158835D01*
X833035Y156966D01*
X835325Y155644D01*
X837878Y154960D01*
X840522D01*
X843075Y155644D01*
X845365Y156966D01*
X847234Y158835D01*
X848556Y161125D01*
X849240Y163678D01*
Y166322D01*
X848556Y168875D01*
X847234Y171165D01*
X845365Y173034D01*
X843085Y174350D01*
Y200800D01*
X842789Y202287D01*
X841947Y203547D01*
X793885Y251609D01*
Y292527D01*
X795858Y293666D01*
X797634Y295442D01*
X798890Y297618D01*
X799540Y300044D01*
Y302556D01*
X798950Y304757D01*
X885447Y391253D01*
X886289Y392513D01*
X886585Y394000D01*
Y420307D01*
X888251Y421269D01*
X889934Y422952D01*
X891124Y425014D01*
X891740Y427313D01*
Y429693D01*
X891124Y431992D01*
X889934Y434054D01*
X888251Y435737D01*
X886189Y436927D01*
X883890Y437543D01*
X881510D01*
X879211Y436927D01*
X877149Y435737D01*
X875466Y434054D01*
X874276Y431992D01*
X873660Y429693D01*
Y427313D01*
X874276Y425014D01*
X875466Y422952D01*
X877149Y421269D01*
X878815Y420307D01*
Y395609D01*
X793457Y310250D01*
X791256Y310840D01*
X788744D01*
X786318Y310190D01*
X784142Y308934D01*
X782366Y307158D01*
X781110Y304982D01*
X780460Y302556D01*
Y300044D01*
X781110Y297618D01*
X782366Y295442D01*
X784142Y293666D01*
X786115Y292527D01*
Y251175D01*
X784845Y250648D01*
X768885Y266609D01*
Y292527D01*
X770858Y293666D01*
X772634Y295442D01*
X773890Y297618D01*
X774540Y300044D01*
Y302556D01*
X773950Y304757D01*
X822747Y353553D01*
X823589Y354813D01*
X823885Y356300D01*
Y421978D01*
X825459Y422886D01*
X827114Y424541D01*
X828284Y426569D01*
X828890Y428830D01*
Y431170D01*
X828284Y433431D01*
X827114Y435459D01*
X825459Y437114D01*
X823431Y438284D01*
X821170Y438890D01*
X818830D01*
X816569Y438284D01*
X814755Y437237D01*
X813485Y437664D01*
Y467304D01*
X815151Y468266D01*
X816834Y469949D01*
X818024Y472011D01*
X818640Y474310D01*
Y476690D01*
X818024Y478989D01*
X816834Y481051D01*
X815151Y482734D01*
X813089Y483924D01*
X810790Y484540D01*
D02*
G37*
G36*
X960988Y390540D02*
X958212D01*
X955532Y389822D01*
X953128Y388434D01*
X951166Y386472D01*
X949778Y384068D01*
X949060Y381388D01*
Y378612D01*
X949098Y378471D01*
X948414Y377579D01*
X947654Y375745D01*
X947395Y373776D01*
Y306686D01*
X947366Y306658D01*
X946110Y304482D01*
X945460Y302056D01*
Y299544D01*
X946110Y297118D01*
X947366Y294942D01*
X949142Y293166D01*
X951318Y291910D01*
X953744Y291260D01*
X956256D01*
X958682Y291910D01*
X960858Y293166D01*
X962634Y294942D01*
X963890Y297118D01*
X964540Y299544D01*
Y302056D01*
X963890Y304482D01*
X962634Y306658D01*
X962605Y306686D01*
Y369893D01*
X963668Y370178D01*
X966072Y371566D01*
X968034Y373528D01*
X969422Y375932D01*
X970140Y378612D01*
Y381388D01*
X969422Y384068D01*
X968034Y386472D01*
X966072Y388434D01*
X963668Y389822D01*
X960988Y390540D01*
D02*
G37*
G36*
X961388Y580540D02*
X958612D01*
X955932Y579822D01*
X953528Y578434D01*
X951566Y576472D01*
X950178Y574068D01*
X949460Y571388D01*
Y570215D01*
X924622Y545378D01*
X923414Y543802D01*
X922654Y541968D01*
X922395Y540000D01*
Y306686D01*
X922366Y306658D01*
X921110Y304482D01*
X920460Y302056D01*
Y299544D01*
X921110Y297118D01*
X922366Y294942D01*
X924142Y293166D01*
X926318Y291910D01*
X928744Y291260D01*
X931256D01*
X933682Y291910D01*
X935858Y293166D01*
X937634Y294942D01*
X938890Y297118D01*
X939540Y299544D01*
Y302056D01*
X938890Y304482D01*
X937634Y306658D01*
X937605Y306686D01*
Y536850D01*
X960215Y559460D01*
X961388D01*
X964068Y560178D01*
X966472Y561566D01*
X968434Y563528D01*
X969822Y565932D01*
X970540Y568612D01*
Y571388D01*
X969822Y574068D01*
X968434Y576472D01*
X966472Y578434D01*
X964068Y579822D01*
X961388Y580540D01*
D02*
G37*
G36*
X906256Y310340D02*
X903744D01*
X901318Y309690D01*
X899142Y308434D01*
X897366Y306658D01*
X896110Y304482D01*
X895460Y302056D01*
Y299544D01*
X896110Y297118D01*
X897366Y294942D01*
X899142Y293166D01*
X901318Y291910D01*
X903744Y291260D01*
X906256D01*
X908682Y291910D01*
X910858Y293166D01*
X912634Y294942D01*
X913890Y297118D01*
X914540Y299544D01*
Y302056D01*
X913890Y304482D01*
X912634Y306658D01*
X910858Y308434D01*
X908682Y309690D01*
X906256Y310340D01*
D02*
G37*
G36*
X866170Y358890D02*
X863830D01*
X861569Y358284D01*
X859541Y357114D01*
X857886Y355459D01*
X856716Y353431D01*
X856110Y351170D01*
Y348830D01*
X856716Y346569D01*
X857395Y345392D01*
Y289608D01*
X856716Y288431D01*
X856110Y286170D01*
Y283830D01*
X856716Y281569D01*
X857886Y279541D01*
X859541Y277886D01*
X861569Y276716D01*
X863830Y276110D01*
X866170D01*
X868431Y276716D01*
X870459Y277886D01*
X872114Y279541D01*
X873284Y281569D01*
X873890Y283830D01*
Y286170D01*
X873284Y288431D01*
X872605Y289608D01*
Y293044D01*
X873778Y293530D01*
X874142Y293166D01*
X876318Y291910D01*
X878744Y291260D01*
X881256D01*
X883682Y291910D01*
X885858Y293166D01*
X887634Y294942D01*
X888890Y297118D01*
X889540Y299544D01*
Y302056D01*
X888890Y304482D01*
X887634Y306658D01*
X885858Y308434D01*
X883682Y309690D01*
X881256Y310340D01*
X878744D01*
X876318Y309690D01*
X874142Y308434D01*
X873778Y308070D01*
X872605Y308556D01*
Y345392D01*
X873284Y346569D01*
X873890Y348830D01*
Y351170D01*
X873284Y353431D01*
X872114Y355459D01*
X870459Y357114D01*
X868431Y358284D01*
X866170Y358890D01*
D02*
G37*
G36*
X837220Y277540D02*
X832780D01*
X828425Y276674D01*
X824323Y274975D01*
X820632Y272508D01*
X817492Y269368D01*
X815025Y265677D01*
X813326Y261575D01*
X812460Y257220D01*
Y252780D01*
X813326Y248425D01*
X815025Y244323D01*
X817492Y240632D01*
X820632Y237492D01*
X824323Y235025D01*
X828425Y233326D01*
X832780Y232460D01*
X837220D01*
X841575Y233326D01*
X845677Y235025D01*
X849368Y237492D01*
X852508Y240632D01*
X854975Y244323D01*
X856674Y248425D01*
X857540Y252780D01*
Y257220D01*
X856674Y261575D01*
X854975Y265677D01*
X852508Y269368D01*
X849368Y272508D01*
X845677Y274975D01*
X841575Y276674D01*
X837220Y277540D01*
D02*
G37*
G36*
X956256Y208740D02*
X953744D01*
X951318Y208090D01*
X949142Y206834D01*
X949113Y206805D01*
X935887D01*
X935858Y206834D01*
X933682Y208090D01*
X931256Y208740D01*
X928744D01*
X926318Y208090D01*
X924142Y206834D01*
X924113Y206805D01*
X910887D01*
X910858Y206834D01*
X908682Y208090D01*
X906256Y208740D01*
X903744D01*
X901318Y208090D01*
X899142Y206834D01*
X899113Y206805D01*
X885887D01*
X885858Y206834D01*
X883682Y208090D01*
X881256Y208740D01*
X878744D01*
X876318Y208090D01*
X874142Y206834D01*
X872366Y205058D01*
X871110Y202882D01*
X870460Y200456D01*
Y197944D01*
X871110Y195518D01*
X872366Y193342D01*
X874142Y191566D01*
X876318Y190310D01*
X877321Y190041D01*
X882395Y184967D01*
Y171594D01*
X881966Y171165D01*
X880644Y168875D01*
X879960Y166322D01*
Y163678D01*
X880644Y161125D01*
X881966Y158835D01*
X883835Y156966D01*
X886125Y155644D01*
X888678Y154960D01*
X891322D01*
X893875Y155644D01*
X896165Y156966D01*
X898034Y158835D01*
X899356Y161125D01*
X900040Y163678D01*
Y166322D01*
X899356Y168875D01*
X898034Y171165D01*
X897605Y171594D01*
Y188118D01*
X897346Y190086D01*
X897247Y190325D01*
X897940Y191362D01*
X899142Y191566D01*
X901318Y190310D01*
X903744Y189660D01*
X906256D01*
X908682Y190310D01*
X910858Y191566D01*
X910887Y191595D01*
X924113D01*
X924142Y191566D01*
X926318Y190310D01*
X928744Y189660D01*
X931256D01*
X933682Y190310D01*
X935858Y191566D01*
X935887Y191595D01*
X949113D01*
X949142Y191566D01*
X951318Y190310D01*
X953744Y189660D01*
X956256D01*
X958682Y190310D01*
X960858Y191566D01*
X962634Y193342D01*
X963890Y195518D01*
X964540Y197944D01*
Y200456D01*
X963890Y202882D01*
X962634Y205058D01*
X960858Y206834D01*
X958682Y208090D01*
X956256Y208740D01*
D02*
G37*
G36*
X791270Y209236D02*
Y200970D01*
X799536D01*
X798890Y203382D01*
X797634Y205558D01*
X795858Y207334D01*
X793682Y208590D01*
X791270Y209236D01*
D02*
G37*
G36*
X766270D02*
Y200970D01*
X774536D01*
X773890Y203382D01*
X772634Y205558D01*
X770858Y207334D01*
X768682Y208590D01*
X766270Y209236D01*
D02*
G37*
G36*
X741270D02*
Y200970D01*
X749536D01*
X748890Y203382D01*
X747634Y205558D01*
X745858Y207334D01*
X743682Y208590D01*
X741270Y209236D01*
D02*
G37*
G36*
X788730Y209236D02*
X786318Y208590D01*
X784142Y207334D01*
X782366Y205558D01*
X781110Y203382D01*
X780464Y200970D01*
X788730D01*
Y209236D01*
D02*
G37*
G36*
X763730D02*
X761318Y208590D01*
X759142Y207334D01*
X757366Y205558D01*
X756110Y203382D01*
X755464Y200970D01*
X763730D01*
Y209236D01*
D02*
G37*
G36*
X738730D02*
X736318Y208590D01*
X734142Y207334D01*
X732366Y205558D01*
X731110Y203382D01*
X730464Y200970D01*
X738730D01*
Y209236D01*
D02*
G37*
G36*
X788730Y198430D02*
X780464D01*
X781110Y196018D01*
X782366Y193842D01*
X784142Y192066D01*
X786318Y190810D01*
X788730Y190164D01*
Y198430D01*
D02*
G37*
G36*
X763730D02*
X755464D01*
X756110Y196018D01*
X757366Y193842D01*
X759142Y192066D01*
X761318Y190810D01*
X763730Y190164D01*
Y198430D01*
D02*
G37*
G36*
X738730D02*
X730464D01*
X731110Y196018D01*
X732366Y193842D01*
X734142Y192066D01*
X736318Y190810D01*
X738730Y190164D01*
Y198430D01*
D02*
G37*
G36*
X799536D02*
X791270D01*
Y190164D01*
X793682Y190810D01*
X795858Y192066D01*
X797634Y193842D01*
X798890Y196018D01*
X799536Y198430D01*
D02*
G37*
G36*
X774536D02*
X766270D01*
Y190164D01*
X768682Y190810D01*
X770858Y192066D01*
X772634Y193842D01*
X773890Y196018D01*
X774536Y198430D01*
D02*
G37*
G36*
X749536D02*
X741270D01*
Y190164D01*
X743682Y190810D01*
X745858Y192066D01*
X747634Y193842D01*
X748890Y196018D01*
X749536Y198430D01*
D02*
G37*
G36*
X865922Y175040D02*
X865870D01*
Y166270D01*
X874640D01*
Y166322D01*
X873956Y168875D01*
X872634Y171165D01*
X870765Y173034D01*
X868475Y174356D01*
X865922Y175040D01*
D02*
G37*
G36*
X863330D02*
X863278D01*
X860725Y174356D01*
X858435Y173034D01*
X856566Y171165D01*
X855244Y168875D01*
X854560Y166322D01*
Y166270D01*
X863330D01*
Y175040D01*
D02*
G37*
G36*
X874640Y163730D02*
X865870D01*
Y154960D01*
X865922D01*
X868475Y155644D01*
X870765Y156966D01*
X872634Y158835D01*
X873956Y161125D01*
X874640Y163678D01*
Y163730D01*
D02*
G37*
G36*
X863330D02*
X854560D01*
Y163678D01*
X855244Y161125D01*
X856566Y158835D01*
X858435Y156966D01*
X860725Y155644D01*
X863278Y154960D01*
X863330D01*
Y163730D01*
D02*
G37*
%LPD*%
G36*
X816115Y421978D02*
Y357909D01*
X768457Y310250D01*
X766256Y310840D01*
X763744D01*
X761318Y310190D01*
X759142Y308934D01*
X757366Y307158D01*
X756110Y304982D01*
X755460Y302556D01*
Y300044D01*
X756110Y297618D01*
X757366Y295442D01*
X759142Y293666D01*
X761115Y292527D01*
Y268905D01*
X759845Y268226D01*
X759302Y268589D01*
X757816Y268885D01*
X746609D01*
X743885Y271609D01*
Y292527D01*
X745858Y293666D01*
X747634Y295442D01*
X748890Y297618D01*
X749540Y300044D01*
Y302556D01*
X748950Y304757D01*
X812347Y368153D01*
X813189Y369413D01*
X813485Y370900D01*
Y422336D01*
X814755Y422763D01*
X816115Y421978D01*
D02*
G37*
D13*
X225160Y667522D02*
Y750178D01*
X145160Y784840D02*
X190498D01*
X225160Y750178D01*
X191381Y791141D02*
X230240Y752282D01*
X188859Y791141D02*
X191381D01*
X230240Y665417D02*
Y752282D01*
X150000Y830000D02*
Y891600D01*
Y830000D02*
X188859Y791141D01*
X630000Y490000D02*
Y685000D01*
X549920Y757896D02*
X624920Y682896D01*
X555000Y760000D02*
X630000Y685000D01*
X618006Y478006D02*
X630000Y490000D01*
X609700Y577700D02*
X624920Y592920D01*
Y682896D01*
X790000Y301300D02*
X882700Y394000D01*
Y428503D01*
X790000Y250000D02*
Y301300D01*
X740000D02*
X809600Y370900D01*
X740000Y270000D02*
X745000Y265000D01*
X740000Y270000D02*
Y301300D01*
X839200Y165000D02*
Y200800D01*
X790000Y250000D02*
X839200Y200800D01*
X757816Y265000D02*
X809920Y212896D01*
X813800Y165000D02*
X815000Y166200D01*
Y215000D01*
X794630Y179630D02*
X809920Y194920D01*
Y212896D01*
X765000Y265000D02*
Y301300D01*
X745000Y265000D02*
X757816D01*
X765000Y265000D02*
X815000Y215000D01*
X794630Y171230D02*
Y179630D01*
X788400Y165000D02*
X794630Y171230D01*
X820000Y356300D02*
Y430000D01*
X765000Y301300D02*
X820000Y356300D01*
X809600Y370900D02*
Y475500D01*
X870000Y450500D02*
X887700Y468200D01*
Y517497D01*
X835310Y475190D02*
X845310D01*
X870000Y450500D01*
X835000Y475500D02*
X835310Y475190D01*
X85000Y1000500D02*
X143416Y1058916D01*
Y1067616D01*
X145800Y1070000D01*
X85000Y1000000D02*
Y1000500D01*
X50000Y935000D02*
X125000Y1010000D01*
X250000D01*
X37428Y935000D02*
X50000D01*
X129410Y999410D02*
X209790D01*
X127736Y1004920D02*
X229680D01*
X52736Y929920D02*
X127736Y1004920D01*
X45000Y915000D02*
X129410Y999410D01*
X229680Y1004920D02*
X246500Y988100D01*
X250000Y1010000D02*
X271900Y988100D01*
X475000Y71395D02*
X504920Y41475D01*
Y21568D02*
Y41475D01*
X439200Y15000D02*
X508512D01*
X484920Y20080D02*
X503432D01*
X504920Y21568D01*
X510000Y16488D02*
Y45632D01*
X508512Y15000D02*
X510000Y16488D01*
X480080Y75552D02*
X510000Y45632D01*
X495000Y75000D02*
Y77749D01*
X500000Y82749D02*
Y120000D01*
X480080Y75552D02*
Y844920D01*
X495000Y77749D02*
X500000Y82749D01*
X465000Y40000D02*
X484920Y20080D01*
X414200Y40000D02*
X439200Y15000D01*
X109050Y781430D02*
X110240Y780240D01*
X98570Y781430D02*
X109050D01*
X67406Y812594D02*
X98570Y781430D01*
X145000Y805000D02*
X154680Y795320D01*
X154996D01*
X187104Y800080D02*
X324920D01*
X155080Y832104D02*
Y875080D01*
Y832104D02*
X187104Y800080D01*
X222690Y657867D02*
X230240Y665417D01*
X217610Y659971D02*
X225160Y667522D01*
X594050Y180950D02*
Y255150D01*
X570000Y279200D02*
X594050Y255150D01*
X535000Y260000D02*
X581350Y213650D01*
Y180950D02*
Y213650D01*
X535000Y260000D02*
Y279200D01*
X45806Y812594D02*
X67406D01*
X45000Y813400D02*
X45806Y812594D01*
X115000Y815000D02*
X145160Y784840D01*
X115000Y815000D02*
Y958200D01*
X261820Y760880D02*
X305000Y717700D01*
X252749Y765000D02*
X256869Y760880D01*
X261820D01*
X250000Y765000D02*
X252749D01*
X305000Y705000D02*
Y717700D01*
X324920Y800080D02*
X370000Y755000D01*
X120080Y819920D02*
X135000Y805000D01*
X145000D01*
X120080Y819920D02*
Y935080D01*
X215000Y825000D02*
X343800D01*
X200000Y840000D02*
X215000Y825000D01*
X343800D02*
X358800Y840000D01*
X370000Y720250D02*
X410650Y679600D01*
X419300D01*
X370000Y720250D02*
Y755000D01*
X155080Y875080D02*
X184390Y904390D01*
X195700Y927895D02*
Y988100D01*
X184390Y916585D02*
X195700Y927895D01*
X184390Y904390D02*
Y916585D01*
X222690Y596972D02*
Y657867D01*
Y596972D02*
X229662Y590000D01*
X217610Y559038D02*
Y659971D01*
X229662Y590000D02*
X265000D01*
X226648Y550000D02*
X260000D01*
X217610Y559038D02*
X226648Y550000D01*
X209790Y999410D02*
X221100Y988100D01*
X150000Y891600D02*
X170300Y911900D01*
X115000Y958200D02*
X144900Y988100D01*
X469920Y60480D02*
Y840712D01*
X475000Y71395D02*
Y842816D01*
X469920Y60480D02*
X490400Y40000D01*
X449700Y875300D02*
X480080Y844920D01*
X444620Y873196D02*
X475000Y842816D01*
X436445Y874187D02*
X469920Y840712D01*
X265000Y590000D02*
X285000Y570000D01*
X39532Y929920D02*
X52736D01*
X24920Y922492D02*
X37428Y935000D01*
X30000Y920388D02*
X39532Y929920D01*
X24920Y884280D02*
Y922492D01*
Y884280D02*
X45000Y864200D01*
X30000Y891488D02*
Y920388D01*
Y891488D02*
X31488Y890000D01*
X44600D01*
X45000Y889600D01*
X260000Y550000D02*
X270000Y540000D01*
X120080Y935080D02*
X170300Y985300D01*
Y988100D01*
X449700D02*
X461010Y976790D01*
X478210D02*
X549920Y905080D01*
X461010Y976790D02*
X478210D01*
X475100Y988100D02*
X555000Y908200D01*
X430000Y965000D02*
X470000D01*
X425000Y950000D02*
X480000D01*
X398900Y976100D02*
X425000Y950000D01*
X398900Y976100D02*
Y988100D01*
X610000Y735000D02*
Y763750D01*
X609700Y476100D02*
X611606Y478006D01*
X618006D01*
X575000Y798750D02*
Y811250D01*
Y798750D02*
X610000Y763750D01*
X587816Y523384D02*
Y712816D01*
Y523384D02*
X609700Y501500D01*
X543908Y756724D02*
Y903908D01*
Y756724D02*
X587816Y712816D01*
X555000Y760000D02*
Y908200D01*
X549920Y757896D02*
Y905080D01*
X535916Y911900D02*
X543908Y903908D01*
X475100Y911900D02*
X535916D01*
X398900D02*
X436445Y874355D01*
Y874187D02*
Y874355D01*
X424300Y911900D02*
X444620Y891580D01*
X449700Y875300D02*
Y911900D01*
X444620Y873196D02*
Y891580D01*
X255400Y840000D02*
X310000D01*
Y873800D02*
X348100Y911900D01*
X310000Y840000D02*
Y873800D01*
X358800Y840000D02*
Y897200D01*
X373500Y911900D01*
X315000Y530800D02*
X345000D01*
X259600Y570000D02*
X298800Y530800D01*
X315000D01*
X755000Y1005000D02*
Y1055400D01*
X740400Y1070000D02*
X755000Y1055400D01*
X705000Y885800D02*
Y955000D01*
X755000Y1005000D01*
X595000Y980000D02*
Y980500D01*
X650000Y900800D02*
X665000Y885800D01*
X650000Y900800D02*
Y945000D01*
X740400Y1070000D02*
X800000D01*
X708101Y784200D02*
X713901Y790000D01*
X785000D01*
X705000Y784200D02*
X708101D01*
D15*
X305000Y705000D02*
D03*
D16*
X419300Y730400D02*
D03*
Y679600D02*
D03*
D17*
X52500Y1010000D02*
D03*
Y990000D02*
D03*
X358800Y840000D02*
D03*
D18*
X85000Y1000000D02*
D03*
D19*
X575000Y811250D02*
D03*
Y888750D02*
D03*
D35*
X609700Y653900D02*
D03*
Y628500D02*
D03*
Y603100D02*
D03*
Y577700D02*
D03*
Y552300D02*
D03*
Y526900D02*
D03*
Y501500D02*
D03*
Y476100D02*
D03*
X530300D02*
D03*
Y501500D02*
D03*
Y526900D02*
D03*
Y552300D02*
D03*
Y577700D02*
D03*
Y603100D02*
D03*
Y628500D02*
D03*
D36*
Y653900D02*
D03*
D45*
X215000Y720000D02*
Y750000D01*
X138002Y770000D02*
X195000D01*
X215000Y750000D01*
X95000Y804200D02*
X96609D01*
X115372Y792630D02*
X138002Y770000D01*
X108179Y792630D02*
X115372D01*
X96609Y804200D02*
X108179Y792630D01*
X77796Y821404D02*
X95000Y804200D01*
X84998Y1083540D02*
X84998Y1083540D01*
X38540Y1083540D02*
X84998D01*
X15000Y1060000D02*
X38540Y1083540D01*
X84998Y1083540D02*
X108759D01*
X122700Y1072300D02*
X133940Y1083540D01*
X120400Y1070000D02*
Y1071899D01*
X108759Y1083540D02*
X120400Y1071899D01*
X451953Y1070000D02*
X465493Y1083540D01*
X674166D02*
X687706Y1070000D01*
X465493Y1083540D02*
X674166D01*
X133940D02*
X438413D01*
X450600Y1071353D01*
X15000Y868800D02*
X62396Y821404D01*
X322700Y988100D02*
X348100D01*
X297300Y911900D02*
Y962700D01*
X322700Y988100D01*
X62396Y821404D02*
X77796D01*
X15000Y1020000D02*
X45000Y990000D01*
X15000Y1020000D02*
Y1060000D01*
Y952500D02*
X52500Y990000D01*
X15000Y868800D02*
Y952500D01*
X348100Y988100D02*
X389050Y1029050D01*
X409650D02*
X450600Y1070000D01*
X389050Y1029050D02*
X409650D01*
D46*
X865000Y285000D02*
Y350000D01*
X930000Y540000D02*
X960000Y570000D01*
X930000Y300800D02*
Y540000D01*
X959600Y378376D02*
Y380000D01*
X955000Y300800D02*
Y373776D01*
X959600Y378376D01*
X880000Y198118D02*
X890000Y188118D01*
Y165000D02*
Y188118D01*
X880000Y198118D02*
Y199200D01*
X905000D01*
X930000D01*
X955000D01*
X120400Y1070000D02*
Y1070263D01*
X45000Y990000D02*
X52500D01*
X450600Y1070000D02*
X451953D01*
X687706D02*
X689600D01*
X450600D02*
Y1071353D01*
D47*
X740400Y1015400D02*
Y1070000D01*
X575000Y823750D02*
X577000Y825750D01*
X600750D02*
X620000Y845000D01*
X575000Y811250D02*
Y823750D01*
X577000Y825750D02*
X600750D01*
X620000Y845000D02*
Y915000D01*
X650000Y945000D01*
X705500Y980500D02*
X740400Y1015400D01*
X595000Y980500D02*
X705500D01*
D48*
X835000Y255000D02*
D03*
X365000Y297460D02*
D03*
X770000Y900000D02*
D03*
D49*
X870000Y450500D02*
D03*
X882700Y428503D02*
D03*
X887700Y517497D02*
D03*
X875000Y495500D02*
D03*
X835000Y475500D02*
D03*
X809600D02*
D03*
X800000Y1070000D02*
D03*
X200000Y840000D02*
D03*
X255400D02*
D03*
D50*
X930000Y300800D02*
D03*
Y199200D02*
D03*
X955000Y300800D02*
D03*
Y199200D02*
D03*
X880000Y300800D02*
D03*
Y199200D02*
D03*
X905000Y300800D02*
D03*
Y199200D02*
D03*
X790000Y199700D02*
D03*
Y301300D02*
D03*
X765000Y199700D02*
D03*
Y301300D02*
D03*
X740000Y199700D02*
D03*
Y301300D02*
D03*
X605000Y279200D02*
D03*
X535000D02*
D03*
X570000D02*
D03*
X345000Y429200D02*
D03*
Y530800D02*
D03*
X280000Y200800D02*
D03*
Y99200D02*
D03*
X315000Y200800D02*
D03*
Y99200D02*
D03*
X245000Y200800D02*
D03*
Y99200D02*
D03*
X315000Y530800D02*
D03*
Y429200D02*
D03*
X95000Y905800D02*
D03*
Y804200D02*
D03*
X605000Y380800D02*
D03*
X535000D02*
D03*
X570000D02*
D03*
X665000Y784200D02*
D03*
Y885800D02*
D03*
X705000Y784200D02*
D03*
Y885800D02*
D03*
D51*
X985400Y570000D02*
D03*
X960000D02*
D03*
X985000Y380000D02*
D03*
X959600D02*
D03*
X750400D02*
D03*
X725000D02*
D03*
X750400Y570000D02*
D03*
X725000D02*
D03*
D52*
X890000Y165000D02*
D03*
X864600D02*
D03*
X839200D02*
D03*
X813800D02*
D03*
X475100Y988100D02*
D03*
X449700D02*
D03*
X424300D02*
D03*
X398900D02*
D03*
X373500D02*
D03*
X348100D02*
D03*
X322700D02*
D03*
X297300D02*
D03*
X271900D02*
D03*
X246500D02*
D03*
X221100D02*
D03*
X195700D02*
D03*
X170300D02*
D03*
X144900D02*
D03*
X475100Y911900D02*
D03*
X449700D02*
D03*
X424300D02*
D03*
X398900D02*
D03*
X373500D02*
D03*
X348100D02*
D03*
X322700D02*
D03*
X297300D02*
D03*
X271900D02*
D03*
X246500D02*
D03*
X221100D02*
D03*
X195700D02*
D03*
X170300D02*
D03*
X120400Y1070000D02*
D03*
X145800D02*
D03*
X171200D02*
D03*
X196600D02*
D03*
X222000D02*
D03*
X247400D02*
D03*
X272800D02*
D03*
X298200D02*
D03*
X323600D02*
D03*
X349000D02*
D03*
X374400D02*
D03*
X399800D02*
D03*
X425200D02*
D03*
X450600D02*
D03*
X476000D02*
D03*
X335800Y570000D02*
D03*
X310400D02*
D03*
X285000D02*
D03*
X259600D02*
D03*
X234200D02*
D03*
X490400Y40000D02*
D03*
X465000D02*
D03*
X439600D02*
D03*
X414200D02*
D03*
X363400D02*
D03*
X388800D02*
D03*
X45000Y813400D02*
D03*
Y838800D02*
D03*
Y864200D02*
D03*
Y889600D02*
D03*
D53*
X788400Y165000D02*
D03*
X95000Y1070000D02*
D03*
X361200Y570000D02*
D03*
X338000Y40000D02*
D03*
D54*
X568650Y180950D02*
D03*
X581350D02*
D03*
X594050D02*
D03*
D55*
X555950D02*
D03*
D56*
X144900Y911900D02*
D03*
X45000Y915000D02*
D03*
D57*
X595000Y980500D02*
D03*
D58*
Y1040500D02*
D03*
D59*
X546000Y1010000D02*
D03*
D60*
X310000Y840000D02*
D03*
D61*
X800000Y1044600D02*
D03*
D62*
X174600Y840000D02*
D03*
X230000D02*
D03*
D63*
X689600Y1070000D02*
D03*
X715000D02*
D03*
D64*
X740400D02*
D03*
D65*
X785000Y790000D02*
D03*
D66*
Y815400D02*
D03*
D67*
X865000Y350000D02*
D03*
Y285000D02*
D03*
X820000Y430000D02*
D03*
X495000Y75000D02*
D03*
X110240Y780240D02*
D03*
X154996Y795320D02*
D03*
X250000Y765000D02*
D03*
X215000Y720000D02*
D03*
X270000Y540000D02*
D03*
X500000Y120000D02*
D03*
X470000Y965000D02*
D03*
X430000D02*
D03*
X610000Y735000D02*
D03*
X480000Y950000D02*
D03*
X650000Y945000D02*
D03*
M02*
