G04*
G04 #@! TF.GenerationSoftware,Altium Limited,Altium Designer,21.3.1 (25)*
G04*
G04 Layer_Physical_Order=2*
G04 Layer_Color=16711680*
%FSLAX44Y44*%
%MOMM*%
G71*
G04*
G04 #@! TF.SameCoordinates,07AAF50E-0F06-4378-A151-48E409635E6A*
G04*
G04*
G04 #@! TF.FilePolarity,Positive*
G04*
G01*
G75*
%ADD13C,0.2540*%
%ADD17R,1.2000X1.2000*%
%ADD35C,1.2500*%
%ADD36R,1.2500X1.2500*%
%ADD45C,0.7000*%
%ADD46C,1.0000*%
%ADD47C,1.5000*%
%ADD48C,4.0000*%
%ADD49C,1.3000*%
%ADD50C,1.4000*%
%ADD51C,1.6000*%
%ADD52C,1.5000*%
%ADD53R,1.5000X1.5000*%
%ADD54C,1.0000*%
%ADD55R,1.0000X1.0000*%
%ADD56R,1.5000X1.5000*%
%ADD57R,4.0000X1.5000*%
%ADD58R,3.5000X1.5000*%
%ADD59R,1.5000X3.5000*%
%ADD60C,1.2000*%
%ADD61R,1.3000X1.3000*%
%ADD62R,1.3000X1.3000*%
%ADD63C,1.7000*%
%ADD64R,1.7000X1.7000*%
%ADD65C,1.5500*%
%ADD66R,1.5500X1.5500*%
%ADD67C,1.2700*%
G36*
X820000Y760000D02*
X635000D01*
Y10000D01*
X534415D01*
X534290Y11270D01*
X534999Y11411D01*
X536259Y12253D01*
X537747Y13741D01*
X538589Y15001D01*
X538885Y16488D01*
Y85000D01*
X538589Y86487D01*
X537747Y87747D01*
X508420Y117074D01*
X508890Y118830D01*
Y121170D01*
X508284Y123431D01*
X507114Y125459D01*
X505459Y127114D01*
X504045Y127930D01*
Y927024D01*
X503885Y927829D01*
Y945000D01*
X503589Y946487D01*
X502747Y947747D01*
X482907Y967587D01*
X481647Y968429D01*
X480160Y968725D01*
X478115D01*
X477114Y970459D01*
X475459Y972114D01*
X473431Y973284D01*
X471170Y973890D01*
X468830D01*
X466569Y973284D01*
X464541Y972114D01*
X462886Y970459D01*
X461716Y968431D01*
X461110Y966170D01*
Y963830D01*
X461716Y961569D01*
X462886Y959541D01*
X464541Y957886D01*
X466569Y956716D01*
X468830Y956110D01*
X471170D01*
X471975Y956326D01*
X472367Y955953D01*
X472747Y955218D01*
X471716Y953431D01*
X471110Y951170D01*
Y948996D01*
X470243Y948329D01*
X470077Y948233D01*
X457705Y960605D01*
X456452Y961442D01*
X433659Y984235D01*
X434340Y986778D01*
Y989422D01*
X433656Y991975D01*
X432334Y994265D01*
X430465Y996134D01*
X428175Y997456D01*
X425622Y998140D01*
X422978D01*
X420425Y997456D01*
X418135Y996134D01*
X416266Y994265D01*
X414944Y991975D01*
X414260Y989422D01*
Y986778D01*
X414944Y984225D01*
X416266Y981935D01*
X418135Y980066D01*
X420425Y978744D01*
X422978Y978060D01*
X425622D01*
X428165Y978741D01*
X431896Y975010D01*
X431239Y973872D01*
X431170Y973890D01*
X428830D01*
X426569Y973284D01*
X424541Y972114D01*
X422886Y970459D01*
X421978Y968885D01*
X398209D01*
X382859Y984235D01*
X383540Y986778D01*
Y989422D01*
X382856Y991975D01*
X381534Y994265D01*
X379665Y996134D01*
X377375Y997456D01*
X374822Y998140D01*
X372178D01*
X369625Y997456D01*
X367335Y996134D01*
X365466Y994265D01*
X365155Y993725D01*
X363885Y994066D01*
Y1003191D01*
X421335Y1060641D01*
X423878Y1059960D01*
X426522D01*
X429075Y1060644D01*
X431365Y1061966D01*
X433234Y1063835D01*
X434556Y1066125D01*
X435240Y1068678D01*
Y1071322D01*
X434556Y1073875D01*
X433234Y1076165D01*
X431365Y1078034D01*
X429075Y1079356D01*
X426522Y1080040D01*
X423878D01*
X421325Y1079356D01*
X419035Y1078034D01*
X417166Y1076165D01*
X415844Y1073875D01*
X415160Y1071322D01*
Y1068678D01*
X415841Y1066135D01*
X357253Y1007547D01*
X356411Y1006287D01*
X356115Y1004800D01*
Y995943D01*
X354942Y995457D01*
X354265Y996134D01*
X351975Y997456D01*
X349422Y998140D01*
X346778D01*
X344225Y997456D01*
X341935Y996134D01*
X340155Y994353D01*
X339491Y994419D01*
X338885Y994581D01*
Y1003591D01*
X395935Y1060641D01*
X398478Y1059960D01*
X401122D01*
X403675Y1060644D01*
X405965Y1061966D01*
X407834Y1063835D01*
X409156Y1066125D01*
X409840Y1068678D01*
Y1071322D01*
X409156Y1073875D01*
X407834Y1076165D01*
X405965Y1078034D01*
X403675Y1079356D01*
X401122Y1080040D01*
X398478D01*
X395925Y1079356D01*
X393635Y1078034D01*
X391766Y1076165D01*
X390444Y1073875D01*
X389760Y1071322D01*
Y1068678D01*
X390441Y1066135D01*
X332253Y1007947D01*
X331411Y1006687D01*
X331115Y1005200D01*
Y995679D01*
X329845Y995153D01*
X328865Y996134D01*
X326575Y997456D01*
X324022Y998140D01*
X321378D01*
X318825Y997456D01*
X316535Y996134D01*
X315155Y994753D01*
X313885Y995279D01*
Y1003991D01*
X370535Y1060641D01*
X373078Y1059960D01*
X375722D01*
X378275Y1060644D01*
X380565Y1061966D01*
X382434Y1063835D01*
X383756Y1066125D01*
X384440Y1068678D01*
Y1071322D01*
X383756Y1073875D01*
X382434Y1076165D01*
X380565Y1078034D01*
X378275Y1079356D01*
X375722Y1080040D01*
X373078D01*
X370525Y1079356D01*
X368235Y1078034D01*
X366366Y1076165D01*
X365044Y1073875D01*
X364360Y1071322D01*
Y1068678D01*
X365041Y1066135D01*
X307253Y1008347D01*
X306411Y1007087D01*
X306115Y1005600D01*
Y995279D01*
X304845Y994753D01*
X303465Y996134D01*
X301175Y997456D01*
X298622Y998140D01*
X298570D01*
Y988100D01*
Y978060D01*
X298622D01*
X301175Y978744D01*
X303465Y980066D01*
X304845Y981447D01*
X306115Y980921D01*
Y965000D01*
X306411Y963513D01*
X307253Y962253D01*
X332253Y937253D01*
X333513Y936411D01*
X335000Y936115D01*
X369191D01*
X389541Y915765D01*
X388860Y913222D01*
Y910578D01*
X389544Y908025D01*
X390866Y905735D01*
X392735Y903866D01*
X395025Y902544D01*
X397578Y901860D01*
X400222D01*
X402775Y902544D01*
X405065Y903866D01*
X406934Y905735D01*
X408256Y908025D01*
X408940Y910578D01*
Y913222D01*
X408256Y915775D01*
X406934Y918065D01*
X405065Y919934D01*
X402775Y921256D01*
X400222Y921940D01*
X397578D01*
X395035Y921259D01*
X376272Y940022D01*
X376758Y941195D01*
X389511D01*
X414941Y915765D01*
X414260Y913222D01*
Y910578D01*
X414944Y908025D01*
X416266Y905735D01*
X418135Y903866D01*
X420425Y902544D01*
X422978Y901860D01*
X425622D01*
X428175Y902544D01*
X430465Y903866D01*
X432334Y905735D01*
X433656Y908025D01*
X434340Y910578D01*
Y913222D01*
X433656Y915775D01*
X432334Y918065D01*
X430465Y919934D01*
X428175Y921256D01*
X425622Y921940D01*
X422978D01*
X420435Y921259D01*
X393867Y947827D01*
X392607Y948669D01*
X391120Y948965D01*
X343017D01*
X338885Y953097D01*
Y981619D01*
X339491Y981781D01*
X340155Y981847D01*
X341935Y980066D01*
X344225Y978744D01*
X346778Y978060D01*
X349422D01*
X351975Y978744D01*
X354265Y980066D01*
X354942Y980743D01*
X356115Y980257D01*
Y980000D01*
X356411Y978513D01*
X357253Y977253D01*
X367253Y967253D01*
X368513Y966411D01*
X370000Y966115D01*
X378391D01*
X407253Y937253D01*
X408513Y936411D01*
X410000Y936115D01*
X419991D01*
X440341Y915765D01*
X439660Y913222D01*
Y910578D01*
X440344Y908025D01*
X441666Y905735D01*
X443535Y903866D01*
X445825Y902544D01*
X448378Y901860D01*
X451022D01*
X453575Y902544D01*
X455865Y903866D01*
X457734Y905735D01*
X459056Y908025D01*
X459740Y910578D01*
Y913222D01*
X459056Y915775D01*
X457734Y918065D01*
X455865Y919934D01*
X453575Y921256D01*
X451022Y921940D01*
X448378D01*
X445835Y921259D01*
X424347Y942747D01*
X423087Y943589D01*
X421600Y943885D01*
X411609D01*
X395443Y960051D01*
X396069Y961221D01*
X396600Y961115D01*
X421978D01*
X422886Y959541D01*
X424541Y957886D01*
X426569Y956716D01*
X428830Y956110D01*
X431170D01*
X433431Y956716D01*
X435459Y957886D01*
X437114Y959541D01*
X438284Y961569D01*
X438890Y963830D01*
Y966170D01*
X438872Y966238D01*
X440010Y966896D01*
X451795Y955111D01*
X453048Y954274D01*
X486115Y921207D01*
Y914489D01*
X484845Y914321D01*
X484456Y915775D01*
X483134Y918065D01*
X481265Y919934D01*
X478975Y921256D01*
X476422Y921940D01*
X473778D01*
X471225Y921256D01*
X468935Y919934D01*
X467066Y918065D01*
X465744Y915775D01*
X465060Y913222D01*
Y910578D01*
X465744Y908025D01*
X467066Y905735D01*
X468935Y903866D01*
X471225Y902544D01*
X473778Y901860D01*
X476422D01*
X478975Y902544D01*
X481265Y903866D01*
X483134Y905735D01*
X484456Y908025D01*
X484845Y909479D01*
X486115Y909312D01*
Y825958D01*
X484942Y825472D01*
X452667Y857747D01*
X451407Y858589D01*
X449920Y858885D01*
X296609D01*
X275785Y879709D01*
Y902550D01*
X278065Y903866D01*
X279934Y905735D01*
X281256Y908025D01*
X281940Y910578D01*
Y913222D01*
X281256Y915775D01*
X279934Y918065D01*
X278065Y919934D01*
X275775Y921256D01*
X273222Y921940D01*
X270578D01*
X268035Y921259D01*
X240409Y948885D01*
X239149Y949727D01*
X237662Y950023D01*
X137243D01*
X130657Y956609D01*
Y1009595D01*
X167097Y1046035D01*
X209104D01*
X209506Y1046115D01*
X337512D01*
X338999Y1046411D01*
X340259Y1047253D01*
X351747Y1058741D01*
X352589Y1060001D01*
X352708Y1060599D01*
X352875Y1060644D01*
X355165Y1061966D01*
X357034Y1063835D01*
X358356Y1066125D01*
X359040Y1068678D01*
Y1071322D01*
X358356Y1073875D01*
X357034Y1076165D01*
X355165Y1078034D01*
X352875Y1079356D01*
X350322Y1080040D01*
X347678D01*
X345125Y1079356D01*
X342835Y1078034D01*
X340966Y1076165D01*
X339644Y1073875D01*
X338960Y1071322D01*
Y1068678D01*
X339644Y1066125D01*
X340966Y1063835D01*
X342512Y1062290D01*
X342750Y1060731D01*
X335903Y1053885D01*
X213038D01*
X212552Y1055058D01*
X218135Y1060641D01*
X220678Y1059960D01*
X223322D01*
X225875Y1060644D01*
X228165Y1061966D01*
X230034Y1063835D01*
X231356Y1066125D01*
X232040Y1068678D01*
Y1071322D01*
X231356Y1073875D01*
X230034Y1076165D01*
X228165Y1078034D01*
X225875Y1079356D01*
X223322Y1080040D01*
X220678D01*
X218125Y1079356D01*
X215835Y1078034D01*
X213966Y1076165D01*
X212644Y1073875D01*
X211960Y1071322D01*
Y1068678D01*
X212641Y1066135D01*
X205391Y1058885D01*
X198815D01*
X198648Y1060155D01*
X200475Y1060644D01*
X202765Y1061966D01*
X204634Y1063835D01*
X205956Y1066125D01*
X206640Y1068678D01*
Y1068730D01*
X186560D01*
Y1068678D01*
X187244Y1066125D01*
X188566Y1063835D01*
X190435Y1061966D01*
X192725Y1060644D01*
X194552Y1060155D01*
X194385Y1058885D01*
X173415D01*
X173248Y1060155D01*
X175075Y1060644D01*
X177365Y1061966D01*
X179234Y1063835D01*
X180556Y1066125D01*
X181240Y1068678D01*
Y1071322D01*
X180556Y1073875D01*
X179234Y1076165D01*
X177365Y1078034D01*
X175075Y1079356D01*
X172522Y1080040D01*
X169878D01*
X167325Y1079356D01*
X165035Y1078034D01*
X163166Y1076165D01*
X161844Y1073875D01*
X161160Y1071322D01*
Y1068678D01*
X161841Y1066135D01*
X113453Y1017747D01*
X112611Y1016487D01*
X112315Y1015000D01*
Y948800D01*
X112611Y947313D01*
X113453Y946053D01*
X127253Y932253D01*
X128513Y931411D01*
X130000Y931115D01*
X196391D01*
X211741Y915765D01*
X211060Y913222D01*
Y910578D01*
X211744Y908025D01*
X213066Y905735D01*
X214935Y903866D01*
X217225Y902544D01*
X219778Y901860D01*
X222422D01*
X224975Y902544D01*
X227265Y903866D01*
X229134Y905735D01*
X230456Y908025D01*
X231140Y910578D01*
Y913222D01*
X230456Y915775D01*
X229134Y918065D01*
X227265Y919934D01*
X224975Y921256D01*
X222422Y921940D01*
X219778D01*
X217235Y921259D01*
X203472Y935022D01*
X203958Y936195D01*
X216711D01*
X237141Y915765D01*
X236460Y913222D01*
Y910578D01*
X237144Y908025D01*
X238466Y905735D01*
X240335Y903866D01*
X242625Y902544D01*
X245178Y901860D01*
X247822D01*
X250375Y902544D01*
X252665Y903866D01*
X254534Y905735D01*
X255856Y908025D01*
X256540Y910578D01*
Y913222D01*
X255856Y915775D01*
X254534Y918065D01*
X252665Y919934D01*
X250375Y921256D01*
X247822Y921940D01*
X245178D01*
X242635Y921259D01*
X222814Y941080D01*
X223300Y942253D01*
X236053D01*
X262541Y915765D01*
X261860Y913222D01*
Y910578D01*
X262544Y908025D01*
X263866Y905735D01*
X265735Y903866D01*
X268015Y902550D01*
Y878100D01*
X268311Y876613D01*
X269153Y875353D01*
X292253Y852253D01*
X293513Y851411D01*
X295000Y851115D01*
X448311D01*
X481035Y818391D01*
Y144913D01*
X405007Y68885D01*
X388400D01*
X386913Y68589D01*
X385653Y67747D01*
X367265Y49359D01*
X364722Y50040D01*
X362078D01*
X359525Y49356D01*
X357235Y48034D01*
X355366Y46165D01*
X354465Y44604D01*
X353195Y44944D01*
Y50690D01*
X352899Y52177D01*
X352057Y53437D01*
X318885Y86609D01*
Y90427D01*
X320858Y91566D01*
X322634Y93342D01*
X323890Y95518D01*
X324540Y97944D01*
Y100456D01*
X323890Y102882D01*
X322634Y105058D01*
X320858Y106834D01*
X318682Y108090D01*
X316256Y108740D01*
X313744D01*
X311318Y108090D01*
X309142Y106834D01*
X307366Y105058D01*
X306110Y102882D01*
X305460Y100456D01*
Y97944D01*
X306110Y95518D01*
X307366Y93342D01*
X309142Y91566D01*
X311115Y90427D01*
Y85000D01*
X311411Y83513D01*
X312253Y82253D01*
X343293Y51213D01*
X342807Y50040D01*
X327960D01*
Y45883D01*
X326787Y45397D01*
X283885Y88299D01*
Y90427D01*
X285858Y91566D01*
X287634Y93342D01*
X288890Y95518D01*
X289540Y97944D01*
Y100456D01*
X288890Y102882D01*
X287634Y105058D01*
X285858Y106834D01*
X283682Y108090D01*
X281256Y108740D01*
X278744D01*
X276318Y108090D01*
X274142Y106834D01*
X272366Y105058D01*
X271110Y102882D01*
X270460Y100456D01*
Y97944D01*
X271110Y95518D01*
X272366Y93342D01*
X274142Y91566D01*
X276115Y90427D01*
Y86690D01*
X276411Y85203D01*
X277253Y83943D01*
X323943Y37253D01*
X325203Y36411D01*
X326690Y36115D01*
X327960D01*
Y29960D01*
X334115D01*
Y27000D01*
X334411Y25513D01*
X335253Y24253D01*
X339448Y20058D01*
X338962Y18885D01*
X330809D01*
X253950Y95743D01*
X254540Y97944D01*
Y100456D01*
X253890Y102882D01*
X252634Y105058D01*
X250858Y106834D01*
X248682Y108090D01*
X246256Y108740D01*
X243744D01*
X241318Y108090D01*
X239142Y106834D01*
X237366Y105058D01*
X236110Y102882D01*
X235460Y100456D01*
Y97944D01*
X236110Y95518D01*
X237366Y93342D01*
X239142Y91566D01*
X241318Y90310D01*
X243744Y89660D01*
X246256D01*
X248457Y90250D01*
X326453Y12253D01*
X327713Y11411D01*
X328423Y11270D01*
X328297Y10000D01*
X195000D01*
Y541847D01*
X195248Y542049D01*
X196947Y541792D01*
X197013Y541693D01*
X306050Y432657D01*
X305460Y430456D01*
Y427944D01*
X306110Y425518D01*
X307366Y423342D01*
X309142Y421566D01*
X311318Y420310D01*
X313744Y419660D01*
X316256D01*
X318682Y420310D01*
X320858Y421566D01*
X322634Y423342D01*
X323890Y425518D01*
X324540Y427944D01*
Y430456D01*
X323890Y432882D01*
X322634Y435058D01*
X320858Y436834D01*
X318682Y438090D01*
X316256Y438740D01*
X313744D01*
X311543Y438150D01*
X203645Y546049D01*
Y574202D01*
X204818Y574688D01*
X212253Y567253D01*
X213513Y566411D01*
X215000Y566115D01*
X224850D01*
X226166Y563835D01*
X228035Y561966D01*
X230325Y560644D01*
X232878Y559960D01*
X235522D01*
X238075Y560644D01*
X240365Y561966D01*
X242234Y563835D01*
X243556Y566125D01*
X244240Y568678D01*
Y571322D01*
X243556Y573875D01*
X242234Y576165D01*
X240365Y578034D01*
X238075Y579356D01*
X235522Y580040D01*
X232878D01*
X230325Y579356D01*
X228035Y578034D01*
X226166Y576165D01*
X224850Y573885D01*
X216609D01*
X208725Y581769D01*
Y712023D01*
X209995Y712625D01*
X211569Y711716D01*
X213830Y711110D01*
X215181D01*
X329642Y596649D01*
Y578038D01*
X329635Y578034D01*
X327766Y576165D01*
X326444Y573875D01*
X325760Y571322D01*
Y568678D01*
X326444Y566125D01*
X327766Y563835D01*
X329635Y561966D01*
X331925Y560644D01*
X334478Y559960D01*
X337122D01*
X339675Y560644D01*
X341965Y561966D01*
X343834Y563835D01*
X345156Y566125D01*
X345840Y568678D01*
Y571322D01*
X345156Y573875D01*
X343834Y576165D01*
X341965Y578034D01*
X341958Y578038D01*
Y599200D01*
X341489Y601557D01*
X340155Y603555D01*
X223890Y719819D01*
Y721170D01*
X223284Y723431D01*
X222114Y725459D01*
X220459Y727114D01*
X218431Y728284D01*
X216170Y728890D01*
X213830D01*
X211569Y728284D01*
X209995Y727375D01*
X208725Y727977D01*
Y760160D01*
Y762344D01*
X208429Y763831D01*
X207587Y765091D01*
X192576Y780102D01*
X193062Y781275D01*
X228231D01*
X241580Y767926D01*
X241110Y766170D01*
Y763830D01*
X241716Y761569D01*
X242886Y759541D01*
X244541Y757886D01*
X246569Y756716D01*
X248830Y756110D01*
X251170D01*
X253431Y756716D01*
X255459Y757886D01*
X257114Y759541D01*
X258284Y761569D01*
X258890Y763830D01*
Y766170D01*
X258284Y768431D01*
X257114Y770459D01*
X255459Y772114D01*
X253431Y773284D01*
X251170Y773890D01*
X248830D01*
X247074Y773420D01*
X232587Y787907D01*
X231327Y788749D01*
X229840Y789045D01*
X162973D01*
X162372Y790315D01*
X163280Y791889D01*
X163886Y794150D01*
Y796490D01*
X163280Y798751D01*
X162110Y800779D01*
X160455Y802434D01*
X158428Y803604D01*
X156166Y804210D01*
X153826D01*
X151565Y803604D01*
X149538Y802434D01*
X147882Y800779D01*
X146881Y799045D01*
X110792D01*
X110676Y799022D01*
X109695Y799827D01*
Y820401D01*
X191835Y902541D01*
X194378Y901860D01*
X197022D01*
X199575Y902544D01*
X201865Y903866D01*
X203734Y905735D01*
X205056Y908025D01*
X205740Y910578D01*
Y913222D01*
X205056Y915775D01*
X203734Y918065D01*
X201865Y919934D01*
X199575Y921256D01*
X197022Y921940D01*
X194378D01*
X191825Y921256D01*
X189535Y919934D01*
X187666Y918065D01*
X186344Y915775D01*
X185660Y913222D01*
Y910578D01*
X186341Y908035D01*
X103063Y824757D01*
X102221Y823497D01*
X101925Y822010D01*
Y812370D01*
X100655Y811951D01*
X98682Y813090D01*
X96256Y813740D01*
X93744D01*
X91318Y813090D01*
X89142Y811834D01*
X87366Y810058D01*
X86110Y807882D01*
X85460Y805456D01*
Y802944D01*
X86110Y800518D01*
X87366Y798342D01*
X89142Y796566D01*
X91318Y795310D01*
X93744Y794660D01*
X95738D01*
X96269Y793395D01*
X87013Y784139D01*
X86171Y782879D01*
X85875Y781393D01*
Y766488D01*
X86171Y765001D01*
X87013Y763741D01*
X88501Y762253D01*
X89761Y761411D01*
X90470Y761270D01*
X90345Y760000D01*
X10000D01*
Y1090000D01*
X820000D01*
Y760000D01*
D02*
G37*
G36*
X316535Y980066D02*
X318825Y978744D01*
X321378Y978060D01*
X324022D01*
X326575Y978744D01*
X328865Y980066D01*
X329845Y981047D01*
X331115Y980521D01*
Y951488D01*
X331193Y951097D01*
X330023Y950471D01*
X313885Y966609D01*
Y980921D01*
X315155Y981447D01*
X316535Y980066D01*
D02*
G37*
G36*
X147574Y790216D02*
X147019Y789045D01*
X145562D01*
X144076Y788749D01*
X142816Y787907D01*
X138793Y783885D01*
X118401D01*
X117354Y785699D01*
X115699Y787354D01*
X113671Y788524D01*
X111916Y788995D01*
X111443Y790318D01*
X112401Y791275D01*
X146934D01*
X147574Y790216D01*
D02*
G37*
G36*
X193333Y761173D02*
X192847Y760000D01*
X140903D01*
X140778Y761270D01*
X141487Y761411D01*
X142747Y762253D01*
X151609Y771115D01*
X183391D01*
X193333Y761173D01*
D02*
G37*
G36*
X1030000Y145000D02*
X675000D01*
Y630000D01*
X1030000D01*
Y145000D01*
D02*
G37*
G36*
X496275Y133138D02*
Y128115D01*
X494541Y127114D01*
X492886Y125459D01*
X491716Y123431D01*
X491110Y121170D01*
Y118830D01*
X491716Y116569D01*
X492886Y114541D01*
X494541Y112886D01*
X496569Y111716D01*
X498830Y111110D01*
X501170D01*
X502926Y111580D01*
X531115Y83391D01*
Y60406D01*
X529942Y59920D01*
X488805Y101058D01*
Y127327D01*
X495102Y133624D01*
X496275Y133138D01*
D02*
G37*
G36*
X403248Y59942D02*
X392665Y49359D01*
X390122Y50040D01*
X387478D01*
X384925Y49356D01*
X382635Y48034D01*
X380766Y46165D01*
X379444Y43875D01*
X378760Y41322D01*
Y38678D01*
X379441Y36135D01*
X372351Y29045D01*
X366213D01*
X366045Y30315D01*
X367275Y30644D01*
X369565Y31966D01*
X371434Y33835D01*
X372756Y36125D01*
X373440Y38678D01*
Y41322D01*
X372759Y43865D01*
X390009Y61115D01*
X402762D01*
X403248Y59942D01*
D02*
G37*
G36*
X481035Y125082D02*
Y99448D01*
X481331Y97962D01*
X482173Y96701D01*
X493797Y85078D01*
X493324Y83755D01*
X491569Y83284D01*
X489541Y82114D01*
X487886Y80459D01*
X486978Y78885D01*
X474600D01*
X473113Y78589D01*
X471853Y77747D01*
X443465Y49359D01*
X440922Y50040D01*
X438278D01*
X435725Y49356D01*
X433435Y48034D01*
X431566Y46165D01*
X430244Y43875D01*
X429560Y41322D01*
Y38678D01*
X430244Y36125D01*
X431566Y33835D01*
X433435Y31966D01*
X435725Y30644D01*
X438278Y29960D01*
X440922D01*
X443475Y30644D01*
X445765Y31966D01*
X447634Y33835D01*
X448956Y36125D01*
X449640Y38678D01*
Y41322D01*
X448959Y43865D01*
X476209Y71115D01*
X486978D01*
X487886Y69541D01*
X489541Y67886D01*
X491569Y66716D01*
X493830Y66110D01*
X496170D01*
X498431Y66716D01*
X500459Y67886D01*
X502114Y69541D01*
X503284Y71569D01*
X503755Y73324D01*
X505078Y73797D01*
X526035Y52839D01*
Y23965D01*
X379918D01*
X379432Y25138D01*
X384935Y30641D01*
X387478Y29960D01*
X390122D01*
X392675Y30644D01*
X394965Y31966D01*
X396834Y33835D01*
X398156Y36125D01*
X398840Y38678D01*
Y41322D01*
X398159Y43865D01*
X479862Y125568D01*
X481035Y125082D01*
D02*
G37*
%LPC*%
G36*
X716453Y1081040D02*
X716270D01*
Y1071270D01*
X726040D01*
Y1071453D01*
X725288Y1074261D01*
X723834Y1076779D01*
X721779Y1078834D01*
X719261Y1080288D01*
X716453Y1081040D01*
D02*
G37*
G36*
X477322Y1080040D02*
X477270D01*
Y1071270D01*
X486040D01*
Y1071322D01*
X485356Y1073875D01*
X484034Y1076165D01*
X482165Y1078034D01*
X479875Y1079356D01*
X477322Y1080040D01*
D02*
G37*
G36*
X474730D02*
X474678D01*
X472125Y1079356D01*
X469835Y1078034D01*
X467966Y1076165D01*
X466644Y1073875D01*
X465960Y1071322D01*
Y1071270D01*
X474730D01*
Y1080040D01*
D02*
G37*
G36*
X197922D02*
X197870D01*
Y1071270D01*
X206640D01*
Y1071322D01*
X205956Y1073875D01*
X204634Y1076165D01*
X202765Y1078034D01*
X200475Y1079356D01*
X197922Y1080040D01*
D02*
G37*
G36*
X195330D02*
X195278D01*
X192725Y1079356D01*
X190435Y1078034D01*
X188566Y1076165D01*
X187244Y1073875D01*
X186560Y1071322D01*
Y1071270D01*
X195330D01*
Y1080040D01*
D02*
G37*
G36*
X105040D02*
X96270D01*
Y1071270D01*
X105040D01*
Y1080040D01*
D02*
G37*
G36*
X93730D02*
X84960D01*
Y1071270D01*
X93730D01*
Y1080040D01*
D02*
G37*
G36*
X713730Y1081040D02*
X713547D01*
X710739Y1080288D01*
X708221Y1078834D01*
X706166Y1076779D01*
X704712Y1074261D01*
X703960Y1071453D01*
Y1071270D01*
X713730D01*
Y1081040D01*
D02*
G37*
G36*
X801190Y1079040D02*
X798810D01*
X796511Y1078424D01*
X794449Y1077234D01*
X792766Y1075551D01*
X791576Y1073489D01*
X790960Y1071190D01*
Y1068810D01*
X791576Y1066511D01*
X792766Y1064449D01*
X794449Y1062766D01*
X796511Y1061576D01*
X798810Y1060960D01*
X801190D01*
X803489Y1061576D01*
X805551Y1062766D01*
X807234Y1064449D01*
X808424Y1066511D01*
X809040Y1068810D01*
Y1071190D01*
X808424Y1073489D01*
X807234Y1075551D01*
X805551Y1077234D01*
X803489Y1078424D01*
X801190Y1079040D01*
D02*
G37*
G36*
X486040Y1068730D02*
X477270D01*
Y1059960D01*
X477322D01*
X479875Y1060644D01*
X482165Y1061966D01*
X484034Y1063835D01*
X485356Y1066125D01*
X486040Y1068678D01*
Y1068730D01*
D02*
G37*
G36*
X474730D02*
X465960D01*
Y1068678D01*
X466644Y1066125D01*
X467966Y1063835D01*
X469835Y1061966D01*
X472125Y1060644D01*
X474678Y1059960D01*
X474730D01*
Y1068730D01*
D02*
G37*
G36*
X451922Y1080040D02*
X449278D01*
X446725Y1079356D01*
X444435Y1078034D01*
X442566Y1076165D01*
X441244Y1073875D01*
X440560Y1071322D01*
Y1068678D01*
X441244Y1066125D01*
X442566Y1063835D01*
X444435Y1061966D01*
X446725Y1060644D01*
X449278Y1059960D01*
X451922D01*
X454475Y1060644D01*
X456765Y1061966D01*
X458634Y1063835D01*
X459956Y1066125D01*
X460640Y1068678D01*
Y1071322D01*
X459956Y1073875D01*
X458634Y1076165D01*
X456765Y1078034D01*
X454475Y1079356D01*
X451922Y1080040D01*
D02*
G37*
G36*
X324922D02*
X322278D01*
X319725Y1079356D01*
X317435Y1078034D01*
X315566Y1076165D01*
X314244Y1073875D01*
X313560Y1071322D01*
Y1068678D01*
X314244Y1066125D01*
X315566Y1063835D01*
X317435Y1061966D01*
X319725Y1060644D01*
X322278Y1059960D01*
X324922D01*
X327475Y1060644D01*
X329765Y1061966D01*
X331634Y1063835D01*
X332956Y1066125D01*
X333640Y1068678D01*
Y1071322D01*
X332956Y1073875D01*
X331634Y1076165D01*
X329765Y1078034D01*
X327475Y1079356D01*
X324922Y1080040D01*
D02*
G37*
G36*
X299522D02*
X296878D01*
X294325Y1079356D01*
X292035Y1078034D01*
X290166Y1076165D01*
X288844Y1073875D01*
X288160Y1071322D01*
Y1068678D01*
X288844Y1066125D01*
X290166Y1063835D01*
X292035Y1061966D01*
X294325Y1060644D01*
X296878Y1059960D01*
X299522D01*
X302075Y1060644D01*
X304365Y1061966D01*
X306234Y1063835D01*
X307556Y1066125D01*
X308240Y1068678D01*
Y1071322D01*
X307556Y1073875D01*
X306234Y1076165D01*
X304365Y1078034D01*
X302075Y1079356D01*
X299522Y1080040D01*
D02*
G37*
G36*
X274122D02*
X271478D01*
X268925Y1079356D01*
X266635Y1078034D01*
X264766Y1076165D01*
X263444Y1073875D01*
X262760Y1071322D01*
Y1068678D01*
X263444Y1066125D01*
X264766Y1063835D01*
X266635Y1061966D01*
X268925Y1060644D01*
X271478Y1059960D01*
X274122D01*
X276675Y1060644D01*
X278965Y1061966D01*
X280834Y1063835D01*
X282156Y1066125D01*
X282840Y1068678D01*
Y1071322D01*
X282156Y1073875D01*
X280834Y1076165D01*
X278965Y1078034D01*
X276675Y1079356D01*
X274122Y1080040D01*
D02*
G37*
G36*
X248722D02*
X246078D01*
X243525Y1079356D01*
X241235Y1078034D01*
X239366Y1076165D01*
X238044Y1073875D01*
X237360Y1071322D01*
Y1068678D01*
X238044Y1066125D01*
X239366Y1063835D01*
X241235Y1061966D01*
X243525Y1060644D01*
X246078Y1059960D01*
X248722D01*
X251275Y1060644D01*
X253565Y1061966D01*
X255434Y1063835D01*
X256756Y1066125D01*
X257440Y1068678D01*
Y1071322D01*
X256756Y1073875D01*
X255434Y1076165D01*
X253565Y1078034D01*
X251275Y1079356D01*
X248722Y1080040D01*
D02*
G37*
G36*
X147122D02*
X144478D01*
X141925Y1079356D01*
X139635Y1078034D01*
X137766Y1076165D01*
X136444Y1073875D01*
X135760Y1071322D01*
Y1068678D01*
X136444Y1066125D01*
X137766Y1063835D01*
X139635Y1061966D01*
X141925Y1060644D01*
X144478Y1059960D01*
X147122D01*
X149675Y1060644D01*
X151965Y1061966D01*
X153834Y1063835D01*
X155156Y1066125D01*
X155840Y1068678D01*
Y1071322D01*
X155156Y1073875D01*
X153834Y1076165D01*
X151965Y1078034D01*
X149675Y1079356D01*
X147122Y1080040D01*
D02*
G37*
G36*
X121722D02*
X119078D01*
X116525Y1079356D01*
X114235Y1078034D01*
X112366Y1076165D01*
X111044Y1073875D01*
X110360Y1071322D01*
Y1068678D01*
X111044Y1066125D01*
X112366Y1063835D01*
X114235Y1061966D01*
X116525Y1060644D01*
X119078Y1059960D01*
X121722D01*
X124275Y1060644D01*
X126565Y1061966D01*
X128434Y1063835D01*
X129756Y1066125D01*
X130440Y1068678D01*
Y1071322D01*
X129756Y1073875D01*
X128434Y1076165D01*
X126565Y1078034D01*
X124275Y1079356D01*
X121722Y1080040D01*
D02*
G37*
G36*
X105040Y1068730D02*
X96270D01*
Y1059960D01*
X105040D01*
Y1068730D01*
D02*
G37*
G36*
X93730D02*
X84960D01*
Y1059960D01*
X93730D01*
Y1068730D01*
D02*
G37*
G36*
X751440Y1081040D02*
X729360D01*
Y1058960D01*
X751440D01*
Y1081040D01*
D02*
G37*
G36*
X726040Y1068730D02*
X716270D01*
Y1058960D01*
X716453D01*
X719261Y1059712D01*
X721779Y1061166D01*
X723834Y1063221D01*
X725288Y1065739D01*
X726040Y1068547D01*
Y1068730D01*
D02*
G37*
G36*
X713730D02*
X703960D01*
Y1068547D01*
X704712Y1065739D01*
X706166Y1063221D01*
X708221Y1061166D01*
X710739Y1059712D01*
X713547Y1058960D01*
X713730D01*
Y1068730D01*
D02*
G37*
G36*
X809040Y1053640D02*
X801270D01*
Y1045870D01*
X809040D01*
Y1053640D01*
D02*
G37*
G36*
X798730D02*
X790960D01*
Y1045870D01*
X798730D01*
Y1053640D01*
D02*
G37*
G36*
X615040Y1050540D02*
X596270D01*
Y1041770D01*
X615040D01*
Y1050540D01*
D02*
G37*
G36*
X593730D02*
X574960D01*
Y1041770D01*
X593730D01*
Y1050540D01*
D02*
G37*
G36*
X809040Y1043330D02*
X801270D01*
Y1035560D01*
X809040D01*
Y1043330D01*
D02*
G37*
G36*
X798730D02*
X790960D01*
Y1035560D01*
X798730D01*
Y1043330D01*
D02*
G37*
G36*
X615040Y1039230D02*
X596270D01*
Y1030460D01*
X615040D01*
Y1039230D01*
D02*
G37*
G36*
X593730D02*
X574960D01*
Y1030460D01*
X593730D01*
Y1039230D01*
D02*
G37*
G36*
X556040Y1030040D02*
X547270D01*
Y1011270D01*
X556040D01*
Y1030040D01*
D02*
G37*
G36*
X544730D02*
X535960D01*
Y1011270D01*
X544730D01*
Y1030040D01*
D02*
G37*
G36*
X556040Y1008730D02*
X547270D01*
Y989960D01*
X556040D01*
Y1008730D01*
D02*
G37*
G36*
X544730D02*
X535960D01*
Y989960D01*
X544730D01*
Y1008730D01*
D02*
G37*
G36*
X296030Y998140D02*
X295978D01*
X293425Y997456D01*
X291135Y996134D01*
X289266Y994265D01*
X287944Y991975D01*
X287260Y989422D01*
Y989370D01*
X296030D01*
Y998140D01*
D02*
G37*
G36*
X476422D02*
X473778D01*
X471225Y997456D01*
X468935Y996134D01*
X467066Y994265D01*
X465744Y991975D01*
X465060Y989422D01*
Y986778D01*
X465744Y984225D01*
X467066Y981935D01*
X468935Y980066D01*
X471225Y978744D01*
X473778Y978060D01*
X476422D01*
X478975Y978744D01*
X481265Y980066D01*
X483134Y981935D01*
X484456Y984225D01*
X485140Y986778D01*
Y989422D01*
X484456Y991975D01*
X483134Y994265D01*
X481265Y996134D01*
X478975Y997456D01*
X476422Y998140D01*
D02*
G37*
G36*
X451022D02*
X448378D01*
X445825Y997456D01*
X443535Y996134D01*
X441666Y994265D01*
X440344Y991975D01*
X439660Y989422D01*
Y986778D01*
X440344Y984225D01*
X441666Y981935D01*
X443535Y980066D01*
X445825Y978744D01*
X448378Y978060D01*
X451022D01*
X453575Y978744D01*
X455865Y980066D01*
X457734Y981935D01*
X459056Y984225D01*
X459740Y986778D01*
Y989422D01*
X459056Y991975D01*
X457734Y994265D01*
X455865Y996134D01*
X453575Y997456D01*
X451022Y998140D01*
D02*
G37*
G36*
X400222D02*
X397578D01*
X395025Y997456D01*
X392735Y996134D01*
X390866Y994265D01*
X389544Y991975D01*
X388860Y989422D01*
Y986778D01*
X389544Y984225D01*
X390866Y981935D01*
X392735Y980066D01*
X395025Y978744D01*
X397578Y978060D01*
X400222D01*
X402775Y978744D01*
X405065Y980066D01*
X406934Y981935D01*
X408256Y984225D01*
X408940Y986778D01*
Y989422D01*
X408256Y991975D01*
X406934Y994265D01*
X405065Y996134D01*
X402775Y997456D01*
X400222Y998140D01*
D02*
G37*
G36*
X296030Y986830D02*
X287260D01*
Y986778D01*
X287944Y984225D01*
X289266Y981935D01*
X291135Y980066D01*
X293425Y978744D01*
X295978Y978060D01*
X296030D01*
Y986830D01*
D02*
G37*
G36*
X273222Y998140D02*
X270578D01*
X268025Y997456D01*
X265735Y996134D01*
X263866Y994265D01*
X262544Y991975D01*
X261860Y989422D01*
Y986778D01*
X262544Y984225D01*
X263866Y981935D01*
X265735Y980066D01*
X268025Y978744D01*
X270578Y978060D01*
X273222D01*
X275775Y978744D01*
X278065Y980066D01*
X279934Y981935D01*
X281256Y984225D01*
X281940Y986778D01*
Y989422D01*
X281256Y991975D01*
X279934Y994265D01*
X278065Y996134D01*
X275775Y997456D01*
X273222Y998140D01*
D02*
G37*
G36*
X247822D02*
X245178D01*
X242625Y997456D01*
X240335Y996134D01*
X238466Y994265D01*
X237144Y991975D01*
X236460Y989422D01*
Y986778D01*
X237144Y984225D01*
X238466Y981935D01*
X240335Y980066D01*
X242625Y978744D01*
X245178Y978060D01*
X247822D01*
X250375Y978744D01*
X252665Y980066D01*
X254534Y981935D01*
X255856Y984225D01*
X256540Y986778D01*
Y989422D01*
X255856Y991975D01*
X254534Y994265D01*
X252665Y996134D01*
X250375Y997456D01*
X247822Y998140D01*
D02*
G37*
G36*
X222422D02*
X219778D01*
X217225Y997456D01*
X214935Y996134D01*
X213066Y994265D01*
X211744Y991975D01*
X211060Y989422D01*
Y986778D01*
X211744Y984225D01*
X213066Y981935D01*
X214935Y980066D01*
X217225Y978744D01*
X219778Y978060D01*
X222422D01*
X224975Y978744D01*
X227265Y980066D01*
X229134Y981935D01*
X230456Y984225D01*
X231140Y986778D01*
Y989422D01*
X230456Y991975D01*
X229134Y994265D01*
X227265Y996134D01*
X224975Y997456D01*
X222422Y998140D01*
D02*
G37*
G36*
X197022D02*
X194378D01*
X191825Y997456D01*
X189535Y996134D01*
X187666Y994265D01*
X186344Y991975D01*
X185660Y989422D01*
Y986778D01*
X186344Y984225D01*
X187666Y981935D01*
X189535Y980066D01*
X191825Y978744D01*
X194378Y978060D01*
X197022D01*
X199575Y978744D01*
X201865Y980066D01*
X203734Y981935D01*
X205056Y984225D01*
X205740Y986778D01*
Y989422D01*
X205056Y991975D01*
X203734Y994265D01*
X201865Y996134D01*
X199575Y997456D01*
X197022Y998140D01*
D02*
G37*
G36*
X171622D02*
X168978D01*
X166425Y997456D01*
X164135Y996134D01*
X162266Y994265D01*
X160944Y991975D01*
X160260Y989422D01*
Y986778D01*
X160944Y984225D01*
X162266Y981935D01*
X164135Y980066D01*
X166425Y978744D01*
X168978Y978060D01*
X171622D01*
X174175Y978744D01*
X176465Y980066D01*
X178334Y981935D01*
X179656Y984225D01*
X180340Y986778D01*
Y989422D01*
X179656Y991975D01*
X178334Y994265D01*
X176465Y996134D01*
X174175Y997456D01*
X171622Y998140D01*
D02*
G37*
G36*
X146222D02*
X143578D01*
X141025Y997456D01*
X138735Y996134D01*
X136866Y994265D01*
X135544Y991975D01*
X134860Y989422D01*
Y986778D01*
X135544Y984225D01*
X136866Y981935D01*
X138735Y980066D01*
X141025Y978744D01*
X143578Y978060D01*
X146222D01*
X148775Y978744D01*
X151065Y980066D01*
X152934Y981935D01*
X154256Y984225D01*
X154940Y986778D01*
Y989422D01*
X154256Y991975D01*
X152934Y994265D01*
X151065Y996134D01*
X148775Y997456D01*
X146222Y998140D01*
D02*
G37*
G36*
X617540Y990540D02*
X572460D01*
Y970460D01*
X617540D01*
Y990540D01*
D02*
G37*
G36*
X691053Y1081040D02*
X688147D01*
X685339Y1080288D01*
X682821Y1078834D01*
X680766Y1076779D01*
X679312Y1074261D01*
X678560Y1071453D01*
Y1068547D01*
X679312Y1065739D01*
X679473Y1065460D01*
Y988794D01*
X642839Y952161D01*
X641230Y950063D01*
X640218Y947621D01*
X639873Y945000D01*
X640218Y942379D01*
X641230Y939937D01*
X642839Y937839D01*
X644937Y936230D01*
X647379Y935218D01*
X650000Y934873D01*
X652621Y935218D01*
X655063Y936230D01*
X657161Y937839D01*
X696760Y977439D01*
X696761Y977439D01*
X698370Y979537D01*
X699381Y981979D01*
X699727Y984600D01*
Y1065460D01*
X699888Y1065739D01*
X700640Y1068547D01*
Y1071453D01*
X699888Y1074261D01*
X698434Y1076779D01*
X696379Y1078834D01*
X693861Y1080288D01*
X691053Y1081040D01*
D02*
G37*
G36*
X324022Y921940D02*
X323970D01*
Y913170D01*
X332740D01*
Y913222D01*
X332056Y915775D01*
X330734Y918065D01*
X328865Y919934D01*
X326575Y921256D01*
X324022Y921940D01*
D02*
G37*
G36*
X321430D02*
X321378D01*
X318825Y921256D01*
X316535Y919934D01*
X314666Y918065D01*
X313344Y915775D01*
X312660Y913222D01*
Y913170D01*
X321430D01*
Y921940D01*
D02*
G37*
G36*
X154940D02*
X134860D01*
Y909685D01*
X103773D01*
X102634Y911658D01*
X100858Y913434D01*
X98682Y914690D01*
X96256Y915340D01*
X93744D01*
X91318Y914690D01*
X89142Y913434D01*
X87366Y911658D01*
X86110Y909482D01*
X85460Y907056D01*
Y904544D01*
X86110Y902118D01*
X87366Y899942D01*
X89142Y898166D01*
X91318Y896910D01*
X93744Y896260D01*
X96256D01*
X98682Y896910D01*
X100858Y898166D01*
X102634Y899942D01*
X103773Y901915D01*
X134860D01*
Y901860D01*
X154940D01*
Y921940D01*
D02*
G37*
G36*
X55040Y925040D02*
X34960D01*
Y904960D01*
X55040D01*
Y925040D01*
D02*
G37*
G36*
X374822Y921940D02*
X372178D01*
X369625Y921256D01*
X367335Y919934D01*
X365466Y918065D01*
X364144Y915775D01*
X363460Y913222D01*
Y910578D01*
X364144Y908025D01*
X365466Y905735D01*
X367335Y903866D01*
X369625Y902544D01*
X372178Y901860D01*
X374822D01*
X377375Y902544D01*
X379665Y903866D01*
X381534Y905735D01*
X382856Y908025D01*
X383540Y910578D01*
Y913222D01*
X382856Y915775D01*
X381534Y918065D01*
X379665Y919934D01*
X377375Y921256D01*
X374822Y921940D01*
D02*
G37*
G36*
X349422D02*
X346778D01*
X344225Y921256D01*
X341935Y919934D01*
X340066Y918065D01*
X338744Y915775D01*
X338060Y913222D01*
Y910578D01*
X338744Y908025D01*
X340066Y905735D01*
X341935Y903866D01*
X344225Y902544D01*
X346778Y901860D01*
X349422D01*
X351975Y902544D01*
X354265Y903866D01*
X356134Y905735D01*
X357456Y908025D01*
X358140Y910578D01*
Y913222D01*
X357456Y915775D01*
X356134Y918065D01*
X354265Y919934D01*
X351975Y921256D01*
X349422Y921940D01*
D02*
G37*
G36*
X332740Y910630D02*
X323970D01*
Y901860D01*
X324022D01*
X326575Y902544D01*
X328865Y903866D01*
X330734Y905735D01*
X332056Y908025D01*
X332740Y910578D01*
Y910630D01*
D02*
G37*
G36*
X321430D02*
X312660D01*
Y910578D01*
X313344Y908025D01*
X314666Y905735D01*
X316535Y903866D01*
X318825Y902544D01*
X321378Y901860D01*
X321430D01*
Y910630D01*
D02*
G37*
G36*
X298622Y921940D02*
X295978D01*
X293425Y921256D01*
X291135Y919934D01*
X289266Y918065D01*
X287944Y915775D01*
X287260Y913222D01*
Y910578D01*
X287944Y908025D01*
X289266Y905735D01*
X291135Y903866D01*
X293425Y902544D01*
X295978Y901860D01*
X298622D01*
X301175Y902544D01*
X303465Y903866D01*
X305334Y905735D01*
X306656Y908025D01*
X307340Y910578D01*
Y913222D01*
X306656Y915775D01*
X305334Y918065D01*
X303465Y919934D01*
X301175Y921256D01*
X298622Y921940D01*
D02*
G37*
G36*
X171622D02*
X168978D01*
X166425Y921256D01*
X164135Y919934D01*
X162266Y918065D01*
X160944Y915775D01*
X160260Y913222D01*
Y910578D01*
X160944Y908025D01*
X162266Y905735D01*
X164135Y903866D01*
X166425Y902544D01*
X168978Y901860D01*
X171622D01*
X174175Y902544D01*
X176465Y903866D01*
X178334Y905735D01*
X179656Y908025D01*
X180340Y910578D01*
Y913222D01*
X179656Y915775D01*
X178334Y918065D01*
X176465Y919934D01*
X174175Y921256D01*
X171622Y921940D01*
D02*
G37*
G36*
X46322Y899640D02*
X43678D01*
X41125Y898956D01*
X38835Y897634D01*
X36966Y895765D01*
X35644Y893475D01*
X34960Y890922D01*
Y888278D01*
X35644Y885725D01*
X36966Y883435D01*
X38835Y881566D01*
X41125Y880244D01*
X43678Y879560D01*
X46322D01*
X48875Y880244D01*
X51165Y881566D01*
X53034Y883435D01*
X54356Y885725D01*
X55040Y888278D01*
Y890922D01*
X54356Y893475D01*
X53034Y895765D01*
X51165Y897634D01*
X48875Y898956D01*
X46322Y899640D01*
D02*
G37*
G36*
X772220Y922540D02*
X767780D01*
X763425Y921674D01*
X759323Y919975D01*
X755632Y917508D01*
X752492Y914368D01*
X750025Y910677D01*
X748326Y906575D01*
X747460Y902220D01*
Y897780D01*
X748326Y893425D01*
X750025Y889323D01*
X752492Y885632D01*
X755632Y882492D01*
X759323Y880025D01*
X763425Y878326D01*
X767780Y877460D01*
X772220D01*
X776575Y878326D01*
X780677Y880025D01*
X784368Y882492D01*
X787508Y885632D01*
X789975Y889323D01*
X791674Y893425D01*
X792540Y897780D01*
Y902220D01*
X791674Y906575D01*
X789975Y910677D01*
X787508Y914368D01*
X784368Y917508D01*
X780677Y919975D01*
X776575Y921674D01*
X772220Y922540D01*
D02*
G37*
G36*
X706256Y895340D02*
X703744D01*
X701318Y894690D01*
X699142Y893434D01*
X697366Y891658D01*
X696110Y889482D01*
X695460Y887056D01*
Y884544D01*
X696110Y882118D01*
X697366Y879942D01*
X699142Y878166D01*
X701318Y876910D01*
X703744Y876260D01*
X706256D01*
X708682Y876910D01*
X710858Y878166D01*
X712634Y879942D01*
X713890Y882118D01*
X714540Y884544D01*
Y887056D01*
X713890Y889482D01*
X712634Y891658D01*
X710858Y893434D01*
X708682Y894690D01*
X706256Y895340D01*
D02*
G37*
G36*
X666256D02*
X663744D01*
X661318Y894690D01*
X659142Y893434D01*
X657366Y891658D01*
X656110Y889482D01*
X655460Y887056D01*
Y884544D01*
X656110Y882118D01*
X657366Y879942D01*
X659142Y878166D01*
X661318Y876910D01*
X663744Y876260D01*
X666256D01*
X668682Y876910D01*
X670858Y878166D01*
X672634Y879942D01*
X673890Y882118D01*
X674540Y884544D01*
Y887056D01*
X673890Y889482D01*
X672634Y891658D01*
X670858Y893434D01*
X668682Y894690D01*
X666256Y895340D01*
D02*
G37*
G36*
X46322Y874240D02*
X43678D01*
X41125Y873556D01*
X38835Y872234D01*
X36966Y870365D01*
X35644Y868075D01*
X34960Y865522D01*
Y862878D01*
X35644Y860325D01*
X36966Y858035D01*
X38835Y856166D01*
X41125Y854844D01*
X43678Y854160D01*
X46322D01*
X48875Y854844D01*
X51165Y856166D01*
X53034Y858035D01*
X54356Y860325D01*
X55040Y862878D01*
Y865522D01*
X54356Y868075D01*
X53034Y870365D01*
X51165Y872234D01*
X48875Y873556D01*
X46322Y874240D01*
D02*
G37*
G36*
X239040Y849040D02*
X231270D01*
Y841270D01*
X239040D01*
Y849040D01*
D02*
G37*
G36*
X228730D02*
X220960D01*
Y841270D01*
X228730D01*
Y849040D01*
D02*
G37*
G36*
X183640D02*
X175870D01*
Y841270D01*
X183640D01*
Y849040D01*
D02*
G37*
G36*
X173330D02*
X165560D01*
Y841270D01*
X173330D01*
Y849040D01*
D02*
G37*
G36*
X367340Y848540D02*
X350260D01*
Y831460D01*
X367340D01*
Y848540D01*
D02*
G37*
G36*
X311124D02*
X308876D01*
X306704Y847958D01*
X304756Y846834D01*
X303166Y845244D01*
X302042Y843296D01*
X301460Y841124D01*
Y838876D01*
X302042Y836704D01*
X303166Y834756D01*
X304756Y833166D01*
X306704Y832042D01*
X308876Y831460D01*
X311124D01*
X313296Y832042D01*
X315244Y833166D01*
X316834Y834756D01*
X317958Y836704D01*
X318540Y838876D01*
Y841124D01*
X317958Y843296D01*
X316834Y845244D01*
X315244Y846834D01*
X313296Y847958D01*
X311124Y848540D01*
D02*
G37*
G36*
X256590Y849040D02*
X254210D01*
X251911Y848424D01*
X249849Y847234D01*
X248166Y845551D01*
X246976Y843489D01*
X246360Y841190D01*
Y838810D01*
X246976Y836511D01*
X248166Y834449D01*
X249849Y832766D01*
X251911Y831576D01*
X254210Y830960D01*
X256590D01*
X258889Y831576D01*
X260951Y832766D01*
X262634Y834449D01*
X263824Y836511D01*
X264440Y838810D01*
Y841190D01*
X263824Y843489D01*
X262634Y845551D01*
X260951Y847234D01*
X258889Y848424D01*
X256590Y849040D01*
D02*
G37*
G36*
X239040Y838730D02*
X231270D01*
Y830960D01*
X239040D01*
Y838730D01*
D02*
G37*
G36*
X228730D02*
X220960D01*
Y830960D01*
X228730D01*
Y838730D01*
D02*
G37*
G36*
X201190Y849040D02*
X198810D01*
X196511Y848424D01*
X194449Y847234D01*
X192766Y845551D01*
X191576Y843489D01*
X190960Y841190D01*
Y838810D01*
X191576Y836511D01*
X192766Y834449D01*
X194449Y832766D01*
X196511Y831576D01*
X198810Y830960D01*
X201190D01*
X203489Y831576D01*
X205551Y832766D01*
X207234Y834449D01*
X208424Y836511D01*
X209040Y838810D01*
Y841190D01*
X208424Y843489D01*
X207234Y845551D01*
X205551Y847234D01*
X203489Y848424D01*
X201190Y849040D01*
D02*
G37*
G36*
X183640Y838730D02*
X175870D01*
Y830960D01*
X183640D01*
Y838730D01*
D02*
G37*
G36*
X173330D02*
X165560D01*
Y830960D01*
X173330D01*
Y838730D01*
D02*
G37*
G36*
X46322Y848840D02*
X43678D01*
X41125Y848156D01*
X38835Y846834D01*
X36966Y844965D01*
X35644Y842675D01*
X34960Y840122D01*
Y837478D01*
X35644Y834925D01*
X36966Y832635D01*
X38835Y830766D01*
X41125Y829444D01*
X43678Y828760D01*
X46322D01*
X48875Y829444D01*
X51165Y830766D01*
X53034Y832635D01*
X54356Y834925D01*
X55040Y837478D01*
Y840122D01*
X54356Y842675D01*
X53034Y844965D01*
X51165Y846834D01*
X48875Y848156D01*
X46322Y848840D01*
D02*
G37*
G36*
X795290Y825690D02*
X786270D01*
Y816670D01*
X795290D01*
Y825690D01*
D02*
G37*
G36*
X783730D02*
X774710D01*
Y816670D01*
X783730D01*
Y825690D01*
D02*
G37*
G36*
X795290Y814130D02*
X786270D01*
Y805110D01*
X795290D01*
Y814130D01*
D02*
G37*
G36*
X783730D02*
X774710D01*
Y805110D01*
X783730D01*
Y814130D01*
D02*
G37*
G36*
X46322Y823440D02*
X43678D01*
X41125Y822756D01*
X38835Y821434D01*
X36966Y819565D01*
X35644Y817275D01*
X34960Y814722D01*
Y812078D01*
X35644Y809525D01*
X36966Y807235D01*
X38835Y805366D01*
X41125Y804044D01*
X43678Y803360D01*
X46322D01*
X48875Y804044D01*
X51165Y805366D01*
X53034Y807235D01*
X54356Y809525D01*
X55040Y812078D01*
Y814722D01*
X54356Y817275D01*
X53034Y819565D01*
X51165Y821434D01*
X48875Y822756D01*
X46322Y823440D01*
D02*
G37*
G36*
X666270Y793736D02*
Y785470D01*
X674536D01*
X673890Y787882D01*
X672634Y790058D01*
X670858Y791834D01*
X668682Y793090D01*
X666270Y793736D01*
D02*
G37*
G36*
X663730Y793736D02*
X661318Y793090D01*
X659142Y791834D01*
X657366Y790058D01*
X656110Y787882D01*
X655464Y785470D01*
X663730D01*
Y793736D01*
D02*
G37*
G36*
X786355Y800290D02*
X783645D01*
X781028Y799589D01*
X778682Y798234D01*
X776766Y796318D01*
X775411Y793972D01*
X774710Y791355D01*
Y788645D01*
X775411Y786028D01*
X776766Y783682D01*
X778682Y781766D01*
X781028Y780411D01*
X783645Y779710D01*
X786355D01*
X788972Y780411D01*
X791318Y781766D01*
X793234Y783682D01*
X794589Y786028D01*
X795290Y788645D01*
Y791355D01*
X794589Y793972D01*
X793234Y796318D01*
X791318Y798234D01*
X788972Y799589D01*
X786355Y800290D01*
D02*
G37*
G36*
X674536Y782930D02*
X666270D01*
Y774664D01*
X668682Y775310D01*
X670858Y776566D01*
X672634Y778342D01*
X673890Y780518D01*
X674536Y782930D01*
D02*
G37*
G36*
X663730D02*
X655464D01*
X656110Y780518D01*
X657366Y778342D01*
X659142Y776566D01*
X661318Y775310D01*
X663730Y774664D01*
Y782930D01*
D02*
G37*
G36*
X706256Y793740D02*
X703744D01*
X701318Y793090D01*
X699142Y791834D01*
X697366Y790058D01*
X696110Y787882D01*
X695460Y785456D01*
Y782944D01*
X696110Y780518D01*
X697366Y778342D01*
X699142Y776566D01*
X701318Y775310D01*
X703744Y774660D01*
X706256D01*
X708682Y775310D01*
X710858Y776566D01*
X712634Y778342D01*
X713890Y780518D01*
X714540Y782944D01*
Y785456D01*
X713890Y787882D01*
X712634Y790058D01*
X710858Y791834D01*
X708682Y793090D01*
X706256Y793740D01*
D02*
G37*
G36*
X611170Y743890D02*
X608830D01*
X606569Y743284D01*
X604541Y742114D01*
X602886Y740459D01*
X601716Y738431D01*
X601110Y736170D01*
Y733830D01*
X601716Y731569D01*
X602886Y729541D01*
X604541Y727886D01*
X605965Y727064D01*
Y661894D01*
X604303Y660934D01*
X602666Y659297D01*
X601509Y657293D01*
X600910Y655057D01*
Y652743D01*
X601509Y650507D01*
X602666Y648503D01*
X604303Y646866D01*
X606307Y645709D01*
X608543Y645110D01*
X610857D01*
X613093Y645709D01*
X615097Y646866D01*
X616734Y648503D01*
X617891Y650507D01*
X618490Y652743D01*
Y655057D01*
X617891Y657293D01*
X616734Y659297D01*
X615097Y660934D01*
X613735Y661720D01*
Y726891D01*
X615459Y727886D01*
X617114Y729541D01*
X618284Y731569D01*
X618890Y733830D01*
Y736170D01*
X618284Y738431D01*
X617114Y740459D01*
X615459Y742114D01*
X613431Y743284D01*
X611170Y743890D01*
D02*
G37*
G36*
X539090Y662690D02*
X521510D01*
Y645110D01*
X539090D01*
Y662690D01*
D02*
G37*
G36*
X610857Y637290D02*
X608543D01*
X606307Y636691D01*
X604303Y635534D01*
X602666Y633897D01*
X601509Y631893D01*
X601104Y630381D01*
X600108Y630183D01*
X598847Y629341D01*
X547253Y577747D01*
X546411Y576487D01*
X546115Y575000D01*
Y397409D01*
X538457Y389750D01*
X536256Y390340D01*
X533744D01*
X531318Y389690D01*
X529142Y388434D01*
X527366Y386658D01*
X526110Y384482D01*
X525460Y382056D01*
Y379544D01*
X526110Y377118D01*
X527366Y374942D01*
X529142Y373166D01*
X531318Y371910D01*
X533744Y371260D01*
X536256D01*
X538682Y371910D01*
X540858Y373166D01*
X542634Y374942D01*
X543890Y377118D01*
X544540Y379544D01*
Y382056D01*
X543950Y384257D01*
X552747Y393053D01*
X553589Y394313D01*
X553885Y395800D01*
Y573391D01*
X603131Y622638D01*
X604303Y621466D01*
X606307Y620309D01*
X608543Y619710D01*
X610857D01*
X613093Y620309D01*
X615097Y621466D01*
X616734Y623103D01*
X617891Y625107D01*
X618490Y627343D01*
Y629657D01*
X617891Y631893D01*
X616734Y633897D01*
X615097Y635534D01*
X613093Y636691D01*
X610857Y637290D01*
D02*
G37*
G36*
X531457D02*
X529143D01*
X526907Y636691D01*
X524903Y635534D01*
X523266Y633897D01*
X522109Y631893D01*
X521510Y629657D01*
Y627343D01*
X522109Y625107D01*
X523266Y623103D01*
X524903Y621466D01*
X526907Y620309D01*
X529143Y619710D01*
X531457D01*
X533693Y620309D01*
X535697Y621466D01*
X537334Y623103D01*
X538491Y625107D01*
X539090Y627343D01*
Y629657D01*
X538491Y631893D01*
X537334Y633897D01*
X535697Y635534D01*
X533693Y636691D01*
X531457Y637290D01*
D02*
G37*
G36*
X610857Y611890D02*
X608543D01*
X606307Y611291D01*
X604303Y610134D01*
X602666Y608497D01*
X601509Y606493D01*
X600910Y604257D01*
Y601943D01*
X601024Y601518D01*
X567253Y567747D01*
X566411Y566487D01*
X566115Y565000D01*
Y389573D01*
X564142Y388434D01*
X562366Y386658D01*
X561110Y384482D01*
X560460Y382056D01*
Y379544D01*
X561110Y377118D01*
X562366Y374942D01*
X564142Y373166D01*
X566318Y371910D01*
X568744Y371260D01*
X571256D01*
X573682Y371910D01*
X575858Y373166D01*
X577634Y374942D01*
X578890Y377118D01*
X579540Y379544D01*
Y382056D01*
X578890Y384482D01*
X577634Y386658D01*
X575858Y388434D01*
X573885Y389573D01*
Y563391D01*
X605734Y595240D01*
X606307Y594909D01*
X608543Y594310D01*
X610857D01*
X613093Y594909D01*
X615097Y596066D01*
X616734Y597703D01*
X617891Y599707D01*
X618490Y601943D01*
Y604257D01*
X617891Y606493D01*
X616734Y608497D01*
X615097Y610134D01*
X613093Y611291D01*
X610857Y611890D01*
D02*
G37*
G36*
X531457D02*
X529143D01*
X526907Y611291D01*
X524903Y610134D01*
X523266Y608497D01*
X522109Y606493D01*
X521510Y604257D01*
Y601943D01*
X522109Y599707D01*
X523266Y597703D01*
X524903Y596066D01*
X526907Y594909D01*
X529143Y594310D01*
X531457D01*
X533693Y594909D01*
X535697Y596066D01*
X537334Y597703D01*
X538491Y599707D01*
X539090Y601943D01*
Y604257D01*
X538491Y606493D01*
X537334Y608497D01*
X535697Y610134D01*
X533693Y611291D01*
X531457Y611890D01*
D02*
G37*
G36*
X311722Y580040D02*
X311670D01*
Y571270D01*
X320440D01*
Y571322D01*
X319756Y573875D01*
X318434Y576165D01*
X316565Y578034D01*
X314275Y579356D01*
X311722Y580040D01*
D02*
G37*
G36*
X309130D02*
X309078D01*
X306525Y579356D01*
X304235Y578034D01*
X302366Y576165D01*
X301044Y573875D01*
X300360Y571322D01*
Y571270D01*
X309130D01*
Y580040D01*
D02*
G37*
G36*
X610857Y586490D02*
X608543D01*
X606307Y585891D01*
X604303Y584734D01*
X602666Y583097D01*
X601509Y581093D01*
X600910Y578857D01*
Y576543D01*
X601509Y574307D01*
X602666Y572303D01*
X604303Y570666D01*
X606307Y569509D01*
X608543Y568910D01*
X610857D01*
X613093Y569509D01*
X615097Y570666D01*
X616734Y572303D01*
X617891Y574307D01*
X618490Y576543D01*
Y578857D01*
X617891Y581093D01*
X616734Y583097D01*
X615097Y584734D01*
X613093Y585891D01*
X610857Y586490D01*
D02*
G37*
G36*
X531457D02*
X529143D01*
X526907Y585891D01*
X524903Y584734D01*
X523266Y583097D01*
X522109Y581093D01*
X521510Y578857D01*
Y576543D01*
X522109Y574307D01*
X523266Y572303D01*
X524903Y570666D01*
X526907Y569509D01*
X529143Y568910D01*
X531457D01*
X533693Y569509D01*
X535697Y570666D01*
X537334Y572303D01*
X538491Y574307D01*
X539090Y576543D01*
Y578857D01*
X538491Y581093D01*
X537334Y583097D01*
X535697Y584734D01*
X533693Y585891D01*
X531457Y586490D01*
D02*
G37*
G36*
X320440Y568730D02*
X311670D01*
Y559960D01*
X311722D01*
X314275Y560644D01*
X316565Y561966D01*
X318434Y563835D01*
X319756Y566125D01*
X320440Y568678D01*
Y568730D01*
D02*
G37*
G36*
X309130D02*
X300360D01*
Y568678D01*
X301044Y566125D01*
X302366Y563835D01*
X304235Y561966D01*
X306525Y560644D01*
X309078Y559960D01*
X309130D01*
Y568730D01*
D02*
G37*
G36*
X286322Y580040D02*
X283678D01*
X281125Y579356D01*
X278835Y578034D01*
X276966Y576165D01*
X275644Y573875D01*
X274960Y571322D01*
Y568678D01*
X275644Y566125D01*
X276966Y563835D01*
X278835Y561966D01*
X281125Y560644D01*
X283678Y559960D01*
X286322D01*
X288875Y560644D01*
X291165Y561966D01*
X293034Y563835D01*
X294356Y566125D01*
X295040Y568678D01*
Y571322D01*
X294356Y573875D01*
X293034Y576165D01*
X291165Y578034D01*
X288875Y579356D01*
X286322Y580040D01*
D02*
G37*
G36*
X260922D02*
X258278D01*
X255725Y579356D01*
X253435Y578034D01*
X251566Y576165D01*
X250244Y573875D01*
X249560Y571322D01*
Y568678D01*
X250244Y566125D01*
X251566Y563835D01*
X253435Y561966D01*
X255725Y560644D01*
X258278Y559960D01*
X260922D01*
X263475Y560644D01*
X265765Y561966D01*
X267634Y563835D01*
X268956Y566125D01*
X269640Y568678D01*
Y571322D01*
X268956Y573875D01*
X267634Y576165D01*
X265765Y578034D01*
X263475Y579356D01*
X260922Y580040D01*
D02*
G37*
G36*
X371240D02*
X351160D01*
Y565454D01*
X339591Y553885D01*
X290000D01*
X288513Y553589D01*
X287253Y552747D01*
X279048Y544542D01*
X277552Y544699D01*
X277114Y545459D01*
X275459Y547114D01*
X273431Y548284D01*
X271170Y548890D01*
X268830D01*
X266569Y548284D01*
X264541Y547114D01*
X262886Y545459D01*
X261716Y543431D01*
X261110Y541170D01*
Y538830D01*
X261716Y536569D01*
X262886Y534541D01*
X264541Y532886D01*
X266569Y531716D01*
X268830Y531110D01*
X271170D01*
X273431Y531716D01*
X275459Y532886D01*
X277114Y534541D01*
X278115Y536275D01*
X280160D01*
X281647Y536571D01*
X282907Y537413D01*
X291609Y546115D01*
X341200D01*
X342687Y546411D01*
X343947Y547253D01*
X356654Y559960D01*
X371240D01*
Y580040D01*
D02*
G37*
G36*
X610857Y561090D02*
X608543D01*
X606307Y560491D01*
X604303Y559334D01*
X602666Y557697D01*
X601509Y555693D01*
X600910Y553457D01*
Y551143D01*
X601362Y549456D01*
X587253Y535347D01*
X586411Y534087D01*
X586115Y532600D01*
Y415000D01*
X586411Y413513D01*
X587253Y412253D01*
X601115Y398391D01*
Y389573D01*
X599142Y388434D01*
X597366Y386658D01*
X596110Y384482D01*
X595460Y382056D01*
Y379544D01*
X596110Y377118D01*
X597366Y374942D01*
X599142Y373166D01*
X601318Y371910D01*
X603744Y371260D01*
X606256D01*
X608682Y371910D01*
X610858Y373166D01*
X612634Y374942D01*
X613890Y377118D01*
X614540Y379544D01*
Y382056D01*
X613890Y384482D01*
X612634Y386658D01*
X610858Y388434D01*
X608885Y389573D01*
Y400000D01*
X608589Y401487D01*
X607747Y402747D01*
X593885Y416609D01*
Y530991D01*
X606856Y543962D01*
X608543Y543510D01*
X610857D01*
X613093Y544109D01*
X615097Y545266D01*
X616734Y546903D01*
X617891Y548907D01*
X618490Y551143D01*
Y553457D01*
X617891Y555693D01*
X616734Y557697D01*
X615097Y559334D01*
X613093Y560491D01*
X610857Y561090D01*
D02*
G37*
G36*
X531457D02*
X529143D01*
X526907Y560491D01*
X524903Y559334D01*
X523266Y557697D01*
X522109Y555693D01*
X521510Y553457D01*
Y551143D01*
X522109Y548907D01*
X523266Y546903D01*
X524903Y545266D01*
X526907Y544109D01*
X529143Y543510D01*
X531457D01*
X533693Y544109D01*
X535697Y545266D01*
X537334Y546903D01*
X538491Y548907D01*
X539090Y551143D01*
Y553457D01*
X538491Y555693D01*
X537334Y557697D01*
X535697Y559334D01*
X533693Y560491D01*
X531457Y561090D01*
D02*
G37*
G36*
X531570Y535660D02*
Y528170D01*
X539060D01*
X538491Y530293D01*
X537334Y532297D01*
X535697Y533934D01*
X533693Y535091D01*
X531570Y535660D01*
D02*
G37*
G36*
X529030D02*
X526907Y535091D01*
X524903Y533934D01*
X523266Y532297D01*
X522109Y530293D01*
X521540Y528170D01*
X529030D01*
Y535660D01*
D02*
G37*
G36*
X346256Y540340D02*
X343744D01*
X341318Y539690D01*
X339142Y538434D01*
X337366Y536658D01*
X336110Y534482D01*
X335460Y532056D01*
Y529544D01*
X336110Y527118D01*
X337366Y524942D01*
X339142Y523166D01*
X341318Y521910D01*
X343744Y521260D01*
X346256D01*
X348682Y521910D01*
X350858Y523166D01*
X352634Y524942D01*
X353890Y527118D01*
X354540Y529544D01*
Y532056D01*
X353890Y534482D01*
X352634Y536658D01*
X350858Y538434D01*
X348682Y539690D01*
X346256Y540340D01*
D02*
G37*
G36*
X316256D02*
X313744D01*
X311318Y539690D01*
X309142Y538434D01*
X307366Y536658D01*
X306110Y534482D01*
X305460Y532056D01*
Y529544D01*
X306110Y527118D01*
X307366Y524942D01*
X309142Y523166D01*
X311318Y521910D01*
X313744Y521260D01*
X316256D01*
X318682Y521910D01*
X320858Y523166D01*
X322634Y524942D01*
X323890Y527118D01*
X324540Y529544D01*
Y532056D01*
X323890Y534482D01*
X322634Y536658D01*
X320858Y538434D01*
X318682Y539690D01*
X316256Y540340D01*
D02*
G37*
G36*
X539060Y525630D02*
X531570D01*
Y518140D01*
X533693Y518709D01*
X535697Y519866D01*
X537334Y521503D01*
X538491Y523507D01*
X539060Y525630D01*
D02*
G37*
G36*
X529030D02*
X521540D01*
X522109Y523507D01*
X523266Y521503D01*
X524903Y519866D01*
X526907Y518709D01*
X529030Y518140D01*
Y525630D01*
D02*
G37*
G36*
X610857Y535690D02*
X608543D01*
X606307Y535091D01*
X604303Y533934D01*
X602666Y532297D01*
X601509Y530293D01*
X600910Y528057D01*
Y525743D01*
X601509Y523507D01*
X602666Y521503D01*
X604303Y519866D01*
X606307Y518709D01*
X608543Y518110D01*
X610857D01*
X613093Y518709D01*
X615097Y519866D01*
X616734Y521503D01*
X617891Y523507D01*
X618490Y525743D01*
Y528057D01*
X617891Y530293D01*
X616734Y532297D01*
X615097Y533934D01*
X613093Y535091D01*
X610857Y535690D01*
D02*
G37*
G36*
X531570Y510260D02*
Y502770D01*
X539060D01*
X538491Y504893D01*
X537334Y506897D01*
X535697Y508534D01*
X533693Y509691D01*
X531570Y510260D01*
D02*
G37*
G36*
X529030D02*
X526907Y509691D01*
X524903Y508534D01*
X523266Y506897D01*
X522109Y504893D01*
X521540Y502770D01*
X529030D01*
Y510260D01*
D02*
G37*
G36*
X539060Y500230D02*
X531570D01*
Y492740D01*
X533693Y493309D01*
X535697Y494466D01*
X537334Y496103D01*
X538491Y498107D01*
X539060Y500230D01*
D02*
G37*
G36*
X529030D02*
X521540D01*
X522109Y498107D01*
X523266Y496103D01*
X524903Y494466D01*
X526907Y493309D01*
X529030Y492740D01*
Y500230D01*
D02*
G37*
G36*
X610857Y510290D02*
X608543D01*
X606307Y509691D01*
X604303Y508534D01*
X602666Y506897D01*
X601509Y504893D01*
X600910Y502657D01*
Y500343D01*
X601509Y498107D01*
X602666Y496103D01*
X604303Y494466D01*
X606307Y493309D01*
X608543Y492710D01*
X610857D01*
X613093Y493309D01*
X615097Y494466D01*
X616734Y496103D01*
X617891Y498107D01*
X618490Y500343D01*
Y502657D01*
X617891Y504893D01*
X616734Y506897D01*
X615097Y508534D01*
X613093Y509691D01*
X610857Y510290D01*
D02*
G37*
G36*
X531570Y484860D02*
Y477370D01*
X539060D01*
X538491Y479493D01*
X537334Y481497D01*
X535697Y483134D01*
X533693Y484291D01*
X531570Y484860D01*
D02*
G37*
G36*
X529030D02*
X526907Y484291D01*
X524903Y483134D01*
X523266Y481497D01*
X522109Y479493D01*
X521540Y477370D01*
X529030D01*
Y484860D01*
D02*
G37*
G36*
X539060Y474830D02*
X531570D01*
Y467340D01*
X533693Y467909D01*
X535697Y469066D01*
X537334Y470703D01*
X538491Y472707D01*
X539060Y474830D01*
D02*
G37*
G36*
X529030D02*
X521540D01*
X522109Y472707D01*
X523266Y470703D01*
X524903Y469066D01*
X526907Y467909D01*
X529030Y467340D01*
Y474830D01*
D02*
G37*
G36*
X610857Y484890D02*
X608543D01*
X606307Y484291D01*
X604303Y483134D01*
X602666Y481497D01*
X601509Y479493D01*
X600910Y477257D01*
Y474943D01*
X601509Y472707D01*
X602666Y470703D01*
X604303Y469066D01*
X606307Y467909D01*
X608543Y467310D01*
X610857D01*
X613093Y467909D01*
X615097Y469066D01*
X616734Y470703D01*
X617891Y472707D01*
X618490Y474943D01*
Y477257D01*
X617891Y479493D01*
X616734Y481497D01*
X615097Y483134D01*
X613093Y484291D01*
X610857Y484890D01*
D02*
G37*
G36*
X346270Y438736D02*
Y430470D01*
X354536D01*
X353890Y432882D01*
X352634Y435058D01*
X350858Y436834D01*
X348682Y438090D01*
X346270Y438736D01*
D02*
G37*
G36*
X343730D02*
X341318Y438090D01*
X339142Y436834D01*
X337366Y435058D01*
X336110Y432882D01*
X335464Y430470D01*
X343730D01*
Y438736D01*
D02*
G37*
G36*
Y427930D02*
X335464D01*
X336110Y425518D01*
X337366Y423342D01*
X339142Y421566D01*
X341318Y420310D01*
X343730Y419664D01*
Y427930D01*
D02*
G37*
G36*
X354536D02*
X346270D01*
Y419664D01*
X348682Y420310D01*
X350858Y421566D01*
X352634Y423342D01*
X353890Y425518D01*
X354536Y427930D01*
D02*
G37*
G36*
X367220Y320000D02*
X362780D01*
X358425Y319134D01*
X354323Y317435D01*
X350632Y314968D01*
X347492Y311828D01*
X345025Y308137D01*
X343326Y304035D01*
X342460Y299680D01*
Y295240D01*
X343326Y290885D01*
X345025Y286783D01*
X347492Y283092D01*
X350632Y279952D01*
X354323Y277485D01*
X358425Y275786D01*
X362780Y274920D01*
X367220D01*
X371575Y275786D01*
X375677Y277485D01*
X379368Y279952D01*
X382508Y283092D01*
X384975Y286783D01*
X386674Y290885D01*
X387540Y295240D01*
Y299680D01*
X386674Y304035D01*
X384975Y308137D01*
X382508Y311828D01*
X379368Y314968D01*
X375677Y317435D01*
X371575Y319134D01*
X367220Y320000D01*
D02*
G37*
G36*
X571256Y288740D02*
X568744D01*
X566318Y288090D01*
X564142Y286834D01*
X562366Y285058D01*
X561110Y282882D01*
X560460Y280456D01*
Y277944D01*
X561110Y275518D01*
X562366Y273342D01*
X564142Y271566D01*
X566318Y270310D01*
X568744Y269660D01*
X571256D01*
X573682Y270310D01*
X575858Y271566D01*
X577634Y273342D01*
X578890Y275518D01*
X579540Y277944D01*
Y280456D01*
X578890Y282882D01*
X577634Y285058D01*
X575858Y286834D01*
X573682Y288090D01*
X571256Y288740D01*
D02*
G37*
G36*
X536256D02*
X533744D01*
X531318Y288090D01*
X529142Y286834D01*
X527366Y285058D01*
X526110Y282882D01*
X525460Y280456D01*
Y277944D01*
X526110Y275518D01*
X527366Y273342D01*
X529142Y271566D01*
X531318Y270310D01*
X533744Y269660D01*
X536256D01*
X538682Y270310D01*
X540858Y271566D01*
X542634Y273342D01*
X543890Y275518D01*
X544540Y277944D01*
Y280456D01*
X543890Y282882D01*
X542634Y285058D01*
X540858Y286834D01*
X538682Y288090D01*
X536256Y288740D01*
D02*
G37*
G36*
X316270Y210336D02*
Y202070D01*
X324536D01*
X323890Y204482D01*
X322634Y206658D01*
X320858Y208434D01*
X318682Y209690D01*
X316270Y210336D01*
D02*
G37*
G36*
X313730D02*
X311318Y209690D01*
X309142Y208434D01*
X307366Y206658D01*
X306110Y204482D01*
X305464Y202070D01*
X313730D01*
Y210336D01*
D02*
G37*
G36*
X281270D02*
Y202070D01*
X289536D01*
X288890Y204482D01*
X287634Y206658D01*
X285858Y208434D01*
X283682Y209690D01*
X281270Y210336D01*
D02*
G37*
G36*
X278730D02*
X276318Y209690D01*
X274142Y208434D01*
X272366Y206658D01*
X271110Y204482D01*
X270464Y202070D01*
X278730D01*
Y210336D01*
D02*
G37*
G36*
X246270D02*
Y202070D01*
X254536D01*
X253890Y204482D01*
X252634Y206658D01*
X250858Y208434D01*
X248682Y209690D01*
X246270Y210336D01*
D02*
G37*
G36*
X243730D02*
X241318Y209690D01*
X239142Y208434D01*
X237366Y206658D01*
X236110Y204482D01*
X235464Y202070D01*
X243730D01*
Y210336D01*
D02*
G37*
G36*
X324536Y199530D02*
X316270D01*
Y191264D01*
X318682Y191910D01*
X320858Y193166D01*
X322634Y194942D01*
X323890Y197118D01*
X324536Y199530D01*
D02*
G37*
G36*
X243730Y199530D02*
X235464D01*
X236110Y197118D01*
X237366Y194942D01*
X239142Y193166D01*
X241318Y191910D01*
X243730Y191264D01*
Y199530D01*
D02*
G37*
G36*
X289536Y199530D02*
X281270D01*
Y191264D01*
X283682Y191910D01*
X285858Y193166D01*
X287634Y194942D01*
X288890Y197118D01*
X289536Y199530D01*
D02*
G37*
G36*
X278730D02*
X270464D01*
X271110Y197118D01*
X272366Y194942D01*
X274142Y193166D01*
X276318Y191910D01*
X278730Y191264D01*
Y199530D01*
D02*
G37*
G36*
X254536Y199530D02*
X246270D01*
Y191264D01*
X248682Y191910D01*
X250858Y193166D01*
X252634Y194942D01*
X253890Y197118D01*
X254536Y199530D01*
D02*
G37*
G36*
X313730Y199530D02*
X305464D01*
X306110Y197118D01*
X307366Y194942D01*
X309142Y193166D01*
X311318Y191910D01*
X313730Y191264D01*
Y199530D01*
D02*
G37*
G36*
X595043Y188490D02*
X593057D01*
X591140Y187976D01*
X589420Y186984D01*
X588545Y186108D01*
X587700Y185724D01*
X586855Y186108D01*
X585980Y186984D01*
X584260Y187976D01*
X582343Y188490D01*
X580357D01*
X578440Y187976D01*
X576720Y186984D01*
X575845Y186108D01*
X575000Y185724D01*
X574155Y186108D01*
X573280Y186984D01*
X571560Y187976D01*
X569920Y188416D01*
Y180950D01*
Y173484D01*
X571560Y173924D01*
X573280Y174916D01*
X574155Y175792D01*
X575000Y176176D01*
X575845Y175792D01*
X576720Y174916D01*
X578440Y173924D01*
X580357Y173410D01*
X582343D01*
X584260Y173924D01*
X585980Y174916D01*
X586855Y175792D01*
X587700Y176176D01*
X588545Y175792D01*
X589420Y174916D01*
X591140Y173924D01*
X593057Y173410D01*
X595043D01*
X596960Y173924D01*
X598680Y174916D01*
X600084Y176320D01*
X601076Y178040D01*
X601590Y179957D01*
Y181943D01*
X601076Y183860D01*
X600084Y185580D01*
X598680Y186984D01*
X596960Y187976D01*
X595043Y188490D01*
D02*
G37*
G36*
X606256Y288740D02*
X603744D01*
X601318Y288090D01*
X599142Y286834D01*
X597366Y285058D01*
X596110Y282882D01*
X595460Y280456D01*
Y277944D01*
X596110Y275518D01*
X597366Y273342D01*
X599142Y271566D01*
X599505Y271357D01*
Y269999D01*
X552253Y222747D01*
X551411Y221487D01*
X551115Y220000D01*
Y188490D01*
X548410D01*
Y173410D01*
X563490D01*
Y173756D01*
X564760Y174489D01*
X565740Y173924D01*
X567380Y173484D01*
Y180950D01*
Y188416D01*
X565740Y187976D01*
X564760Y187411D01*
X563490Y188144D01*
Y188490D01*
X558885D01*
Y218391D01*
X606137Y265643D01*
X606979Y266903D01*
X607275Y268390D01*
Y269933D01*
X608682Y270310D01*
X610858Y271566D01*
X612634Y273342D01*
X613890Y275518D01*
X614540Y277944D01*
Y280456D01*
X613890Y282882D01*
X612634Y285058D01*
X610858Y286834D01*
X608682Y288090D01*
X606256Y288740D01*
D02*
G37*
G36*
X986788Y580540D02*
X986670D01*
Y571270D01*
X995940D01*
Y571388D01*
X995222Y574068D01*
X993834Y576472D01*
X991872Y578434D01*
X989468Y579822D01*
X986788Y580540D01*
D02*
G37*
G36*
X984130D02*
X984012D01*
X981332Y579822D01*
X978928Y578434D01*
X976966Y576472D01*
X975578Y574068D01*
X974860Y571388D01*
Y571270D01*
X984130D01*
Y580540D01*
D02*
G37*
G36*
X751788D02*
X751670D01*
Y571270D01*
X760940D01*
Y571388D01*
X760222Y574068D01*
X758834Y576472D01*
X756872Y578434D01*
X754468Y579822D01*
X751788Y580540D01*
D02*
G37*
G36*
X749130D02*
X749012D01*
X746332Y579822D01*
X743928Y578434D01*
X741966Y576472D01*
X740578Y574068D01*
X739860Y571388D01*
Y571270D01*
X749130D01*
Y580540D01*
D02*
G37*
G36*
X995940Y568730D02*
X986670D01*
Y559460D01*
X986788D01*
X989468Y560178D01*
X991872Y561566D01*
X993834Y563528D01*
X995222Y565932D01*
X995940Y568612D01*
Y568730D01*
D02*
G37*
G36*
X984130D02*
X974860D01*
Y568612D01*
X975578Y565932D01*
X976966Y563528D01*
X978928Y561566D01*
X981332Y560178D01*
X984012Y559460D01*
X984130D01*
Y568730D01*
D02*
G37*
G36*
X961388Y580540D02*
X958612D01*
X955932Y579822D01*
X953528Y578434D01*
X951566Y576472D01*
X950178Y574068D01*
X949460Y571388D01*
Y568612D01*
X950178Y565932D01*
X951566Y563528D01*
X953528Y561566D01*
X955932Y560178D01*
X958612Y559460D01*
X961388D01*
X964068Y560178D01*
X966472Y561566D01*
X968434Y563528D01*
X969822Y565932D01*
X970540Y568612D01*
Y571388D01*
X969822Y574068D01*
X968434Y576472D01*
X966472Y578434D01*
X964068Y579822D01*
X961388Y580540D01*
D02*
G37*
G36*
X760940Y568730D02*
X751670D01*
Y559460D01*
X751788D01*
X754468Y560178D01*
X756872Y561566D01*
X758834Y563528D01*
X760222Y565932D01*
X760940Y568612D01*
Y568730D01*
D02*
G37*
G36*
X726388Y580540D02*
X723612D01*
X720932Y579822D01*
X718528Y578434D01*
X716566Y576472D01*
X715178Y574068D01*
X714460Y571388D01*
Y568612D01*
X715178Y565932D01*
X716566Y563528D01*
X718528Y561566D01*
X720932Y560178D01*
X723612Y559460D01*
X724785D01*
X767395Y516850D01*
Y355680D01*
X767654Y353712D01*
X768414Y351878D01*
X769622Y350302D01*
X770841Y349084D01*
X770315Y347814D01*
X767941D01*
X747097Y368658D01*
X747754Y369797D01*
X749012Y369460D01*
X749130D01*
Y378730D01*
X739860D01*
Y378612D01*
X740197Y377354D01*
X739059Y376697D01*
X735540Y380215D01*
Y381388D01*
X734822Y384068D01*
X733434Y386472D01*
X731472Y388434D01*
X729068Y389822D01*
X726388Y390540D01*
X723612D01*
X720932Y389822D01*
X718528Y388434D01*
X716566Y386472D01*
X715178Y384068D01*
X714460Y381388D01*
Y378612D01*
X715178Y375932D01*
X716566Y373528D01*
X718528Y371566D01*
X720932Y370178D01*
X723612Y369460D01*
X724785D01*
X759414Y334831D01*
X760989Y333623D01*
X762823Y332863D01*
X764791Y332604D01*
X768504D01*
X789136Y311972D01*
X788529Y310782D01*
X786318Y310190D01*
X784142Y308934D01*
X782366Y307158D01*
X781110Y304982D01*
X780460Y302556D01*
Y300044D01*
X781110Y297618D01*
X782366Y295442D01*
X784142Y293666D01*
X786318Y292410D01*
X788744Y291760D01*
X791256D01*
X793682Y292410D01*
X795858Y293666D01*
X797634Y295442D01*
X798890Y297618D01*
X799482Y299829D01*
X800672Y300436D01*
X805685Y295422D01*
X807260Y294214D01*
X809094Y293454D01*
X811063Y293195D01*
X859085D01*
X859353Y291925D01*
X857886Y290459D01*
X856716Y288431D01*
X856110Y286170D01*
Y283830D01*
X856716Y281569D01*
X857395Y280392D01*
Y263152D01*
X856125Y262900D01*
X854975Y265677D01*
X852508Y269368D01*
X849368Y272508D01*
X845677Y274975D01*
X841575Y276674D01*
X837220Y277540D01*
X832780D01*
X828425Y276674D01*
X824323Y274975D01*
X820632Y272508D01*
X817492Y269368D01*
X815025Y265677D01*
X813326Y261575D01*
X812460Y257220D01*
Y252780D01*
X813326Y248425D01*
X815025Y244323D01*
X817492Y240632D01*
X820632Y237492D01*
X824323Y235025D01*
X828425Y233326D01*
X832780Y232460D01*
X837220D01*
X841575Y233326D01*
X845677Y235025D01*
X849368Y237492D01*
X852508Y240632D01*
X854975Y244323D01*
X856125Y247100D01*
X857395Y246848D01*
Y215282D01*
X857654Y213314D01*
X858414Y211480D01*
X859622Y209905D01*
X870460Y199067D01*
Y197944D01*
X871110Y195518D01*
X872366Y193342D01*
X874142Y191566D01*
X876318Y190310D01*
X878744Y189660D01*
X881256D01*
X883682Y190310D01*
X885858Y191566D01*
X887634Y193342D01*
X888890Y195518D01*
X889540Y197944D01*
Y200456D01*
X888890Y202882D01*
X887634Y205058D01*
X885858Y206834D01*
X883682Y208090D01*
X882679Y208359D01*
X872605Y218433D01*
Y280392D01*
X873284Y281569D01*
X873890Y283830D01*
Y286170D01*
X873284Y288431D01*
X872114Y290459D01*
X870647Y291925D01*
X870915Y293195D01*
X874113D01*
X874142Y293166D01*
X876318Y291910D01*
X878744Y291260D01*
X881256D01*
X883682Y291910D01*
X885858Y293166D01*
X887634Y294942D01*
X888890Y297118D01*
X889540Y299544D01*
Y302056D01*
X889331Y302835D01*
X890470Y303493D01*
X895841Y298121D01*
X896110Y297118D01*
X897366Y294942D01*
X899142Y293166D01*
X901318Y291910D01*
X903744Y291260D01*
X906256D01*
X908682Y291910D01*
X910858Y293166D01*
X912634Y294942D01*
X913890Y297118D01*
X914540Y299544D01*
Y302056D01*
X913890Y304482D01*
X912634Y306658D01*
X910858Y308434D01*
X908682Y309690D01*
X906256Y310340D01*
X905133D01*
X894755Y320718D01*
X893180Y321926D01*
X891346Y322686D01*
X889378Y322945D01*
X818490D01*
X782605Y358830D01*
Y520000D01*
X782346Y521968D01*
X781901Y523043D01*
X781586Y523802D01*
X780378Y525378D01*
X747097Y558658D01*
X747754Y559797D01*
X749012Y559460D01*
X749130D01*
Y568730D01*
X739860D01*
Y568612D01*
X740197Y567354D01*
X739059Y566697D01*
X735540Y570215D01*
Y571388D01*
X734822Y574068D01*
X733434Y576472D01*
X731472Y578434D01*
X729068Y579822D01*
X726388Y580540D01*
D02*
G37*
G36*
X888890Y526537D02*
X886510D01*
X884211Y525921D01*
X882149Y524731D01*
X880466Y523048D01*
X879276Y520986D01*
X878660Y518687D01*
Y516307D01*
X879276Y514008D01*
X880466Y511946D01*
X882149Y510263D01*
X884211Y509073D01*
X886510Y508457D01*
X888890D01*
X891189Y509073D01*
X893251Y510263D01*
X894934Y511946D01*
X896124Y514008D01*
X896740Y516307D01*
Y518687D01*
X896124Y520986D01*
X894934Y523048D01*
X893251Y524731D01*
X891189Y525921D01*
X888890Y526537D01*
D02*
G37*
G36*
X876190Y504540D02*
X873810D01*
X871511Y503924D01*
X869449Y502734D01*
X867766Y501051D01*
X866576Y498989D01*
X866548Y498885D01*
X830000D01*
X828513Y498589D01*
X827253Y497747D01*
X817253Y487747D01*
X816411Y486487D01*
X816115Y485000D01*
Y483404D01*
X814845Y482910D01*
X813089Y483924D01*
X810790Y484540D01*
X808410D01*
X806111Y483924D01*
X804049Y482734D01*
X802366Y481051D01*
X801176Y478989D01*
X800560Y476690D01*
Y474310D01*
X801176Y472011D01*
X802366Y469949D01*
X804049Y468266D01*
X806111Y467076D01*
X808410Y466460D01*
X810790D01*
X813089Y467076D01*
X814845Y468090D01*
X816115Y467596D01*
Y438022D01*
X814541Y437114D01*
X812886Y435459D01*
X811716Y433431D01*
X811110Y431170D01*
Y428830D01*
X811716Y426569D01*
X812886Y424541D01*
X814541Y422886D01*
X816569Y421716D01*
X818830Y421110D01*
X821170D01*
X823431Y421716D01*
X825459Y422886D01*
X827114Y424541D01*
X828284Y426569D01*
X828890Y428830D01*
Y431170D01*
X828284Y433431D01*
X827114Y435459D01*
X825459Y437114D01*
X823885Y438022D01*
Y483391D01*
X831609Y491115D01*
X867093D01*
X867766Y489949D01*
X869449Y488266D01*
X871511Y487076D01*
X873810Y486460D01*
X876190D01*
X878489Y487076D01*
X880551Y488266D01*
X882234Y489949D01*
X883424Y492011D01*
X884040Y494310D01*
Y496690D01*
X883424Y498989D01*
X882234Y501051D01*
X880551Y502734D01*
X878489Y503924D01*
X876190Y504540D01*
D02*
G37*
G36*
X836190Y484540D02*
X833810D01*
X831511Y483924D01*
X829449Y482734D01*
X827766Y481051D01*
X826576Y478989D01*
X825960Y476690D01*
Y474310D01*
X826576Y472011D01*
X827766Y469949D01*
X829449Y468266D01*
X831511Y467076D01*
X833810Y466460D01*
X836190D01*
X838489Y467076D01*
X840551Y468266D01*
X842234Y469949D01*
X843424Y472011D01*
X844040Y474310D01*
Y476690D01*
X843424Y478989D01*
X842234Y481051D01*
X840551Y482734D01*
X838489Y483924D01*
X836190Y484540D01*
D02*
G37*
G36*
X883890Y437543D02*
X881510D01*
X879211Y436927D01*
X877149Y435737D01*
X875466Y434054D01*
X874276Y431992D01*
X873660Y429693D01*
Y427313D01*
X874276Y425014D01*
X875466Y422952D01*
X877149Y421269D01*
X879211Y420079D01*
X881510Y419463D01*
X883890D01*
X886189Y420079D01*
X888251Y421269D01*
X889934Y422952D01*
X891124Y425014D01*
X891740Y427313D01*
Y429693D01*
X891124Y431992D01*
X889934Y434054D01*
X888251Y435737D01*
X886189Y436927D01*
X883890Y437543D01*
D02*
G37*
G36*
X986388Y390540D02*
X986270D01*
Y381270D01*
X995540D01*
Y381388D01*
X994822Y384068D01*
X993434Y386472D01*
X991472Y388434D01*
X989068Y389822D01*
X986388Y390540D01*
D02*
G37*
G36*
X983730D02*
X983612D01*
X980932Y389822D01*
X978528Y388434D01*
X976566Y386472D01*
X975178Y384068D01*
X974460Y381388D01*
Y381270D01*
X983730D01*
Y390540D01*
D02*
G37*
G36*
X751788D02*
X751670D01*
Y381270D01*
X760940D01*
Y381388D01*
X760222Y384068D01*
X758834Y386472D01*
X756872Y388434D01*
X754468Y389822D01*
X751788Y390540D01*
D02*
G37*
G36*
X749130D02*
X749012D01*
X746332Y389822D01*
X743928Y388434D01*
X741966Y386472D01*
X740578Y384068D01*
X739860Y381388D01*
Y381270D01*
X749130D01*
Y390540D01*
D02*
G37*
G36*
X995540Y378730D02*
X986270D01*
Y369460D01*
X986388D01*
X989068Y370178D01*
X991472Y371566D01*
X993434Y373528D01*
X994822Y375932D01*
X995540Y378612D01*
Y378730D01*
D02*
G37*
G36*
X983730D02*
X974460D01*
Y378612D01*
X975178Y375932D01*
X976566Y373528D01*
X978528Y371566D01*
X980932Y370178D01*
X983612Y369460D01*
X983730D01*
Y378730D01*
D02*
G37*
G36*
X960988Y390540D02*
X958212D01*
X955532Y389822D01*
X953128Y388434D01*
X951166Y386472D01*
X949778Y384068D01*
X949060Y381388D01*
Y378612D01*
X949778Y375932D01*
X951166Y373528D01*
X953128Y371566D01*
X955532Y370178D01*
X958212Y369460D01*
X960988D01*
X963668Y370178D01*
X966072Y371566D01*
X968034Y373528D01*
X969422Y375932D01*
X970140Y378612D01*
Y381388D01*
X969422Y384068D01*
X968034Y386472D01*
X966072Y388434D01*
X963668Y389822D01*
X960988Y390540D01*
D02*
G37*
G36*
X760940Y378730D02*
X751670D01*
Y369460D01*
X751788D01*
X754468Y370178D01*
X756872Y371566D01*
X758834Y373528D01*
X760222Y375932D01*
X760940Y378612D01*
Y378730D01*
D02*
G37*
G36*
X871190Y459540D02*
X868810D01*
X866511Y458924D01*
X864449Y457734D01*
X862766Y456051D01*
X861576Y453989D01*
X861152Y452407D01*
X844622Y435878D01*
X843414Y434303D01*
X842654Y432468D01*
X842395Y430500D01*
Y365193D01*
X842654Y363225D01*
X843414Y361391D01*
X844622Y359816D01*
X856293Y348145D01*
X856716Y346569D01*
X857886Y344541D01*
X859541Y342886D01*
X861569Y341716D01*
X863830Y341110D01*
X866170D01*
X868431Y341716D01*
X870459Y342886D01*
X872114Y344541D01*
X873284Y346569D01*
X873890Y348830D01*
Y351170D01*
X873284Y353431D01*
X872114Y355459D01*
X870459Y357114D01*
X868431Y358284D01*
X867384Y358565D01*
X857605Y368344D01*
Y427350D01*
X871907Y441652D01*
X873489Y442076D01*
X875551Y443266D01*
X877234Y444949D01*
X878424Y447011D01*
X879040Y449310D01*
Y451690D01*
X878424Y453989D01*
X877234Y456051D01*
X875551Y457734D01*
X873489Y458924D01*
X871190Y459540D01*
D02*
G37*
G36*
X766256Y310840D02*
X763744D01*
X761318Y310190D01*
X759142Y308934D01*
X757366Y307158D01*
X756110Y304982D01*
X755460Y302556D01*
Y300044D01*
X756110Y297618D01*
X757366Y295442D01*
X759142Y293666D01*
X761318Y292410D01*
X763744Y291760D01*
X766256D01*
X768682Y292410D01*
X770858Y293666D01*
X772634Y295442D01*
X773890Y297618D01*
X774540Y300044D01*
Y302556D01*
X773890Y304982D01*
X772634Y307158D01*
X770858Y308934D01*
X768682Y310190D01*
X766256Y310840D01*
D02*
G37*
G36*
X741256D02*
X738744D01*
X736318Y310190D01*
X734142Y308934D01*
X732366Y307158D01*
X731110Y304982D01*
X730460Y302556D01*
Y300044D01*
X731110Y297618D01*
X732366Y295442D01*
X734142Y293666D01*
X736318Y292410D01*
X738744Y291760D01*
X741256D01*
X743682Y292410D01*
X745858Y293666D01*
X747634Y295442D01*
X748890Y297618D01*
X749540Y300044D01*
Y302556D01*
X748890Y304982D01*
X747634Y307158D01*
X745858Y308934D01*
X743682Y310190D01*
X741256Y310840D01*
D02*
G37*
G36*
X956256Y310340D02*
X953744D01*
X951318Y309690D01*
X949142Y308434D01*
X947366Y306658D01*
X946110Y304482D01*
X945460Y302056D01*
Y299544D01*
X946110Y297118D01*
X947366Y294942D01*
X949142Y293166D01*
X951318Y291910D01*
X953744Y291260D01*
X956256D01*
X958682Y291910D01*
X960858Y293166D01*
X962634Y294942D01*
X963890Y297118D01*
X964540Y299544D01*
Y302056D01*
X963890Y304482D01*
X962634Y306658D01*
X960858Y308434D01*
X958682Y309690D01*
X956256Y310340D01*
D02*
G37*
G36*
X931256D02*
X928744D01*
X926318Y309690D01*
X924142Y308434D01*
X922366Y306658D01*
X921110Y304482D01*
X920460Y302056D01*
Y299544D01*
X921110Y297118D01*
X922366Y294942D01*
X924142Y293166D01*
X926318Y291910D01*
X928744Y291260D01*
X931256D01*
X933682Y291910D01*
X935858Y293166D01*
X937634Y294942D01*
X938890Y297118D01*
X939540Y299544D01*
Y302056D01*
X938890Y304482D01*
X937634Y306658D01*
X935858Y308434D01*
X933682Y309690D01*
X931256Y310340D01*
D02*
G37*
G36*
X791270Y209236D02*
Y200970D01*
X799536D01*
X798890Y203382D01*
X797634Y205558D01*
X795858Y207334D01*
X793682Y208590D01*
X791270Y209236D01*
D02*
G37*
G36*
X766270D02*
Y200970D01*
X774536D01*
X773890Y203382D01*
X772634Y205558D01*
X770858Y207334D01*
X768682Y208590D01*
X766270Y209236D01*
D02*
G37*
G36*
X741270D02*
Y200970D01*
X749536D01*
X748890Y203382D01*
X747634Y205558D01*
X745858Y207334D01*
X743682Y208590D01*
X741270Y209236D01*
D02*
G37*
G36*
X788730Y209236D02*
X786318Y208590D01*
X784142Y207334D01*
X782366Y205558D01*
X781110Y203382D01*
X780464Y200970D01*
X788730D01*
Y209236D01*
D02*
G37*
G36*
X763730D02*
X761318Y208590D01*
X759142Y207334D01*
X757366Y205558D01*
X756110Y203382D01*
X755464Y200970D01*
X763730D01*
Y209236D01*
D02*
G37*
G36*
X738730D02*
X736318Y208590D01*
X734142Y207334D01*
X732366Y205558D01*
X731110Y203382D01*
X730464Y200970D01*
X738730D01*
Y209236D01*
D02*
G37*
G36*
X788730Y198430D02*
X780464D01*
X781110Y196018D01*
X782366Y193842D01*
X784142Y192066D01*
X786318Y190810D01*
X788730Y190164D01*
Y198430D01*
D02*
G37*
G36*
X763730D02*
X755464D01*
X756110Y196018D01*
X757366Y193842D01*
X759142Y192066D01*
X761318Y190810D01*
X763730Y190164D01*
Y198430D01*
D02*
G37*
G36*
X738730D02*
X730464D01*
X731110Y196018D01*
X732366Y193842D01*
X734142Y192066D01*
X736318Y190810D01*
X738730Y190164D01*
Y198430D01*
D02*
G37*
G36*
X799536D02*
X791270D01*
Y190164D01*
X793682Y190810D01*
X795858Y192066D01*
X797634Y193842D01*
X798890Y196018D01*
X799536Y198430D01*
D02*
G37*
G36*
X774536D02*
X766270D01*
Y190164D01*
X768682Y190810D01*
X770858Y192066D01*
X772634Y193842D01*
X773890Y196018D01*
X774536Y198430D01*
D02*
G37*
G36*
X749536D02*
X741270D01*
Y190164D01*
X743682Y190810D01*
X745858Y192066D01*
X747634Y193842D01*
X748890Y196018D01*
X749536Y198430D01*
D02*
G37*
G36*
X956256Y208740D02*
X953744D01*
X951318Y208090D01*
X949142Y206834D01*
X947366Y205058D01*
X946110Y202882D01*
X945460Y200456D01*
Y197944D01*
X946110Y195518D01*
X947366Y193342D01*
X949142Y191566D01*
X951318Y190310D01*
X953744Y189660D01*
X956256D01*
X958682Y190310D01*
X960858Y191566D01*
X962634Y193342D01*
X963890Y195518D01*
X964540Y197944D01*
Y200456D01*
X963890Y202882D01*
X962634Y205058D01*
X960858Y206834D01*
X958682Y208090D01*
X956256Y208740D01*
D02*
G37*
G36*
X931256D02*
X928744D01*
X926318Y208090D01*
X924142Y206834D01*
X922366Y205058D01*
X921110Y202882D01*
X920460Y200456D01*
Y197944D01*
X921110Y195518D01*
X922366Y193342D01*
X924142Y191566D01*
X926318Y190310D01*
X928744Y189660D01*
X931256D01*
X933682Y190310D01*
X935858Y191566D01*
X937634Y193342D01*
X938890Y195518D01*
X939540Y197944D01*
Y200456D01*
X938890Y202882D01*
X937634Y205058D01*
X935858Y206834D01*
X933682Y208090D01*
X931256Y208740D01*
D02*
G37*
G36*
X906256D02*
X903744D01*
X901318Y208090D01*
X899142Y206834D01*
X897366Y205058D01*
X896110Y202882D01*
X895460Y200456D01*
Y197944D01*
X896110Y195518D01*
X897366Y193342D01*
X899142Y191566D01*
X901318Y190310D01*
X903744Y189660D01*
X906256D01*
X908682Y190310D01*
X910858Y191566D01*
X912634Y193342D01*
X913890Y195518D01*
X914540Y197944D01*
Y200456D01*
X913890Y202882D01*
X912634Y205058D01*
X910858Y206834D01*
X908682Y208090D01*
X906256Y208740D01*
D02*
G37*
G36*
X865922Y175040D02*
X865870D01*
Y166270D01*
X874640D01*
Y166322D01*
X873956Y168875D01*
X872634Y171165D01*
X870765Y173034D01*
X868475Y174356D01*
X865922Y175040D01*
D02*
G37*
G36*
X863330D02*
X863278D01*
X860725Y174356D01*
X858435Y173034D01*
X856566Y171165D01*
X855244Y168875D01*
X854560Y166322D01*
Y166270D01*
X863330D01*
Y175040D01*
D02*
G37*
G36*
X891322D02*
X888678D01*
X886125Y174356D01*
X883835Y173034D01*
X881966Y171165D01*
X880644Y168875D01*
X879960Y166322D01*
Y163678D01*
X880644Y161125D01*
X881966Y158835D01*
X883835Y156966D01*
X886125Y155644D01*
X888678Y154960D01*
X891322D01*
X893875Y155644D01*
X896165Y156966D01*
X898034Y158835D01*
X899356Y161125D01*
X900040Y163678D01*
Y166322D01*
X899356Y168875D01*
X898034Y171165D01*
X896165Y173034D01*
X893875Y174356D01*
X891322Y175040D01*
D02*
G37*
G36*
X874640Y163730D02*
X865870D01*
Y154960D01*
X865922D01*
X868475Y155644D01*
X870765Y156966D01*
X872634Y158835D01*
X873956Y161125D01*
X874640Y163678D01*
Y163730D01*
D02*
G37*
G36*
X863330D02*
X854560D01*
Y163678D01*
X855244Y161125D01*
X856566Y158835D01*
X858435Y156966D01*
X860725Y155644D01*
X863278Y154960D01*
X863330D01*
Y163730D01*
D02*
G37*
G36*
X840522Y175040D02*
X837878D01*
X835325Y174356D01*
X833035Y173034D01*
X831166Y171165D01*
X829844Y168875D01*
X829160Y166322D01*
Y163678D01*
X829844Y161125D01*
X831166Y158835D01*
X833035Y156966D01*
X835325Y155644D01*
X837878Y154960D01*
X840522D01*
X843075Y155644D01*
X845365Y156966D01*
X847234Y158835D01*
X848556Y161125D01*
X849240Y163678D01*
Y166322D01*
X848556Y168875D01*
X847234Y171165D01*
X845365Y173034D01*
X843075Y174356D01*
X840522Y175040D01*
D02*
G37*
G36*
X815122D02*
X812478D01*
X809925Y174356D01*
X807635Y173034D01*
X805766Y171165D01*
X804444Y168875D01*
X803760Y166322D01*
Y163678D01*
X804444Y161125D01*
X805766Y158835D01*
X807635Y156966D01*
X809925Y155644D01*
X812478Y154960D01*
X815122D01*
X817675Y155644D01*
X819965Y156966D01*
X821834Y158835D01*
X823156Y161125D01*
X823840Y163678D01*
Y166322D01*
X823156Y168875D01*
X821834Y171165D01*
X819965Y173034D01*
X817675Y174356D01*
X815122Y175040D01*
D02*
G37*
G36*
X798440D02*
X778360D01*
Y154960D01*
X798440D01*
Y175040D01*
D02*
G37*
G36*
X491722Y50040D02*
X489078D01*
X486525Y49356D01*
X484235Y48034D01*
X482366Y46165D01*
X481044Y43875D01*
X480360Y41322D01*
Y38678D01*
X481044Y36125D01*
X482366Y33835D01*
X484235Y31966D01*
X486525Y30644D01*
X489078Y29960D01*
X491722D01*
X494275Y30644D01*
X496565Y31966D01*
X498434Y33835D01*
X499756Y36125D01*
X500440Y38678D01*
Y41322D01*
X499756Y43875D01*
X498434Y46165D01*
X496565Y48034D01*
X494275Y49356D01*
X491722Y50040D01*
D02*
G37*
G36*
X466322D02*
X463678D01*
X461125Y49356D01*
X458835Y48034D01*
X456966Y46165D01*
X455644Y43875D01*
X454960Y41322D01*
Y38678D01*
X455644Y36125D01*
X456966Y33835D01*
X458835Y31966D01*
X461125Y30644D01*
X463678Y29960D01*
X466322D01*
X468875Y30644D01*
X471165Y31966D01*
X473034Y33835D01*
X474356Y36125D01*
X475040Y38678D01*
Y41322D01*
X474356Y43875D01*
X473034Y46165D01*
X471165Y48034D01*
X468875Y49356D01*
X466322Y50040D01*
D02*
G37*
G36*
X415522D02*
X412878D01*
X410325Y49356D01*
X408035Y48034D01*
X406166Y46165D01*
X404844Y43875D01*
X404160Y41322D01*
Y38678D01*
X404844Y36125D01*
X406166Y33835D01*
X408035Y31966D01*
X410325Y30644D01*
X412878Y29960D01*
X415522D01*
X418075Y30644D01*
X420365Y31966D01*
X422234Y33835D01*
X423556Y36125D01*
X424240Y38678D01*
Y41322D01*
X423556Y43875D01*
X422234Y46165D01*
X420365Y48034D01*
X418075Y49356D01*
X415522Y50040D01*
D02*
G37*
%LPD*%
D13*
X874500Y495000D02*
X875000Y495500D01*
X830000Y495000D02*
X874500D01*
X820000Y485000D02*
X830000Y495000D01*
X820000Y430000D02*
Y485000D01*
X529920Y21568D02*
Y54448D01*
X484920Y99448D02*
Y128936D01*
Y99448D02*
X529920Y54448D01*
X474600Y75000D02*
X495000D01*
X89760Y766488D02*
X91248Y765000D01*
X94840Y771568D02*
Y779208D01*
X89760Y766488D02*
Y781393D01*
X140402Y780000D02*
X145562Y785160D01*
X96328Y770080D02*
X137896D01*
X94840Y771568D02*
X96328Y770080D01*
X91248Y765000D02*
X140000D01*
X150000Y775000D01*
X110480Y780000D02*
X140402D01*
X137896Y770080D02*
X147896Y780080D01*
X110240Y780240D02*
X110480Y780000D01*
X184920Y780080D02*
X187104D01*
X204840Y762344D01*
X150000Y775000D02*
X185000D01*
X199760Y544440D02*
Y760240D01*
X185000Y775000D02*
X199760Y760240D01*
X204840Y760160D02*
Y762344D01*
X154836Y795160D02*
X154996Y795320D01*
X110792Y795160D02*
X154836D01*
X145562Y785160D02*
X229840D01*
X147896Y780080D02*
X184920D01*
X229840Y785160D02*
X250000Y765000D01*
X204840Y580160D02*
Y760160D01*
X555000Y181900D02*
Y220000D01*
Y181900D02*
X555950Y180950D01*
X555000Y220000D02*
X603390Y268390D01*
Y277590D02*
X605000Y279200D01*
X603390Y268390D02*
Y277590D01*
X373960Y25160D02*
X490000Y141200D01*
X94880Y779328D02*
X100832Y785280D01*
X100912D02*
X110792Y795160D01*
X94840Y779208D02*
X94880Y779248D01*
X89760Y781393D02*
X105810Y797443D01*
X100832Y785280D02*
X100912D01*
X94880Y779248D02*
Y779328D01*
X105810Y797443D02*
Y822010D01*
X195700Y911900D01*
X199760Y544440D02*
X315000Y429200D01*
X204840Y580160D02*
X215000Y570000D01*
X95000Y905800D02*
X138800D01*
X144900Y911900D01*
X237662Y946138D02*
X271900Y911900D01*
X135634Y946138D02*
X237662D01*
X134004Y940080D02*
X218320D01*
X246500Y911900D01*
X341200Y550000D02*
X361200Y570000D01*
X270000Y540000D02*
X270160Y540160D01*
X280160D02*
X290000Y550000D01*
X341200D01*
X270160Y540160D02*
X280160D01*
X215000Y570000D02*
X234200D01*
X410000Y940000D02*
X421600D01*
X449700Y911900D01*
X380000Y970000D02*
X410000Y940000D01*
X370000Y970000D02*
X380000D01*
X373500Y988100D02*
X396600Y965000D01*
X430000D01*
X360000Y980000D02*
X370000Y970000D01*
X341408Y945080D02*
X391120D01*
X424300Y911900D01*
X360000Y1004800D02*
X425200Y1070000D01*
X360000Y980000D02*
Y1004800D01*
X335000Y951488D02*
X341408Y945080D01*
X335000Y951488D02*
Y1005200D01*
X399800Y1070000D01*
X370800Y940000D02*
X398900Y911900D01*
X335000Y940000D02*
X370800D01*
X310000Y965000D02*
X335000Y940000D01*
X310000Y965000D02*
Y1005600D01*
X374400Y1070000D01*
X337512Y1050000D02*
X349000Y1061488D01*
Y1070000D01*
X209184Y1050000D02*
X337512D01*
X130000Y935000D02*
X198000D01*
X221100Y911900D01*
X121692Y952392D02*
X134004Y940080D01*
X116200Y948800D02*
X130000Y935000D01*
X126772Y955000D02*
X135634Y946138D01*
X126772Y955000D02*
Y1011204D01*
X165488Y1049920D02*
X209104D01*
X126772Y1011204D02*
X165488Y1049920D01*
X209104D02*
X209184Y1050000D01*
X207000Y1055000D02*
X222000Y1070000D01*
X163384Y1055000D02*
X207000D01*
X121692Y1013308D02*
X163384Y1055000D01*
X121692Y952392D02*
Y1013308D01*
X116200Y948800D02*
Y1015000D01*
X171200Y1070000D01*
X344920Y20080D02*
X528432D01*
X529920Y21568D01*
X500000Y120000D02*
X535000Y85000D01*
X329200Y15000D02*
X533512D01*
X535000Y16488D02*
Y85000D01*
X533512Y15000D02*
X535000Y16488D01*
X280000Y86690D02*
X326690Y40000D01*
X280000Y86690D02*
Y99200D01*
X245000D02*
X329200Y15000D01*
X349310Y26648D02*
Y50690D01*
X350798Y25160D02*
X373960D01*
X326690Y40000D02*
X338000D01*
Y27000D02*
X344920Y20080D01*
X349310Y26648D02*
X350798Y25160D01*
X406616Y65000D02*
X484920Y143304D01*
X439600Y40000D02*
X474600Y75000D01*
X484920Y128936D02*
X495080Y139096D01*
X338000Y27000D02*
Y40000D01*
X315000Y85000D02*
Y99200D01*
Y85000D02*
X349310Y50690D01*
X495080Y139096D02*
Y924920D01*
X500000Y120000D02*
X500160Y120160D01*
Y927024D01*
X500000Y927184D02*
X500160Y927024D01*
X295000Y855000D02*
X449920D01*
X484920Y143304D02*
Y820000D01*
X454958Y957858D02*
X490000Y922816D01*
Y141200D02*
Y922816D01*
X449920Y855000D02*
X484920Y820000D01*
X480160Y939840D02*
X495080Y924920D01*
X480160Y939840D02*
Y949840D01*
X480000Y950000D02*
X480160Y949840D01*
X500000Y927184D02*
Y945000D01*
X480160Y964840D02*
X500000Y945000D01*
X470000Y965000D02*
X470160Y964840D01*
X480160D01*
X424300Y988100D02*
X454542Y957858D01*
X454958D01*
X590000Y415000D02*
Y532600D01*
X609700Y552300D01*
X605000Y380800D02*
Y400000D01*
X590000Y415000D02*
X605000Y400000D01*
X570000Y565000D02*
X608100Y603100D01*
X609700D01*
X570000Y380800D02*
Y565000D01*
X601594Y626594D02*
X607794D01*
X609700Y628500D01*
X550000Y575000D02*
X601594Y626594D01*
X550000Y395800D02*
Y575000D01*
X535000Y380800D02*
X550000Y395800D01*
X609850Y654050D02*
Y734850D01*
X610000Y735000D01*
X609700Y653900D02*
X609850Y654050D01*
X271900Y878100D02*
X295000Y855000D01*
X271900Y878100D02*
Y911900D01*
X388400Y65000D02*
X406616D01*
X363400Y40000D02*
X388400Y65000D01*
D17*
X358800Y840000D02*
D03*
D35*
X609700Y653900D02*
D03*
Y628500D02*
D03*
Y603100D02*
D03*
Y577700D02*
D03*
Y552300D02*
D03*
Y526900D02*
D03*
Y501500D02*
D03*
Y476100D02*
D03*
X530300D02*
D03*
Y501500D02*
D03*
Y526900D02*
D03*
Y552300D02*
D03*
Y577700D02*
D03*
Y603100D02*
D03*
Y628500D02*
D03*
D36*
Y653900D02*
D03*
D45*
X335800Y570000D02*
Y599200D01*
X215000Y720000D02*
X335800Y599200D01*
D46*
X850000Y365193D02*
Y430500D01*
X870000Y450500D01*
X850000Y365193D02*
X865000Y350193D01*
Y350000D02*
Y350193D01*
X889378Y315340D02*
X903918Y300800D01*
X811063D02*
X880000D01*
X771654Y340209D02*
X811063Y300800D01*
X815340Y315340D02*
X889378D01*
X775000Y355680D02*
X815340Y315340D01*
X903918Y300800D02*
X905000D01*
X865000Y215282D02*
X880000Y200282D01*
X865000Y215282D02*
Y285000D01*
X880000Y199200D02*
Y200282D01*
X725000Y570000D02*
X775000Y520000D01*
Y355680D02*
Y520000D01*
X764791Y340209D02*
X771654D01*
X725000Y380000D02*
X764791Y340209D01*
D47*
X650000Y945000D02*
X689600Y984600D01*
Y1070000D01*
D48*
X835000Y255000D02*
D03*
X365000Y297460D02*
D03*
X770000Y900000D02*
D03*
D49*
X870000Y450500D02*
D03*
X882700Y428503D02*
D03*
X887700Y517497D02*
D03*
X875000Y495500D02*
D03*
X835000Y475500D02*
D03*
X809600D02*
D03*
X800000Y1070000D02*
D03*
X200000Y840000D02*
D03*
X255400D02*
D03*
D50*
X930000Y300800D02*
D03*
Y199200D02*
D03*
X955000Y300800D02*
D03*
Y199200D02*
D03*
X880000Y300800D02*
D03*
Y199200D02*
D03*
X905000Y300800D02*
D03*
Y199200D02*
D03*
X790000Y199700D02*
D03*
Y301300D02*
D03*
X765000Y199700D02*
D03*
Y301300D02*
D03*
X740000Y199700D02*
D03*
Y301300D02*
D03*
X605000Y279200D02*
D03*
X535000D02*
D03*
X570000D02*
D03*
X345000Y429200D02*
D03*
Y530800D02*
D03*
X280000Y200800D02*
D03*
Y99200D02*
D03*
X315000Y200800D02*
D03*
Y99200D02*
D03*
X245000Y200800D02*
D03*
Y99200D02*
D03*
X315000Y530800D02*
D03*
Y429200D02*
D03*
X95000Y905800D02*
D03*
Y804200D02*
D03*
X605000Y380800D02*
D03*
X535000D02*
D03*
X570000D02*
D03*
X665000Y784200D02*
D03*
Y885800D02*
D03*
X705000Y784200D02*
D03*
Y885800D02*
D03*
D51*
X985400Y570000D02*
D03*
X960000D02*
D03*
X985000Y380000D02*
D03*
X959600D02*
D03*
X750400D02*
D03*
X725000D02*
D03*
X750400Y570000D02*
D03*
X725000D02*
D03*
D52*
X890000Y165000D02*
D03*
X864600D02*
D03*
X839200D02*
D03*
X813800D02*
D03*
X475100Y988100D02*
D03*
X449700D02*
D03*
X424300D02*
D03*
X398900D02*
D03*
X373500D02*
D03*
X348100D02*
D03*
X322700D02*
D03*
X297300D02*
D03*
X271900D02*
D03*
X246500D02*
D03*
X221100D02*
D03*
X195700D02*
D03*
X170300D02*
D03*
X144900D02*
D03*
X475100Y911900D02*
D03*
X449700D02*
D03*
X424300D02*
D03*
X398900D02*
D03*
X373500D02*
D03*
X348100D02*
D03*
X322700D02*
D03*
X297300D02*
D03*
X271900D02*
D03*
X246500D02*
D03*
X221100D02*
D03*
X195700D02*
D03*
X170300D02*
D03*
X120400Y1070000D02*
D03*
X145800D02*
D03*
X171200D02*
D03*
X196600D02*
D03*
X222000D02*
D03*
X247400D02*
D03*
X272800D02*
D03*
X298200D02*
D03*
X323600D02*
D03*
X349000D02*
D03*
X374400D02*
D03*
X399800D02*
D03*
X425200D02*
D03*
X450600D02*
D03*
X476000D02*
D03*
X335800Y570000D02*
D03*
X310400D02*
D03*
X285000D02*
D03*
X259600D02*
D03*
X234200D02*
D03*
X490400Y40000D02*
D03*
X465000D02*
D03*
X439600D02*
D03*
X414200D02*
D03*
X363400D02*
D03*
X388800D02*
D03*
X45000Y813400D02*
D03*
Y838800D02*
D03*
Y864200D02*
D03*
Y889600D02*
D03*
D53*
X788400Y165000D02*
D03*
X95000Y1070000D02*
D03*
X361200Y570000D02*
D03*
X338000Y40000D02*
D03*
D54*
X568650Y180950D02*
D03*
X581350D02*
D03*
X594050D02*
D03*
D55*
X555950D02*
D03*
D56*
X144900Y911900D02*
D03*
X45000Y915000D02*
D03*
D57*
X595000Y980500D02*
D03*
D58*
Y1040500D02*
D03*
D59*
X546000Y1010000D02*
D03*
D60*
X310000Y840000D02*
D03*
D61*
X800000Y1044600D02*
D03*
D62*
X174600Y840000D02*
D03*
X230000D02*
D03*
D63*
X689600Y1070000D02*
D03*
X715000D02*
D03*
D64*
X740400D02*
D03*
D65*
X785000Y790000D02*
D03*
D66*
Y815400D02*
D03*
D67*
X865000Y350000D02*
D03*
Y285000D02*
D03*
X820000Y430000D02*
D03*
X495000Y75000D02*
D03*
X110240Y780240D02*
D03*
X154996Y795320D02*
D03*
X250000Y765000D02*
D03*
X215000Y720000D02*
D03*
X270000Y540000D02*
D03*
X500000Y120000D02*
D03*
X470000Y965000D02*
D03*
X430000D02*
D03*
X610000Y735000D02*
D03*
X480000Y950000D02*
D03*
X650000Y945000D02*
D03*
M02*
