G04*
G04 #@! TF.GenerationSoftware,Altium Limited,Altium Designer,21.3.1 (25)*
G04*
G04 Layer_Color=8388736*
%FSLAX44Y44*%
%MOMM*%
G71*
G04*
G04 #@! TF.SameCoordinates,07AAF50E-0F06-4378-A151-48E409635E6A*
G04*
G04*
G04 #@! TF.FilePolarity,Negative*
G04*
G01*
G75*
%ADD15R,8.8900X11.4300*%
%ADD16R,3.8100X2.0800*%
%ADD20R,1.4032X1.4032*%
%ADD21R,1.7032X1.8032*%
%ADD22R,2.1032X4.6032*%
%ADD23C,4.2032*%
%ADD24C,1.5032*%
%ADD25C,1.6032*%
%ADD26C,1.8032*%
%ADD27C,1.7032*%
%ADD28R,1.7032X1.7032*%
%ADD29C,1.2032*%
%ADD30R,1.2032X1.2032*%
%ADD31R,1.7032X1.7032*%
%ADD32R,4.2032X1.7032*%
%ADD33R,3.7032X1.7032*%
%ADD34R,1.7032X3.7032*%
%ADD35C,1.2500*%
%ADD36R,1.2500X1.2500*%
%ADD37C,1.4032*%
%ADD38R,1.5032X1.5032*%
%ADD39R,1.5032X1.5032*%
%ADD40C,1.9032*%
%ADD41R,1.9032X1.9032*%
%ADD42C,1.7532*%
%ADD43R,1.7532X1.7532*%
%ADD44C,1.4732*%
D15*
X305000Y705000D02*
D03*
D16*
X419300Y730400D02*
D03*
Y679600D02*
D03*
D20*
X52500Y1010000D02*
D03*
Y990000D02*
D03*
X358800Y840000D02*
D03*
D21*
X85000Y1000000D02*
D03*
D22*
X575000Y811250D02*
D03*
Y888750D02*
D03*
D23*
X835000Y255000D02*
D03*
X365000Y297460D02*
D03*
X770000Y900000D02*
D03*
D24*
X870000Y450500D02*
D03*
X882700Y428503D02*
D03*
X887700Y517497D02*
D03*
X875000Y495500D02*
D03*
X835000Y475500D02*
D03*
X809600D02*
D03*
X800000Y1070000D02*
D03*
X200000Y840000D02*
D03*
X255400D02*
D03*
D25*
X930000Y300800D02*
D03*
Y199200D02*
D03*
X955000Y300800D02*
D03*
Y199200D02*
D03*
X880000Y300800D02*
D03*
Y199200D02*
D03*
X905000Y300800D02*
D03*
Y199200D02*
D03*
X790000Y199700D02*
D03*
Y301300D02*
D03*
X765000Y199700D02*
D03*
Y301300D02*
D03*
X740000Y199700D02*
D03*
Y301300D02*
D03*
X605000Y279200D02*
D03*
X535000D02*
D03*
X570000D02*
D03*
X345000Y429200D02*
D03*
Y530800D02*
D03*
X280000Y200800D02*
D03*
Y99200D02*
D03*
X315000Y200800D02*
D03*
Y99200D02*
D03*
X245000Y200800D02*
D03*
Y99200D02*
D03*
X315000Y530800D02*
D03*
Y429200D02*
D03*
X95000Y905800D02*
D03*
Y804200D02*
D03*
X605000Y380800D02*
D03*
X535000D02*
D03*
X570000D02*
D03*
X665000Y784200D02*
D03*
Y885800D02*
D03*
X705000Y784200D02*
D03*
Y885800D02*
D03*
D26*
X985400Y570000D02*
D03*
X960000D02*
D03*
X985000Y380000D02*
D03*
X959600D02*
D03*
X750400D02*
D03*
X725000D02*
D03*
X750400Y570000D02*
D03*
X725000D02*
D03*
D27*
X890000Y165000D02*
D03*
X864600D02*
D03*
X839200D02*
D03*
X813800D02*
D03*
X475100Y988100D02*
D03*
X449700D02*
D03*
X424300D02*
D03*
X398900D02*
D03*
X373500D02*
D03*
X348100D02*
D03*
X322700D02*
D03*
X297300D02*
D03*
X271900D02*
D03*
X246500D02*
D03*
X221100D02*
D03*
X195700D02*
D03*
X170300D02*
D03*
X144900D02*
D03*
X475100Y911900D02*
D03*
X449700D02*
D03*
X424300D02*
D03*
X398900D02*
D03*
X373500D02*
D03*
X348100D02*
D03*
X322700D02*
D03*
X297300D02*
D03*
X271900D02*
D03*
X246500D02*
D03*
X221100D02*
D03*
X195700D02*
D03*
X170300D02*
D03*
X120400Y1070000D02*
D03*
X145800D02*
D03*
X171200D02*
D03*
X196600D02*
D03*
X222000D02*
D03*
X247400D02*
D03*
X272800D02*
D03*
X298200D02*
D03*
X323600D02*
D03*
X349000D02*
D03*
X374400D02*
D03*
X399800D02*
D03*
X425200D02*
D03*
X450600D02*
D03*
X476000D02*
D03*
X335800Y570000D02*
D03*
X310400D02*
D03*
X285000D02*
D03*
X259600D02*
D03*
X234200D02*
D03*
X490400Y40000D02*
D03*
X465000D02*
D03*
X439600D02*
D03*
X414200D02*
D03*
X363400D02*
D03*
X388800D02*
D03*
X45000Y813400D02*
D03*
Y838800D02*
D03*
Y864200D02*
D03*
Y889600D02*
D03*
D28*
X788400Y165000D02*
D03*
X95000Y1070000D02*
D03*
X361200Y570000D02*
D03*
X338000Y40000D02*
D03*
D29*
X568650Y180950D02*
D03*
X581350D02*
D03*
X594050D02*
D03*
D30*
X555950D02*
D03*
D31*
X144900Y911900D02*
D03*
X45000Y915000D02*
D03*
D32*
X595000Y980500D02*
D03*
D33*
Y1040500D02*
D03*
D34*
X546000Y1010000D02*
D03*
D35*
X609700Y653900D02*
D03*
Y628500D02*
D03*
Y603100D02*
D03*
Y577700D02*
D03*
Y552300D02*
D03*
Y526900D02*
D03*
Y501500D02*
D03*
Y476100D02*
D03*
X530300D02*
D03*
Y501500D02*
D03*
Y526900D02*
D03*
Y552300D02*
D03*
Y577700D02*
D03*
Y603100D02*
D03*
Y628500D02*
D03*
D36*
Y653900D02*
D03*
D37*
X310000Y840000D02*
D03*
D38*
X800000Y1044600D02*
D03*
D39*
X174600Y840000D02*
D03*
X230000D02*
D03*
D40*
X689600Y1070000D02*
D03*
X715000D02*
D03*
D41*
X740400D02*
D03*
D42*
X785000Y790000D02*
D03*
D43*
Y815400D02*
D03*
D44*
X865000Y350000D02*
D03*
Y285000D02*
D03*
X820000Y430000D02*
D03*
X495000Y75000D02*
D03*
X110240Y780240D02*
D03*
X154996Y795320D02*
D03*
X250000Y765000D02*
D03*
X215000Y720000D02*
D03*
X270000Y540000D02*
D03*
X500000Y120000D02*
D03*
X470000Y965000D02*
D03*
X430000D02*
D03*
X610000Y735000D02*
D03*
X480000Y950000D02*
D03*
X650000Y945000D02*
D03*
M02*
