G04*
G04 #@! TF.GenerationSoftware,Altium Limited,Altium Designer,21.3.1 (25)*
G04*
G04 Layer_Color=16711935*
%FSLAX44Y44*%
%MOMM*%
G71*
G04*
G04 #@! TF.SameCoordinates,07AAF50E-0F06-4378-A151-48E409635E6A*
G04*
G04*
G04 #@! TF.FilePolarity,Positive*
G04*
G01*
G75*
%ADD10C,0.2000*%
G36*
X575029Y566045D02*
Y566035D01*
Y565998D01*
Y565952D01*
Y565887D01*
X575020Y565804D01*
Y565712D01*
X575011Y565601D01*
X575002Y565490D01*
X574974Y565240D01*
X574937Y564981D01*
X574882Y564732D01*
X574845Y564612D01*
X574808Y564501D01*
Y564491D01*
X574798Y564473D01*
X574780Y564445D01*
X574761Y564408D01*
X574706Y564306D01*
X574623Y564177D01*
X574512Y564029D01*
X574382Y563881D01*
X574216Y563724D01*
X574012Y563585D01*
X574003D01*
X573985Y563567D01*
X573957Y563558D01*
X573911Y563530D01*
X573855Y563502D01*
X573781Y563474D01*
X573707Y563447D01*
X573615Y563410D01*
X573513Y563373D01*
X573402Y563345D01*
X573282Y563317D01*
X573143Y563289D01*
X573005Y563271D01*
X572857Y563252D01*
X572524Y563234D01*
X572441D01*
X572376Y563243D01*
X572302D01*
X572210Y563252D01*
X572108Y563262D01*
X572006Y563271D01*
X571775Y563308D01*
X571525Y563363D01*
X571285Y563437D01*
X571054Y563539D01*
X571045D01*
X571026Y563558D01*
X570998Y563576D01*
X570961Y563595D01*
X570860Y563669D01*
X570740Y563770D01*
X570601Y563900D01*
X570471Y564048D01*
X570342Y564232D01*
X570240Y564436D01*
Y564445D01*
X570231Y564464D01*
X570222Y564501D01*
X570203Y564547D01*
X570185Y564602D01*
X570166Y564676D01*
X570139Y564759D01*
X570120Y564861D01*
X570102Y564972D01*
X570074Y565092D01*
X570055Y565222D01*
X570037Y565360D01*
X570018Y565518D01*
X570009Y565684D01*
X570000Y565860D01*
Y566045D01*
Y569743D01*
X570850D01*
Y566045D01*
Y566035D01*
Y566008D01*
Y565961D01*
Y565906D01*
X570860Y565841D01*
Y565758D01*
X570869Y565582D01*
X570887Y565379D01*
X570915Y565176D01*
X570952Y564981D01*
X570971Y564898D01*
X570998Y564815D01*
X571008Y564796D01*
X571026Y564750D01*
X571072Y564686D01*
X571128Y564593D01*
X571193Y564501D01*
X571285Y564399D01*
X571396Y564297D01*
X571525Y564214D01*
X571544Y564205D01*
X571590Y564177D01*
X571673Y564149D01*
X571784Y564112D01*
X571914Y564066D01*
X572080Y564038D01*
X572256Y564011D01*
X572450Y564001D01*
X572542D01*
X572598Y564011D01*
X572681D01*
X572764Y564020D01*
X572968Y564057D01*
X573190Y564103D01*
X573402Y564177D01*
X573606Y564279D01*
X573698Y564343D01*
X573781Y564417D01*
X573791Y564427D01*
X573800Y564436D01*
X573818Y564464D01*
X573846Y564501D01*
X573874Y564556D01*
X573911Y564612D01*
X573948Y564695D01*
X573985Y564778D01*
X574022Y564880D01*
X574049Y565000D01*
X574086Y565139D01*
X574114Y565286D01*
X574142Y565453D01*
X574160Y565629D01*
X574179Y565832D01*
Y566045D01*
Y569743D01*
X575029D01*
Y566045D01*
D02*
G37*
G36*
X578395Y569761D02*
X578469Y569752D01*
X578561Y569743D01*
X578663Y569724D01*
X578765Y569706D01*
X579005Y569641D01*
X579245Y569549D01*
X579366Y569493D01*
X579486Y569428D01*
X579597Y569345D01*
X579698Y569253D01*
X579708Y569244D01*
X579726Y569234D01*
X579745Y569197D01*
X579782Y569160D01*
X579828Y569114D01*
X579874Y569049D01*
X579920Y568985D01*
X579976Y568901D01*
X580068Y568726D01*
X580161Y568504D01*
X580198Y568393D01*
X580216Y568264D01*
X580235Y568134D01*
X580244Y567995D01*
Y567977D01*
Y567931D01*
X580235Y567857D01*
X580225Y567755D01*
X580207Y567644D01*
X580170Y567515D01*
X580133Y567376D01*
X580078Y567237D01*
X580068Y567219D01*
X580050Y567173D01*
X580013Y567099D01*
X579957Y566997D01*
X579883Y566886D01*
X579791Y566747D01*
X579680Y566609D01*
X579551Y566451D01*
X579532Y566433D01*
X579486Y566377D01*
X579440Y566331D01*
X579393Y566285D01*
X579338Y566230D01*
X579264Y566156D01*
X579190Y566082D01*
X579098Y565998D01*
X579005Y565906D01*
X578894Y565804D01*
X578774Y565703D01*
X578644Y565582D01*
X578497Y565462D01*
X578349Y565333D01*
X578339Y565323D01*
X578321Y565305D01*
X578284Y565277D01*
X578238Y565240D01*
X578182Y565185D01*
X578117Y565129D01*
X577970Y565009D01*
X577812Y564870D01*
X577664Y564732D01*
X577535Y564612D01*
X577480Y564565D01*
X577433Y564519D01*
X577424Y564510D01*
X577396Y564482D01*
X577359Y564445D01*
X577313Y564390D01*
X577267Y564325D01*
X577211Y564260D01*
X577100Y564103D01*
X580253D01*
Y563345D01*
X576009D01*
Y563354D01*
Y563391D01*
Y563447D01*
X576019Y563521D01*
X576028Y563604D01*
X576046Y563696D01*
X576065Y563789D01*
X576102Y563890D01*
Y563900D01*
X576111Y563909D01*
X576130Y563964D01*
X576167Y564048D01*
X576222Y564159D01*
X576296Y564288D01*
X576389Y564436D01*
X576490Y564584D01*
X576620Y564741D01*
Y564750D01*
X576638Y564759D01*
X576684Y564815D01*
X576768Y564898D01*
X576888Y565018D01*
X577026Y565157D01*
X577202Y565323D01*
X577415Y565508D01*
X577646Y565703D01*
X577655Y565712D01*
X577692Y565740D01*
X577748Y565786D01*
X577812Y565841D01*
X577896Y565915D01*
X577997Y565998D01*
X578099Y566091D01*
X578219Y566193D01*
X578450Y566414D01*
X578681Y566636D01*
X578792Y566747D01*
X578894Y566858D01*
X578987Y566960D01*
X579061Y567062D01*
Y567071D01*
X579079Y567080D01*
X579098Y567108D01*
X579116Y567145D01*
X579181Y567247D01*
X579255Y567367D01*
X579319Y567515D01*
X579384Y567672D01*
X579421Y567848D01*
X579440Y568014D01*
Y568023D01*
Y568032D01*
X579430Y568088D01*
X579421Y568180D01*
X579393Y568282D01*
X579356Y568411D01*
X579292Y568541D01*
X579208Y568670D01*
X579098Y568800D01*
X579079Y568818D01*
X579033Y568855D01*
X578968Y568901D01*
X578866Y568966D01*
X578737Y569022D01*
X578589Y569077D01*
X578413Y569114D01*
X578219Y569123D01*
X578164D01*
X578127Y569114D01*
X578016Y569105D01*
X577886Y569077D01*
X577748Y569040D01*
X577590Y568975D01*
X577443Y568892D01*
X577304Y568781D01*
X577285Y568763D01*
X577248Y568717D01*
X577193Y568643D01*
X577137Y568532D01*
X577073Y568402D01*
X577017Y568236D01*
X576980Y568051D01*
X576962Y567838D01*
X576157Y567921D01*
Y567931D01*
X576167Y567958D01*
Y568005D01*
X576176Y568069D01*
X576194Y568143D01*
X576213Y568227D01*
X576241Y568328D01*
X576268Y568430D01*
X576342Y568652D01*
X576453Y568874D01*
X576518Y568985D01*
X576601Y569096D01*
X576684Y569197D01*
X576777Y569290D01*
X576786Y569299D01*
X576805Y569308D01*
X576832Y569336D01*
X576879Y569364D01*
X576934Y569401D01*
X576999Y569438D01*
X577073Y569484D01*
X577165Y569530D01*
X577267Y569576D01*
X577378Y569623D01*
X577498Y569660D01*
X577627Y569697D01*
X577766Y569724D01*
X577914Y569752D01*
X578071Y569761D01*
X578238Y569771D01*
X578330D01*
X578395Y569761D01*
D02*
G37*
G36*
X352211Y714107D02*
X347209D01*
X347218Y714098D01*
X347255Y714052D01*
X347311Y713996D01*
X347375Y713904D01*
X347458Y713802D01*
X347551Y713672D01*
X347653Y713524D01*
X347754Y713358D01*
Y713349D01*
X347764Y713339D01*
X347801Y713284D01*
X347847Y713192D01*
X347902Y713081D01*
X347967Y712951D01*
X348032Y712812D01*
X348097Y712674D01*
X348152Y712535D01*
X347394D01*
Y712544D01*
X347375Y712563D01*
X347366Y712600D01*
X347338Y712646D01*
X347311Y712702D01*
X347274Y712766D01*
X347181Y712924D01*
X347080Y713108D01*
X346950Y713293D01*
X346802Y713487D01*
X346645Y713682D01*
X346636Y713691D01*
X346626Y713700D01*
X346599Y713728D01*
X346571Y713765D01*
X346479Y713848D01*
X346368Y713959D01*
X346238Y714070D01*
X346090Y714190D01*
X345942Y714292D01*
X345785Y714384D01*
Y714893D01*
X352211D01*
Y714107D01*
D02*
G37*
G36*
X352710Y710991D02*
Y710982D01*
X352701Y710963D01*
X352682Y710926D01*
X352664Y710871D01*
X352636Y710806D01*
X352599Y710732D01*
X352562Y710649D01*
X352516Y710557D01*
X352405Y710353D01*
X352276Y710122D01*
X352109Y709872D01*
X351924Y709614D01*
Y709604D01*
X351943Y709586D01*
X351961Y709540D01*
X351989Y709493D01*
X352017Y709419D01*
X352054Y709345D01*
X352081Y709253D01*
X352118Y709151D01*
X352155Y709040D01*
X352192Y708920D01*
X352257Y708652D01*
X352303Y708356D01*
X352313Y708199D01*
X352322Y708042D01*
Y707959D01*
X352313Y707894D01*
Y707820D01*
X352303Y707728D01*
X352285Y707626D01*
X352266Y707515D01*
X352220Y707274D01*
X352146Y707006D01*
X352044Y706729D01*
X351980Y706600D01*
X351906Y706461D01*
X351896Y706452D01*
X351887Y706433D01*
X351859Y706396D01*
X351832Y706350D01*
X351786Y706285D01*
X351730Y706220D01*
X351601Y706063D01*
X351434Y705888D01*
X351231Y705712D01*
X351000Y705536D01*
X350732Y705379D01*
X350722D01*
X350695Y705361D01*
X350658Y705342D01*
X350602Y705324D01*
X350528Y705296D01*
X350445Y705259D01*
X350343Y705222D01*
X350232Y705194D01*
X350112Y705157D01*
X349983Y705120D01*
X349844Y705092D01*
X349687Y705055D01*
X349363Y705018D01*
X349021Y705000D01*
X349012D01*
X348975D01*
X348929D01*
X348864Y705009D01*
X348781D01*
X348679Y705018D01*
X348568Y705028D01*
X348448Y705046D01*
X348180Y705092D01*
X347893Y705157D01*
X347588Y705250D01*
X347292Y705379D01*
X347283Y705388D01*
X347255Y705398D01*
X347218Y705416D01*
X347163Y705453D01*
X347098Y705490D01*
X347024Y705536D01*
X346848Y705666D01*
X346663Y705814D01*
X346469Y706008D01*
X346275Y706220D01*
X346109Y706470D01*
X346099Y706479D01*
X346090Y706507D01*
X346072Y706544D01*
X346044Y706600D01*
X346016Y706664D01*
X345979Y706738D01*
X345942Y706831D01*
X345905Y706932D01*
X345868Y707053D01*
X345831Y707173D01*
X345767Y707441D01*
X345720Y707737D01*
X345702Y707894D01*
Y708143D01*
X345711Y708208D01*
Y708291D01*
X345720Y708375D01*
X345739Y708486D01*
X345757Y708597D01*
X345804Y708837D01*
X345877Y709114D01*
X345989Y709382D01*
X346053Y709521D01*
X346127Y709660D01*
X346136Y709669D01*
X346146Y709688D01*
X346173Y709725D01*
X346201Y709780D01*
X346247Y709836D01*
X346303Y709909D01*
X346432Y710067D01*
X346599Y710233D01*
X346802Y710418D01*
X347043Y710594D01*
X347311Y710742D01*
X347320D01*
X347348Y710760D01*
X347385Y710779D01*
X347440Y710797D01*
X347514Y710834D01*
X347597Y710862D01*
X347699Y710899D01*
X347810Y710936D01*
X347930Y710963D01*
X348060Y711000D01*
X348198Y711037D01*
X348346Y711065D01*
X348670Y711102D01*
X349012Y711121D01*
X349021D01*
X349049D01*
X349086D01*
X349141D01*
X349215Y711111D01*
X349298D01*
X349391Y711102D01*
X349483Y711093D01*
X349705Y711065D01*
X349946Y711019D01*
X350195Y710963D01*
X350436Y710880D01*
X350445D01*
X350463Y710871D01*
X350500Y710853D01*
X350537Y710834D01*
X350593Y710806D01*
X350658Y710779D01*
X350805Y710704D01*
X350981Y710603D01*
X351166Y710473D01*
X351351Y710325D01*
X351536Y710159D01*
Y710168D01*
X351554Y710187D01*
X351573Y710214D01*
X351601Y710261D01*
X351637Y710307D01*
X351674Y710372D01*
X351758Y710510D01*
X351859Y710677D01*
X351961Y710862D01*
X352044Y711056D01*
X352128Y711241D01*
X352710Y710991D01*
D02*
G37*
%LPC*%
G36*
X349021Y710251D02*
X349012D01*
X348984D01*
X348947D01*
X348892D01*
X348818Y710242D01*
X348744D01*
X348651Y710233D01*
X348559Y710214D01*
X348346Y710187D01*
X348115Y710141D01*
X347884Y710076D01*
X347662Y709983D01*
X347653D01*
X347634Y709974D01*
X347607Y709956D01*
X347570Y709937D01*
X347458Y709872D01*
X347329Y709789D01*
X347181Y709678D01*
X347033Y709540D01*
X346885Y709382D01*
X346756Y709207D01*
Y709197D01*
X346737Y709188D01*
X346728Y709161D01*
X346700Y709114D01*
X346682Y709068D01*
X346654Y709013D01*
X346590Y708874D01*
X346534Y708708D01*
X346479Y708513D01*
X346441Y708291D01*
X346432Y708060D01*
Y707968D01*
X346441Y707903D01*
X346451Y707820D01*
X346469Y707728D01*
X346488Y707626D01*
X346516Y707515D01*
X346553Y707385D01*
X346590Y707265D01*
X346645Y707136D01*
X346710Y706997D01*
X346784Y706868D01*
X346876Y706738D01*
X346968Y706609D01*
X347089Y706489D01*
X347098Y706479D01*
X347117Y706461D01*
X347153Y706433D01*
X347209Y706396D01*
X347274Y706341D01*
X347357Y706294D01*
X347458Y706239D01*
X347570Y706183D01*
X347699Y706119D01*
X347847Y706063D01*
X348004Y706017D01*
X348180Y705971D01*
X348365Y705925D01*
X348568Y705897D01*
X348790Y705878D01*
X349021Y705869D01*
X349039D01*
X349076D01*
X349141D01*
X349224Y705878D01*
X349326Y705888D01*
X349446Y705906D01*
X349585Y705925D01*
X349724Y705943D01*
X350038Y706017D01*
X350195Y706063D01*
X350352Y706128D01*
X350510Y706193D01*
X350658Y706276D01*
X350805Y706368D01*
X350935Y706479D01*
X350944Y706489D01*
X350963Y706507D01*
X351000Y706544D01*
X351037Y706590D01*
X351092Y706655D01*
X351147Y706729D01*
X351203Y706812D01*
X351268Y706914D01*
X351332Y707016D01*
X351388Y707136D01*
X351443Y707265D01*
X351499Y707404D01*
X351536Y707561D01*
X351573Y707718D01*
X351591Y707885D01*
X351601Y708060D01*
Y708143D01*
X351591Y708227D01*
X351582Y708338D01*
X351564Y708476D01*
X351527Y708615D01*
X351490Y708772D01*
X351434Y708920D01*
X351425Y708902D01*
X351388Y708855D01*
X351342Y708772D01*
X351286Y708671D01*
X351231Y708541D01*
X351166Y708402D01*
X351111Y708245D01*
X351064Y708079D01*
X350454Y708291D01*
Y708301D01*
X350463Y708328D01*
X350473Y708365D01*
X350491Y708412D01*
X350510Y708476D01*
X350537Y708550D01*
X350602Y708717D01*
X350695Y708911D01*
X350796Y709114D01*
X350916Y709308D01*
X351064Y709503D01*
X351055Y709512D01*
X351037Y709540D01*
X350990Y709577D01*
X350935Y709623D01*
X350861Y709678D01*
X350778Y709743D01*
X350676Y709808D01*
X350556Y709882D01*
X350417Y709946D01*
X350260Y710011D01*
X350093Y710076D01*
X349918Y710131D01*
X349715Y710187D01*
X349502Y710224D01*
X349271Y710242D01*
X349021Y710251D01*
D02*
G37*
%LPD*%
D10*
X523050Y465550D02*
Y664450D01*
Y465550D02*
X616950D01*
Y664450D01*
X523050D02*
X616950D01*
X259550Y646850D02*
X439350D01*
Y763150D01*
X259550D02*
X439350D01*
X259550Y646850D02*
Y763150D01*
M02*
